M48
; DRILL file {KiCad (5.1.5)-3} date 01/02/2021 00:00:23
; FORMAT={-:-/ absolute / inch / decimal}
; #@! TF.CreationDate,2021-02-01T00:00:23+01:00
; #@! TF.GenerationSoftware,Kicad,Pcbnew,(5.1.5)-3
; #@! TF.FileFunction,Plated,1,2,PTH
FMAT,2
INCH
T1C0.0157
T2C0.0300
T3C0.0315
T4C0.0354
T5C0.0394
T6C0.0433
%
G90
G05
T1
X4.8061Y-3.7429
X4.9436Y-3.7612
X5.2366Y-3.9439
X5.3Y-2.35
T2
X5.61Y-2.5
X5.61Y-2.6
X5.71Y-2.5
X5.71Y-2.6
X5.81Y-2.5
X5.81Y-2.6
X5.91Y-2.5
X5.91Y-2.6
T3
X3.6Y-3.1
X4.0Y-3.1
X4.59Y-2.4
X4.59Y-2.5
X4.59Y-2.6
X4.59Y-2.7
X4.59Y-2.8
X4.59Y-2.9
X4.59Y-3.0
X4.59Y-3.1
X4.59Y-3.2
X4.59Y-3.3
X4.59Y-3.4
X4.59Y-3.5
X4.59Y-3.6
X4.59Y-3.7
X4.59Y-3.8
X5.19Y-2.4
X5.19Y-2.5
X5.19Y-2.6
X5.19Y-2.7
X5.19Y-2.8
X5.19Y-2.9
X5.19Y-3.0
X5.19Y-3.1
X5.19Y-3.2
X5.19Y-3.3
X5.19Y-3.4
X5.19Y-3.5
X5.19Y-3.6
X5.19Y-3.7
X5.19Y-3.8
X3.6Y-2.8
X4.0Y-2.8
T4
X3.5401Y-3.75
X3.5401Y-3.8484
X3.5401Y-3.9469
X3.67Y-3.75
X3.67Y-3.8484
X3.67Y-3.9469
X4.2Y-2.8
X4.3Y-2.8
X3.5401Y-3.32
X3.5401Y-3.4184
X3.5401Y-3.5169
X3.67Y-3.32
X3.67Y-3.4184
X3.67Y-3.5169
X4.2Y-3.1
X4.3Y-3.1
T5
X4.14Y-2.62
X4.24Y-2.62
X4.34Y-2.62
X5.41Y-4.09
X5.51Y-4.09
X5.61Y-4.09
X5.71Y-4.09
X5.81Y-4.09
X5.47Y-2.84
X5.47Y-2.94
X4.07Y-4.09
X4.17Y-4.09
X4.27Y-4.09
X4.37Y-4.09
X4.47Y-4.09
T6
X4.99Y-4.08
X4.99Y-4.2572
X5.2459Y-4.08
X5.2459Y-4.2572
X4.12Y-3.33
X4.12Y-3.5072
X4.3759Y-3.33
X4.3759Y-3.5072
X5.45Y-3.61
X5.45Y-3.7872
X5.7059Y-3.61
X5.7059Y-3.7872
X5.45Y-3.27
X5.45Y-3.4472
X5.7059Y-3.27
X5.7059Y-3.4472
X4.61Y-4.08
X4.61Y-4.2572
X4.8659Y-4.08
X4.8659Y-4.2572
X6.05Y-3.68
X6.15Y-3.68
X6.25Y-3.68
T0
M30
