%FSLAX45Y45*%
G04 Gerber Fmt 4.5, Leading zero omitted, Abs format (unit mm)*
G04 Created by KiCad (PCBNEW (5.1.5)-3) date 2021-02-01 00:00:24*
%MOMM*%
%LPD*%
G04 APERTURE LIST*
%TA.AperFunction,Profile*%
%ADD10C,0.050000*%
%TD*%
%ADD11C,0.200000*%
%ADD12C,0.300000*%
G04 APERTURE END LIST*
D10*
X8839200Y-5588000D02*
X8839200Y-11404600D01*
X16306800Y-5588000D02*
X8839200Y-5588000D01*
X16306800Y-11404600D02*
X16306800Y-5588000D01*
X8839200Y-11404600D02*
X16306800Y-11404600D01*
D11*
X12187520Y-9486890D02*
X12227520Y-9526890D01*
X12227520Y-9486890D02*
X12187520Y-9526890D01*
X12536620Y-9533490D02*
X12576620Y-9573490D01*
X12576620Y-9533490D02*
X12536620Y-9573490D01*
X13280920Y-9997420D02*
X13320920Y-10037420D01*
X13320920Y-9997420D02*
X13280920Y-10037420D01*
X13442000Y-5949000D02*
X13482000Y-5989000D01*
X13482000Y-5949000D02*
X13442000Y-5989000D01*
X14287500Y-6350000D02*
G75*
G03X14287500Y-6350000I-38100J0D01*
G01*
X14287500Y-6604000D02*
G75*
G03X14287500Y-6604000I-38100J0D01*
G01*
X14541500Y-6350000D02*
G75*
G03X14541500Y-6350000I-38100J0D01*
G01*
X14541500Y-6604000D02*
G75*
G03X14541500Y-6604000I-38100J0D01*
G01*
X14795500Y-6350000D02*
G75*
G03X14795500Y-6350000I-38100J0D01*
G01*
X14795500Y-6604000D02*
G75*
G03X14795500Y-6604000I-38100J0D01*
G01*
X15049500Y-6350000D02*
G75*
G03X15049500Y-6350000I-38100J0D01*
G01*
X15049500Y-6604000D02*
G75*
G03X15049500Y-6604000I-38100J0D01*
G01*
X9144000Y-7834000D02*
X9144000Y-7914000D01*
X9104000Y-7874000D02*
X9184000Y-7874000D01*
X10160000Y-7834000D02*
X10160000Y-7914000D01*
X10120000Y-7874000D02*
X10200000Y-7874000D01*
X11658600Y-6056000D02*
X11658600Y-6136000D01*
X11618600Y-6096000D02*
X11698600Y-6096000D01*
X11658600Y-6310000D02*
X11658600Y-6390000D01*
X11618600Y-6350000D02*
X11698600Y-6350000D01*
X11658600Y-6564000D02*
X11658600Y-6644000D01*
X11618600Y-6604000D02*
X11698600Y-6604000D01*
X11658600Y-6818000D02*
X11658600Y-6898000D01*
X11618600Y-6858000D02*
X11698600Y-6858000D01*
X11658600Y-7072000D02*
X11658600Y-7152000D01*
X11618600Y-7112000D02*
X11698600Y-7112000D01*
X11658600Y-7326000D02*
X11658600Y-7406000D01*
X11618600Y-7366000D02*
X11698600Y-7366000D01*
X11658600Y-7580000D02*
X11658600Y-7660000D01*
X11618600Y-7620000D02*
X11698600Y-7620000D01*
X11658600Y-7834000D02*
X11658600Y-7914000D01*
X11618600Y-7874000D02*
X11698600Y-7874000D01*
X11658600Y-8088000D02*
X11658600Y-8168000D01*
X11618600Y-8128000D02*
X11698600Y-8128000D01*
X11658600Y-8342000D02*
X11658600Y-8422000D01*
X11618600Y-8382000D02*
X11698600Y-8382000D01*
X11658600Y-8596000D02*
X11658600Y-8676000D01*
X11618600Y-8636000D02*
X11698600Y-8636000D01*
X11658600Y-8850000D02*
X11658600Y-8930000D01*
X11618600Y-8890000D02*
X11698600Y-8890000D01*
X11658600Y-9104000D02*
X11658600Y-9184000D01*
X11618600Y-9144000D02*
X11698600Y-9144000D01*
X11658600Y-9358000D02*
X11658600Y-9438000D01*
X11618600Y-9398000D02*
X11698600Y-9398000D01*
X11658600Y-9612000D02*
X11658600Y-9692000D01*
X11618600Y-9652000D02*
X11698600Y-9652000D01*
X13182600Y-6056000D02*
X13182600Y-6136000D01*
X13142600Y-6096000D02*
X13222600Y-6096000D01*
X13182600Y-6310000D02*
X13182600Y-6390000D01*
X13142600Y-6350000D02*
X13222600Y-6350000D01*
X13182600Y-6564000D02*
X13182600Y-6644000D01*
X13142600Y-6604000D02*
X13222600Y-6604000D01*
X13182600Y-6818000D02*
X13182600Y-6898000D01*
X13142600Y-6858000D02*
X13222600Y-6858000D01*
X13182600Y-7072000D02*
X13182600Y-7152000D01*
X13142600Y-7112000D02*
X13222600Y-7112000D01*
X13182600Y-7326000D02*
X13182600Y-7406000D01*
X13142600Y-7366000D02*
X13222600Y-7366000D01*
X13182600Y-7580000D02*
X13182600Y-7660000D01*
X13142600Y-7620000D02*
X13222600Y-7620000D01*
X13182600Y-7834000D02*
X13182600Y-7914000D01*
X13142600Y-7874000D02*
X13222600Y-7874000D01*
X13182600Y-8088000D02*
X13182600Y-8168000D01*
X13142600Y-8128000D02*
X13222600Y-8128000D01*
X13182600Y-8342000D02*
X13182600Y-8422000D01*
X13142600Y-8382000D02*
X13222600Y-8382000D01*
X13182600Y-8596000D02*
X13182600Y-8676000D01*
X13142600Y-8636000D02*
X13222600Y-8636000D01*
X13182600Y-8850000D02*
X13182600Y-8930000D01*
X13142600Y-8890000D02*
X13222600Y-8890000D01*
X13182600Y-9104000D02*
X13182600Y-9184000D01*
X13142600Y-9144000D02*
X13222600Y-9144000D01*
X13182600Y-9358000D02*
X13182600Y-9438000D01*
X13142600Y-9398000D02*
X13222600Y-9398000D01*
X13182600Y-9612000D02*
X13182600Y-9692000D01*
X13142600Y-9652000D02*
X13222600Y-9652000D01*
X9144000Y-7072000D02*
X9144000Y-7152000D01*
X9104000Y-7112000D02*
X9184000Y-7112000D01*
X10160000Y-7072000D02*
X10160000Y-7152000D01*
X10120000Y-7112000D02*
X10200000Y-7112000D01*
X9023620Y-9556820D02*
X9023620Y-9493180D01*
X8959980Y-9493180D01*
X8959980Y-9556820D01*
X9023620Y-9556820D01*
X9023620Y-9806820D02*
X9023620Y-9743180D01*
X8959980Y-9743180D01*
X8959980Y-9806820D01*
X9023620Y-9806820D01*
X9023620Y-10056820D02*
X9023620Y-9993180D01*
X8959980Y-9993180D01*
X8959980Y-10056820D01*
X9023620Y-10056820D01*
X9353620Y-9556820D02*
X9353620Y-9493180D01*
X9289980Y-9493180D01*
X9289980Y-9556820D01*
X9353620Y-9556820D01*
X9353620Y-9806820D02*
X9353620Y-9743180D01*
X9289980Y-9743180D01*
X9289980Y-9806820D01*
X9353620Y-9806820D01*
X9353620Y-10056820D02*
X9353620Y-9993180D01*
X9289980Y-9993180D01*
X9289980Y-10056820D01*
X9353620Y-10056820D01*
X10699820Y-7143820D02*
X10699820Y-7080180D01*
X10636180Y-7080180D01*
X10636180Y-7143820D01*
X10699820Y-7143820D01*
X10953820Y-7143820D02*
X10953820Y-7080180D01*
X10890180Y-7080180D01*
X10890180Y-7143820D01*
X10953820Y-7143820D01*
X9023620Y-8464620D02*
X9023620Y-8400980D01*
X8959980Y-8400980D01*
X8959980Y-8464620D01*
X9023620Y-8464620D01*
X9023620Y-8714620D02*
X9023620Y-8650980D01*
X8959980Y-8650980D01*
X8959980Y-8714620D01*
X9023620Y-8714620D01*
X9023620Y-8964620D02*
X9023620Y-8900980D01*
X8959980Y-8900980D01*
X8959980Y-8964620D01*
X9023620Y-8964620D01*
X9353620Y-8464620D02*
X9353620Y-8400980D01*
X9289980Y-8400980D01*
X9289980Y-8464620D01*
X9353620Y-8464620D01*
X9353620Y-8714620D02*
X9353620Y-8650980D01*
X9289980Y-8650980D01*
X9289980Y-8714620D01*
X9353620Y-8714620D01*
X9353620Y-8964620D02*
X9353620Y-8900980D01*
X9289980Y-8900980D01*
X9289980Y-8964620D01*
X9353620Y-8964620D01*
X10699820Y-7905820D02*
X10699820Y-7842180D01*
X10636180Y-7842180D01*
X10636180Y-7905820D01*
X10699820Y-7905820D01*
X10953820Y-7905820D02*
X10953820Y-7842180D01*
X10890180Y-7842180D01*
X10890180Y-7905820D01*
X10953820Y-7905820D01*
X10515600Y-6704800D02*
X10565600Y-6654800D01*
X10515600Y-6604800D01*
X10465600Y-6654800D01*
X10515600Y-6704800D01*
X10769600Y-6704800D02*
X10819600Y-6654800D01*
X10769600Y-6604800D01*
X10719600Y-6654800D01*
X10769600Y-6704800D01*
X11023600Y-6704800D02*
X11073600Y-6654800D01*
X11023600Y-6604800D01*
X10973600Y-6654800D01*
X11023600Y-6704800D01*
X13741400Y-10438600D02*
X13791400Y-10388600D01*
X13741400Y-10338600D01*
X13691400Y-10388600D01*
X13741400Y-10438600D01*
X13995400Y-10438600D02*
X14045400Y-10388600D01*
X13995400Y-10338600D01*
X13945400Y-10388600D01*
X13995400Y-10438600D01*
X14249400Y-10438600D02*
X14299400Y-10388600D01*
X14249400Y-10338600D01*
X14199400Y-10388600D01*
X14249400Y-10438600D01*
X14503400Y-10438600D02*
X14553400Y-10388600D01*
X14503400Y-10338600D01*
X14453400Y-10388600D01*
X14503400Y-10438600D01*
X14757400Y-10438600D02*
X14807400Y-10388600D01*
X14757400Y-10338600D01*
X14707400Y-10388600D01*
X14757400Y-10438600D01*
X13893800Y-7263600D02*
X13943800Y-7213600D01*
X13893800Y-7163600D01*
X13843800Y-7213600D01*
X13893800Y-7263600D01*
X13893800Y-7517600D02*
X13943800Y-7467600D01*
X13893800Y-7417600D01*
X13843800Y-7467600D01*
X13893800Y-7517600D01*
X10337800Y-10438600D02*
X10387800Y-10388600D01*
X10337800Y-10338600D01*
X10287800Y-10388600D01*
X10337800Y-10438600D01*
X10591800Y-10438600D02*
X10641800Y-10388600D01*
X10591800Y-10338600D01*
X10541800Y-10388600D01*
X10591800Y-10438600D01*
X10845800Y-10438600D02*
X10895800Y-10388600D01*
X10845800Y-10338600D01*
X10795800Y-10388600D01*
X10845800Y-10438600D01*
X11099800Y-10438600D02*
X11149800Y-10388600D01*
X11099800Y-10338600D01*
X11049800Y-10388600D01*
X11099800Y-10438600D01*
X11353800Y-10438600D02*
X11403800Y-10388600D01*
X11353800Y-10338600D01*
X11303800Y-10388600D01*
X11353800Y-10438600D01*
X12619600Y-10308200D02*
X12729600Y-10418200D01*
X12729600Y-10308200D02*
X12619600Y-10418200D01*
X12729600Y-10363200D02*
G75*
G03X12729600Y-10363200I-55000J0D01*
G01*
X12619600Y-10758200D02*
X12729600Y-10868200D01*
X12729600Y-10758200D02*
X12619600Y-10868200D01*
X12729600Y-10813200D02*
G75*
G03X12729600Y-10813200I-55000J0D01*
G01*
X13269600Y-10308200D02*
X13379600Y-10418200D01*
X13379600Y-10308200D02*
X13269600Y-10418200D01*
X13379600Y-10363200D02*
G75*
G03X13379600Y-10363200I-55000J0D01*
G01*
X13269600Y-10758200D02*
X13379600Y-10868200D01*
X13379600Y-10758200D02*
X13269600Y-10868200D01*
X13379600Y-10813200D02*
G75*
G03X13379600Y-10813200I-55000J0D01*
G01*
X10409800Y-8403200D02*
X10519800Y-8513200D01*
X10519800Y-8403200D02*
X10409800Y-8513200D01*
X10519800Y-8458200D02*
G75*
G03X10519800Y-8458200I-55000J0D01*
G01*
X10409800Y-8853200D02*
X10519800Y-8963200D01*
X10519800Y-8853200D02*
X10409800Y-8963200D01*
X10519800Y-8908200D02*
G75*
G03X10519800Y-8908200I-55000J0D01*
G01*
X11059800Y-8403200D02*
X11169800Y-8513200D01*
X11169800Y-8403200D02*
X11059800Y-8513200D01*
X11169800Y-8458200D02*
G75*
G03X11169800Y-8458200I-55000J0D01*
G01*
X11059800Y-8853200D02*
X11169800Y-8963200D01*
X11169800Y-8853200D02*
X11059800Y-8963200D01*
X11169800Y-8908200D02*
G75*
G03X11169800Y-8908200I-55000J0D01*
G01*
X13788000Y-9114400D02*
X13898000Y-9224400D01*
X13898000Y-9114400D02*
X13788000Y-9224400D01*
X13898000Y-9169400D02*
G75*
G03X13898000Y-9169400I-55000J0D01*
G01*
X13788000Y-9564400D02*
X13898000Y-9674400D01*
X13898000Y-9564400D02*
X13788000Y-9674400D01*
X13898000Y-9619400D02*
G75*
G03X13898000Y-9619400I-55000J0D01*
G01*
X14438000Y-9114400D02*
X14548000Y-9224400D01*
X14548000Y-9114400D02*
X14438000Y-9224400D01*
X14548000Y-9169400D02*
G75*
G03X14548000Y-9169400I-55000J0D01*
G01*
X14438000Y-9564400D02*
X14548000Y-9674400D01*
X14548000Y-9564400D02*
X14438000Y-9674400D01*
X14548000Y-9619400D02*
G75*
G03X14548000Y-9619400I-55000J0D01*
G01*
X13788000Y-8250800D02*
X13898000Y-8360800D01*
X13898000Y-8250800D02*
X13788000Y-8360800D01*
X13898000Y-8305800D02*
G75*
G03X13898000Y-8305800I-55000J0D01*
G01*
X13788000Y-8700800D02*
X13898000Y-8810800D01*
X13898000Y-8700800D02*
X13788000Y-8810800D01*
X13898000Y-8755800D02*
G75*
G03X13898000Y-8755800I-55000J0D01*
G01*
X14438000Y-8250800D02*
X14548000Y-8360800D01*
X14548000Y-8250800D02*
X14438000Y-8360800D01*
X14548000Y-8305800D02*
G75*
G03X14548000Y-8305800I-55000J0D01*
G01*
X14438000Y-8700800D02*
X14548000Y-8810800D01*
X14548000Y-8700800D02*
X14438000Y-8810800D01*
X14548000Y-8755800D02*
G75*
G03X14548000Y-8755800I-55000J0D01*
G01*
X11654400Y-10308200D02*
X11764400Y-10418200D01*
X11764400Y-10308200D02*
X11654400Y-10418200D01*
X11764400Y-10363200D02*
G75*
G03X11764400Y-10363200I-55000J0D01*
G01*
X11654400Y-10758200D02*
X11764400Y-10868200D01*
X11764400Y-10758200D02*
X11654400Y-10868200D01*
X11764400Y-10813200D02*
G75*
G03X11764400Y-10813200I-55000J0D01*
G01*
X12304400Y-10308200D02*
X12414400Y-10418200D01*
X12414400Y-10308200D02*
X12304400Y-10418200D01*
X12414400Y-10363200D02*
G75*
G03X12414400Y-10363200I-55000J0D01*
G01*
X12304400Y-10758200D02*
X12414400Y-10868200D01*
X12414400Y-10758200D02*
X12304400Y-10868200D01*
X12414400Y-10813200D02*
G75*
G03X12414400Y-10813200I-55000J0D01*
G01*
X15312000Y-9292200D02*
X15422000Y-9402200D01*
X15422000Y-9292200D02*
X15312000Y-9402200D01*
X15422000Y-9347200D02*
G75*
G03X15422000Y-9347200I-55000J0D01*
G01*
X15566000Y-9292200D02*
X15676000Y-9402200D01*
X15676000Y-9292200D02*
X15566000Y-9402200D01*
X15676000Y-9347200D02*
G75*
G03X15676000Y-9347200I-55000J0D01*
G01*
X15820000Y-9292200D02*
X15930000Y-9402200D01*
X15930000Y-9292200D02*
X15820000Y-9402200D01*
X15930000Y-9347200D02*
G75*
G03X15930000Y-9347200I-55000J0D01*
G01*
D12*
X9123128Y-11872814D02*
X9123128Y-11572814D01*
X9194557Y-11572814D01*
X9237414Y-11587100D01*
X9265986Y-11615671D01*
X9280271Y-11644243D01*
X9294557Y-11701386D01*
X9294557Y-11744243D01*
X9280271Y-11801386D01*
X9265986Y-11829957D01*
X9237414Y-11858529D01*
X9194557Y-11872814D01*
X9123128Y-11872814D01*
X9423128Y-11872814D02*
X9423128Y-11672814D01*
X9423128Y-11729957D02*
X9437414Y-11701386D01*
X9451700Y-11687100D01*
X9480271Y-11672814D01*
X9508843Y-11672814D01*
X9608843Y-11872814D02*
X9608843Y-11672814D01*
X9608843Y-11572814D02*
X9594557Y-11587100D01*
X9608843Y-11601386D01*
X9623128Y-11587100D01*
X9608843Y-11572814D01*
X9608843Y-11601386D01*
X9794557Y-11872814D02*
X9765986Y-11858529D01*
X9751700Y-11829957D01*
X9751700Y-11572814D01*
X9951700Y-11872814D02*
X9923128Y-11858529D01*
X9908843Y-11829957D01*
X9908843Y-11572814D01*
X10294557Y-11872814D02*
X10294557Y-11572814D01*
X10394557Y-11787100D01*
X10494557Y-11572814D01*
X10494557Y-11872814D01*
X10765986Y-11872814D02*
X10765986Y-11715671D01*
X10751700Y-11687100D01*
X10723128Y-11672814D01*
X10665986Y-11672814D01*
X10637414Y-11687100D01*
X10765986Y-11858529D02*
X10737414Y-11872814D01*
X10665986Y-11872814D01*
X10637414Y-11858529D01*
X10623128Y-11829957D01*
X10623128Y-11801386D01*
X10637414Y-11772814D01*
X10665986Y-11758529D01*
X10737414Y-11758529D01*
X10765986Y-11744243D01*
X10908843Y-11672814D02*
X10908843Y-11972814D01*
X10908843Y-11687100D02*
X10937414Y-11672814D01*
X10994557Y-11672814D01*
X11023128Y-11687100D01*
X11037414Y-11701386D01*
X11051700Y-11729957D01*
X11051700Y-11815671D01*
X11037414Y-11844243D01*
X11023128Y-11858529D01*
X10994557Y-11872814D01*
X10937414Y-11872814D01*
X10908843Y-11858529D01*
X11180271Y-11844243D02*
X11194557Y-11858529D01*
X11180271Y-11872814D01*
X11165986Y-11858529D01*
X11180271Y-11844243D01*
X11180271Y-11872814D01*
X11180271Y-11687100D02*
X11194557Y-11701386D01*
X11180271Y-11715671D01*
X11165986Y-11701386D01*
X11180271Y-11687100D01*
X11180271Y-11715671D01*
X8796700Y-12347100D02*
X8836700Y-12387100D01*
X8836700Y-12347100D02*
X8796700Y-12387100D01*
X9180271Y-12202814D02*
X9208843Y-12202814D01*
X9237414Y-12217100D01*
X9251700Y-12231386D01*
X9265986Y-12259957D01*
X9280271Y-12317100D01*
X9280271Y-12388529D01*
X9265986Y-12445671D01*
X9251700Y-12474243D01*
X9237414Y-12488529D01*
X9208843Y-12502814D01*
X9180271Y-12502814D01*
X9151700Y-12488529D01*
X9137414Y-12474243D01*
X9123128Y-12445671D01*
X9108843Y-12388529D01*
X9108843Y-12317100D01*
X9123128Y-12259957D01*
X9137414Y-12231386D01*
X9151700Y-12217100D01*
X9180271Y-12202814D01*
X9408843Y-12474243D02*
X9423128Y-12488529D01*
X9408843Y-12502814D01*
X9394557Y-12488529D01*
X9408843Y-12474243D01*
X9408843Y-12502814D01*
X9680271Y-12302814D02*
X9680271Y-12502814D01*
X9608843Y-12188529D02*
X9537414Y-12402814D01*
X9723128Y-12402814D01*
X9894557Y-12202814D02*
X9923128Y-12202814D01*
X9951700Y-12217100D01*
X9965986Y-12231386D01*
X9980271Y-12259957D01*
X9994557Y-12317100D01*
X9994557Y-12388529D01*
X9980271Y-12445671D01*
X9965986Y-12474243D01*
X9951700Y-12488529D01*
X9923128Y-12502814D01*
X9894557Y-12502814D01*
X9865986Y-12488529D01*
X9851700Y-12474243D01*
X9837414Y-12445671D01*
X9823128Y-12388529D01*
X9823128Y-12317100D01*
X9837414Y-12259957D01*
X9851700Y-12231386D01*
X9865986Y-12217100D01*
X9894557Y-12202814D01*
X10123128Y-12502814D02*
X10123128Y-12302814D01*
X10123128Y-12331386D02*
X10137414Y-12317100D01*
X10165986Y-12302814D01*
X10208843Y-12302814D01*
X10237414Y-12317100D01*
X10251700Y-12345671D01*
X10251700Y-12502814D01*
X10251700Y-12345671D02*
X10265986Y-12317100D01*
X10294557Y-12302814D01*
X10337414Y-12302814D01*
X10365986Y-12317100D01*
X10380271Y-12345671D01*
X10380271Y-12502814D01*
X10523128Y-12502814D02*
X10523128Y-12302814D01*
X10523128Y-12331386D02*
X10537414Y-12317100D01*
X10565986Y-12302814D01*
X10608843Y-12302814D01*
X10637414Y-12317100D01*
X10651700Y-12345671D01*
X10651700Y-12502814D01*
X10651700Y-12345671D02*
X10665986Y-12317100D01*
X10694557Y-12302814D01*
X10737414Y-12302814D01*
X10765986Y-12317100D01*
X10780271Y-12345671D01*
X10780271Y-12502814D01*
X11365986Y-12188529D02*
X11108843Y-12574243D01*
X11751700Y-12202814D02*
X11780271Y-12202814D01*
X11808843Y-12217100D01*
X11823128Y-12231386D01*
X11837414Y-12259957D01*
X11851700Y-12317100D01*
X11851700Y-12388529D01*
X11837414Y-12445671D01*
X11823128Y-12474243D01*
X11808843Y-12488529D01*
X11780271Y-12502814D01*
X11751700Y-12502814D01*
X11723128Y-12488529D01*
X11708843Y-12474243D01*
X11694557Y-12445671D01*
X11680271Y-12388529D01*
X11680271Y-12317100D01*
X11694557Y-12259957D01*
X11708843Y-12231386D01*
X11723128Y-12217100D01*
X11751700Y-12202814D01*
X11980271Y-12474243D02*
X11994557Y-12488529D01*
X11980271Y-12502814D01*
X11965986Y-12488529D01*
X11980271Y-12474243D01*
X11980271Y-12502814D01*
X12180271Y-12202814D02*
X12208843Y-12202814D01*
X12237414Y-12217100D01*
X12251700Y-12231386D01*
X12265986Y-12259957D01*
X12280271Y-12317100D01*
X12280271Y-12388529D01*
X12265986Y-12445671D01*
X12251700Y-12474243D01*
X12237414Y-12488529D01*
X12208843Y-12502814D01*
X12180271Y-12502814D01*
X12151700Y-12488529D01*
X12137414Y-12474243D01*
X12123128Y-12445671D01*
X12108843Y-12388529D01*
X12108843Y-12317100D01*
X12123128Y-12259957D01*
X12137414Y-12231386D01*
X12151700Y-12217100D01*
X12180271Y-12202814D01*
X12565986Y-12502814D02*
X12394557Y-12502814D01*
X12480271Y-12502814D02*
X12480271Y-12202814D01*
X12451700Y-12245671D01*
X12423128Y-12274243D01*
X12394557Y-12288529D01*
X12823128Y-12202814D02*
X12765986Y-12202814D01*
X12737414Y-12217100D01*
X12723128Y-12231386D01*
X12694557Y-12274243D01*
X12680271Y-12331386D01*
X12680271Y-12445671D01*
X12694557Y-12474243D01*
X12708843Y-12488529D01*
X12737414Y-12502814D01*
X12794557Y-12502814D01*
X12823128Y-12488529D01*
X12837414Y-12474243D01*
X12851700Y-12445671D01*
X12851700Y-12374243D01*
X12837414Y-12345671D01*
X12823128Y-12331386D01*
X12794557Y-12317100D01*
X12737414Y-12317100D01*
X12708843Y-12331386D01*
X12694557Y-12345671D01*
X12680271Y-12374243D01*
X12965986Y-12202814D02*
X12965986Y-12259957D01*
X13080271Y-12202814D02*
X13080271Y-12259957D01*
X13523128Y-12617100D02*
X13508843Y-12602814D01*
X13480271Y-12559957D01*
X13465986Y-12531386D01*
X13451700Y-12488529D01*
X13437414Y-12417100D01*
X13437414Y-12359957D01*
X13451700Y-12288529D01*
X13465986Y-12245671D01*
X13480271Y-12217100D01*
X13508843Y-12174243D01*
X13523128Y-12159957D01*
X13765986Y-12302814D02*
X13765986Y-12502814D01*
X13694557Y-12188529D02*
X13623128Y-12402814D01*
X13808843Y-12402814D01*
X14151700Y-12502814D02*
X14151700Y-12202814D01*
X14280271Y-12502814D02*
X14280271Y-12345671D01*
X14265986Y-12317100D01*
X14237414Y-12302814D01*
X14194557Y-12302814D01*
X14165986Y-12317100D01*
X14151700Y-12331386D01*
X14465986Y-12502814D02*
X14437414Y-12488529D01*
X14423128Y-12474243D01*
X14408843Y-12445671D01*
X14408843Y-12359957D01*
X14423128Y-12331386D01*
X14437414Y-12317100D01*
X14465986Y-12302814D01*
X14508843Y-12302814D01*
X14537414Y-12317100D01*
X14551700Y-12331386D01*
X14565986Y-12359957D01*
X14565986Y-12445671D01*
X14551700Y-12474243D01*
X14537414Y-12488529D01*
X14508843Y-12502814D01*
X14465986Y-12502814D01*
X14737414Y-12502814D02*
X14708843Y-12488529D01*
X14694557Y-12459957D01*
X14694557Y-12202814D01*
X14965986Y-12488529D02*
X14937414Y-12502814D01*
X14880271Y-12502814D01*
X14851700Y-12488529D01*
X14837414Y-12459957D01*
X14837414Y-12345671D01*
X14851700Y-12317100D01*
X14880271Y-12302814D01*
X14937414Y-12302814D01*
X14965986Y-12317100D01*
X14980271Y-12345671D01*
X14980271Y-12374243D01*
X14837414Y-12402814D01*
X15094557Y-12488529D02*
X15123128Y-12502814D01*
X15180271Y-12502814D01*
X15208843Y-12488529D01*
X15223128Y-12459957D01*
X15223128Y-12445671D01*
X15208843Y-12417100D01*
X15180271Y-12402814D01*
X15137414Y-12402814D01*
X15108843Y-12388529D01*
X15094557Y-12359957D01*
X15094557Y-12345671D01*
X15108843Y-12317100D01*
X15137414Y-12302814D01*
X15180271Y-12302814D01*
X15208843Y-12317100D01*
X15323128Y-12617100D02*
X15337414Y-12602814D01*
X15365986Y-12559957D01*
X15380271Y-12531386D01*
X15394557Y-12488529D01*
X15408843Y-12417100D01*
X15408843Y-12359957D01*
X15394557Y-12288529D01*
X15380271Y-12245671D01*
X15365986Y-12217100D01*
X15337414Y-12174243D01*
X15323128Y-12159957D01*
X8836700Y-12763100D02*
G75*
G03X8836700Y-12763100I-38100J0D01*
G01*
X9180271Y-12598814D02*
X9208843Y-12598814D01*
X9237414Y-12613100D01*
X9251700Y-12627386D01*
X9265986Y-12655957D01*
X9280271Y-12713100D01*
X9280271Y-12784529D01*
X9265986Y-12841671D01*
X9251700Y-12870243D01*
X9237414Y-12884529D01*
X9208843Y-12898814D01*
X9180271Y-12898814D01*
X9151700Y-12884529D01*
X9137414Y-12870243D01*
X9123128Y-12841671D01*
X9108843Y-12784529D01*
X9108843Y-12713100D01*
X9123128Y-12655957D01*
X9137414Y-12627386D01*
X9151700Y-12613100D01*
X9180271Y-12598814D01*
X9408843Y-12870243D02*
X9423128Y-12884529D01*
X9408843Y-12898814D01*
X9394557Y-12884529D01*
X9408843Y-12870243D01*
X9408843Y-12898814D01*
X9523128Y-12598814D02*
X9723128Y-12598814D01*
X9594557Y-12898814D01*
X9965986Y-12598814D02*
X9908843Y-12598814D01*
X9880271Y-12613100D01*
X9865986Y-12627386D01*
X9837414Y-12670243D01*
X9823128Y-12727386D01*
X9823128Y-12841671D01*
X9837414Y-12870243D01*
X9851700Y-12884529D01*
X9880271Y-12898814D01*
X9937414Y-12898814D01*
X9965986Y-12884529D01*
X9980271Y-12870243D01*
X9994557Y-12841671D01*
X9994557Y-12770243D01*
X9980271Y-12741671D01*
X9965986Y-12727386D01*
X9937414Y-12713100D01*
X9880271Y-12713100D01*
X9851700Y-12727386D01*
X9837414Y-12741671D01*
X9823128Y-12770243D01*
X10123128Y-12898814D02*
X10123128Y-12698814D01*
X10123128Y-12727386D02*
X10137414Y-12713100D01*
X10165986Y-12698814D01*
X10208843Y-12698814D01*
X10237414Y-12713100D01*
X10251700Y-12741671D01*
X10251700Y-12898814D01*
X10251700Y-12741671D02*
X10265986Y-12713100D01*
X10294557Y-12698814D01*
X10337414Y-12698814D01*
X10365986Y-12713100D01*
X10380271Y-12741671D01*
X10380271Y-12898814D01*
X10523128Y-12898814D02*
X10523128Y-12698814D01*
X10523128Y-12727386D02*
X10537414Y-12713100D01*
X10565986Y-12698814D01*
X10608843Y-12698814D01*
X10637414Y-12713100D01*
X10651700Y-12741671D01*
X10651700Y-12898814D01*
X10651700Y-12741671D02*
X10665986Y-12713100D01*
X10694557Y-12698814D01*
X10737414Y-12698814D01*
X10765986Y-12713100D01*
X10780271Y-12741671D01*
X10780271Y-12898814D01*
X11365986Y-12584529D02*
X11108843Y-12970243D01*
X11751700Y-12598814D02*
X11780271Y-12598814D01*
X11808843Y-12613100D01*
X11823128Y-12627386D01*
X11837414Y-12655957D01*
X11851700Y-12713100D01*
X11851700Y-12784529D01*
X11837414Y-12841671D01*
X11823128Y-12870243D01*
X11808843Y-12884529D01*
X11780271Y-12898814D01*
X11751700Y-12898814D01*
X11723128Y-12884529D01*
X11708843Y-12870243D01*
X11694557Y-12841671D01*
X11680271Y-12784529D01*
X11680271Y-12713100D01*
X11694557Y-12655957D01*
X11708843Y-12627386D01*
X11723128Y-12613100D01*
X11751700Y-12598814D01*
X11980271Y-12870243D02*
X11994557Y-12884529D01*
X11980271Y-12898814D01*
X11965986Y-12884529D01*
X11980271Y-12870243D01*
X11980271Y-12898814D01*
X12180271Y-12598814D02*
X12208843Y-12598814D01*
X12237414Y-12613100D01*
X12251700Y-12627386D01*
X12265986Y-12655957D01*
X12280271Y-12713100D01*
X12280271Y-12784529D01*
X12265986Y-12841671D01*
X12251700Y-12870243D01*
X12237414Y-12884529D01*
X12208843Y-12898814D01*
X12180271Y-12898814D01*
X12151700Y-12884529D01*
X12137414Y-12870243D01*
X12123128Y-12841671D01*
X12108843Y-12784529D01*
X12108843Y-12713100D01*
X12123128Y-12655957D01*
X12137414Y-12627386D01*
X12151700Y-12613100D01*
X12180271Y-12598814D01*
X12380271Y-12598814D02*
X12565986Y-12598814D01*
X12465986Y-12713100D01*
X12508843Y-12713100D01*
X12537414Y-12727386D01*
X12551700Y-12741671D01*
X12565986Y-12770243D01*
X12565986Y-12841671D01*
X12551700Y-12870243D01*
X12537414Y-12884529D01*
X12508843Y-12898814D01*
X12423128Y-12898814D01*
X12394557Y-12884529D01*
X12380271Y-12870243D01*
X12751700Y-12598814D02*
X12780271Y-12598814D01*
X12808843Y-12613100D01*
X12823128Y-12627386D01*
X12837414Y-12655957D01*
X12851700Y-12713100D01*
X12851700Y-12784529D01*
X12837414Y-12841671D01*
X12823128Y-12870243D01*
X12808843Y-12884529D01*
X12780271Y-12898814D01*
X12751700Y-12898814D01*
X12723128Y-12884529D01*
X12708843Y-12870243D01*
X12694557Y-12841671D01*
X12680271Y-12784529D01*
X12680271Y-12713100D01*
X12694557Y-12655957D01*
X12708843Y-12627386D01*
X12723128Y-12613100D01*
X12751700Y-12598814D01*
X12965986Y-12598814D02*
X12965986Y-12655957D01*
X13080271Y-12598814D02*
X13080271Y-12655957D01*
X13523128Y-13013100D02*
X13508843Y-12998814D01*
X13480271Y-12955957D01*
X13465986Y-12927386D01*
X13451700Y-12884529D01*
X13437414Y-12813100D01*
X13437414Y-12755957D01*
X13451700Y-12684529D01*
X13465986Y-12641671D01*
X13480271Y-12613100D01*
X13508843Y-12570243D01*
X13523128Y-12555957D01*
X13680271Y-12727386D02*
X13651700Y-12713100D01*
X13637414Y-12698814D01*
X13623128Y-12670243D01*
X13623128Y-12655957D01*
X13637414Y-12627386D01*
X13651700Y-12613100D01*
X13680271Y-12598814D01*
X13737414Y-12598814D01*
X13765986Y-12613100D01*
X13780271Y-12627386D01*
X13794557Y-12655957D01*
X13794557Y-12670243D01*
X13780271Y-12698814D01*
X13765986Y-12713100D01*
X13737414Y-12727386D01*
X13680271Y-12727386D01*
X13651700Y-12741671D01*
X13637414Y-12755957D01*
X13623128Y-12784529D01*
X13623128Y-12841671D01*
X13637414Y-12870243D01*
X13651700Y-12884529D01*
X13680271Y-12898814D01*
X13737414Y-12898814D01*
X13765986Y-12884529D01*
X13780271Y-12870243D01*
X13794557Y-12841671D01*
X13794557Y-12784529D01*
X13780271Y-12755957D01*
X13765986Y-12741671D01*
X13737414Y-12727386D01*
X14151700Y-12898814D02*
X14151700Y-12598814D01*
X14280271Y-12898814D02*
X14280271Y-12741671D01*
X14265986Y-12713100D01*
X14237414Y-12698814D01*
X14194557Y-12698814D01*
X14165986Y-12713100D01*
X14151700Y-12727386D01*
X14465986Y-12898814D02*
X14437414Y-12884529D01*
X14423128Y-12870243D01*
X14408843Y-12841671D01*
X14408843Y-12755957D01*
X14423128Y-12727386D01*
X14437414Y-12713100D01*
X14465986Y-12698814D01*
X14508843Y-12698814D01*
X14537414Y-12713100D01*
X14551700Y-12727386D01*
X14565986Y-12755957D01*
X14565986Y-12841671D01*
X14551700Y-12870243D01*
X14537414Y-12884529D01*
X14508843Y-12898814D01*
X14465986Y-12898814D01*
X14737414Y-12898814D02*
X14708843Y-12884529D01*
X14694557Y-12855957D01*
X14694557Y-12598814D01*
X14965986Y-12884529D02*
X14937414Y-12898814D01*
X14880271Y-12898814D01*
X14851700Y-12884529D01*
X14837414Y-12855957D01*
X14837414Y-12741671D01*
X14851700Y-12713100D01*
X14880271Y-12698814D01*
X14937414Y-12698814D01*
X14965986Y-12713100D01*
X14980271Y-12741671D01*
X14980271Y-12770243D01*
X14837414Y-12798814D01*
X15094557Y-12884529D02*
X15123128Y-12898814D01*
X15180271Y-12898814D01*
X15208843Y-12884529D01*
X15223128Y-12855957D01*
X15223128Y-12841671D01*
X15208843Y-12813100D01*
X15180271Y-12798814D01*
X15137414Y-12798814D01*
X15108843Y-12784529D01*
X15094557Y-12755957D01*
X15094557Y-12741671D01*
X15108843Y-12713100D01*
X15137414Y-12698814D01*
X15180271Y-12698814D01*
X15208843Y-12713100D01*
X15323128Y-13013100D02*
X15337414Y-12998814D01*
X15365986Y-12955957D01*
X15380271Y-12927386D01*
X15394557Y-12884529D01*
X15408843Y-12813100D01*
X15408843Y-12755957D01*
X15394557Y-12684529D01*
X15380271Y-12641671D01*
X15365986Y-12613100D01*
X15337414Y-12570243D01*
X15323128Y-12555957D01*
X8796700Y-13119100D02*
X8796700Y-13199100D01*
X8756700Y-13159100D02*
X8836700Y-13159100D01*
X9180271Y-12994814D02*
X9208843Y-12994814D01*
X9237414Y-13009100D01*
X9251700Y-13023386D01*
X9265986Y-13051957D01*
X9280271Y-13109100D01*
X9280271Y-13180529D01*
X9265986Y-13237671D01*
X9251700Y-13266243D01*
X9237414Y-13280529D01*
X9208843Y-13294814D01*
X9180271Y-13294814D01*
X9151700Y-13280529D01*
X9137414Y-13266243D01*
X9123128Y-13237671D01*
X9108843Y-13180529D01*
X9108843Y-13109100D01*
X9123128Y-13051957D01*
X9137414Y-13023386D01*
X9151700Y-13009100D01*
X9180271Y-12994814D01*
X9408843Y-13266243D02*
X9423128Y-13280529D01*
X9408843Y-13294814D01*
X9394557Y-13280529D01*
X9408843Y-13266243D01*
X9408843Y-13294814D01*
X9594557Y-13123386D02*
X9565986Y-13109100D01*
X9551700Y-13094814D01*
X9537414Y-13066243D01*
X9537414Y-13051957D01*
X9551700Y-13023386D01*
X9565986Y-13009100D01*
X9594557Y-12994814D01*
X9651700Y-12994814D01*
X9680271Y-13009100D01*
X9694557Y-13023386D01*
X9708843Y-13051957D01*
X9708843Y-13066243D01*
X9694557Y-13094814D01*
X9680271Y-13109100D01*
X9651700Y-13123386D01*
X9594557Y-13123386D01*
X9565986Y-13137671D01*
X9551700Y-13151957D01*
X9537414Y-13180529D01*
X9537414Y-13237671D01*
X9551700Y-13266243D01*
X9565986Y-13280529D01*
X9594557Y-13294814D01*
X9651700Y-13294814D01*
X9680271Y-13280529D01*
X9694557Y-13266243D01*
X9708843Y-13237671D01*
X9708843Y-13180529D01*
X9694557Y-13151957D01*
X9680271Y-13137671D01*
X9651700Y-13123386D01*
X9894557Y-12994814D02*
X9923128Y-12994814D01*
X9951700Y-13009100D01*
X9965986Y-13023386D01*
X9980271Y-13051957D01*
X9994557Y-13109100D01*
X9994557Y-13180529D01*
X9980271Y-13237671D01*
X9965986Y-13266243D01*
X9951700Y-13280529D01*
X9923128Y-13294814D01*
X9894557Y-13294814D01*
X9865986Y-13280529D01*
X9851700Y-13266243D01*
X9837414Y-13237671D01*
X9823128Y-13180529D01*
X9823128Y-13109100D01*
X9837414Y-13051957D01*
X9851700Y-13023386D01*
X9865986Y-13009100D01*
X9894557Y-12994814D01*
X10123128Y-13294814D02*
X10123128Y-13094814D01*
X10123128Y-13123386D02*
X10137414Y-13109100D01*
X10165986Y-13094814D01*
X10208843Y-13094814D01*
X10237414Y-13109100D01*
X10251700Y-13137671D01*
X10251700Y-13294814D01*
X10251700Y-13137671D02*
X10265986Y-13109100D01*
X10294557Y-13094814D01*
X10337414Y-13094814D01*
X10365986Y-13109100D01*
X10380271Y-13137671D01*
X10380271Y-13294814D01*
X10523128Y-13294814D02*
X10523128Y-13094814D01*
X10523128Y-13123386D02*
X10537414Y-13109100D01*
X10565986Y-13094814D01*
X10608843Y-13094814D01*
X10637414Y-13109100D01*
X10651700Y-13137671D01*
X10651700Y-13294814D01*
X10651700Y-13137671D02*
X10665986Y-13109100D01*
X10694557Y-13094814D01*
X10737414Y-13094814D01*
X10765986Y-13109100D01*
X10780271Y-13137671D01*
X10780271Y-13294814D01*
X11365986Y-12980529D02*
X11108843Y-13366243D01*
X11751700Y-12994814D02*
X11780271Y-12994814D01*
X11808843Y-13009100D01*
X11823128Y-13023386D01*
X11837414Y-13051957D01*
X11851700Y-13109100D01*
X11851700Y-13180529D01*
X11837414Y-13237671D01*
X11823128Y-13266243D01*
X11808843Y-13280529D01*
X11780271Y-13294814D01*
X11751700Y-13294814D01*
X11723128Y-13280529D01*
X11708843Y-13266243D01*
X11694557Y-13237671D01*
X11680271Y-13180529D01*
X11680271Y-13109100D01*
X11694557Y-13051957D01*
X11708843Y-13023386D01*
X11723128Y-13009100D01*
X11751700Y-12994814D01*
X11980271Y-13266243D02*
X11994557Y-13280529D01*
X11980271Y-13294814D01*
X11965986Y-13280529D01*
X11980271Y-13266243D01*
X11980271Y-13294814D01*
X12180271Y-12994814D02*
X12208843Y-12994814D01*
X12237414Y-13009100D01*
X12251700Y-13023386D01*
X12265986Y-13051957D01*
X12280271Y-13109100D01*
X12280271Y-13180529D01*
X12265986Y-13237671D01*
X12251700Y-13266243D01*
X12237414Y-13280529D01*
X12208843Y-13294814D01*
X12180271Y-13294814D01*
X12151700Y-13280529D01*
X12137414Y-13266243D01*
X12123128Y-13237671D01*
X12108843Y-13180529D01*
X12108843Y-13109100D01*
X12123128Y-13051957D01*
X12137414Y-13023386D01*
X12151700Y-13009100D01*
X12180271Y-12994814D01*
X12380271Y-12994814D02*
X12565986Y-12994814D01*
X12465986Y-13109100D01*
X12508843Y-13109100D01*
X12537414Y-13123386D01*
X12551700Y-13137671D01*
X12565986Y-13166243D01*
X12565986Y-13237671D01*
X12551700Y-13266243D01*
X12537414Y-13280529D01*
X12508843Y-13294814D01*
X12423128Y-13294814D01*
X12394557Y-13280529D01*
X12380271Y-13266243D01*
X12851700Y-13294814D02*
X12680271Y-13294814D01*
X12765986Y-13294814D02*
X12765986Y-12994814D01*
X12737414Y-13037671D01*
X12708843Y-13066243D01*
X12680271Y-13080529D01*
X12965986Y-12994814D02*
X12965986Y-13051957D01*
X13080271Y-12994814D02*
X13080271Y-13051957D01*
X13523128Y-13409100D02*
X13508843Y-13394814D01*
X13480271Y-13351957D01*
X13465986Y-13323386D01*
X13451700Y-13280529D01*
X13437414Y-13209100D01*
X13437414Y-13151957D01*
X13451700Y-13080529D01*
X13465986Y-13037671D01*
X13480271Y-13009100D01*
X13508843Y-12966243D01*
X13523128Y-12951957D01*
X13608843Y-12994814D02*
X13794557Y-12994814D01*
X13694557Y-13109100D01*
X13737414Y-13109100D01*
X13765986Y-13123386D01*
X13780271Y-13137671D01*
X13794557Y-13166243D01*
X13794557Y-13237671D01*
X13780271Y-13266243D01*
X13765986Y-13280529D01*
X13737414Y-13294814D01*
X13651700Y-13294814D01*
X13623128Y-13280529D01*
X13608843Y-13266243D01*
X14051700Y-13094814D02*
X14051700Y-13294814D01*
X13980271Y-12980529D02*
X13908843Y-13194814D01*
X14094557Y-13194814D01*
X14437414Y-13294814D02*
X14437414Y-12994814D01*
X14565986Y-13294814D02*
X14565986Y-13137671D01*
X14551700Y-13109100D01*
X14523128Y-13094814D01*
X14480271Y-13094814D01*
X14451700Y-13109100D01*
X14437414Y-13123386D01*
X14751700Y-13294814D02*
X14723128Y-13280529D01*
X14708843Y-13266243D01*
X14694557Y-13237671D01*
X14694557Y-13151957D01*
X14708843Y-13123386D01*
X14723128Y-13109100D01*
X14751700Y-13094814D01*
X14794557Y-13094814D01*
X14823128Y-13109100D01*
X14837414Y-13123386D01*
X14851700Y-13151957D01*
X14851700Y-13237671D01*
X14837414Y-13266243D01*
X14823128Y-13280529D01*
X14794557Y-13294814D01*
X14751700Y-13294814D01*
X15023128Y-13294814D02*
X14994557Y-13280529D01*
X14980271Y-13251957D01*
X14980271Y-12994814D01*
X15251700Y-13280529D02*
X15223128Y-13294814D01*
X15165986Y-13294814D01*
X15137414Y-13280529D01*
X15123128Y-13251957D01*
X15123128Y-13137671D01*
X15137414Y-13109100D01*
X15165986Y-13094814D01*
X15223128Y-13094814D01*
X15251700Y-13109100D01*
X15265986Y-13137671D01*
X15265986Y-13166243D01*
X15123128Y-13194814D01*
X15380271Y-13280529D02*
X15408843Y-13294814D01*
X15465986Y-13294814D01*
X15494557Y-13280529D01*
X15508843Y-13251957D01*
X15508843Y-13237671D01*
X15494557Y-13209100D01*
X15465986Y-13194814D01*
X15423128Y-13194814D01*
X15394557Y-13180529D01*
X15380271Y-13151957D01*
X15380271Y-13137671D01*
X15394557Y-13109100D01*
X15423128Y-13094814D01*
X15465986Y-13094814D01*
X15494557Y-13109100D01*
X15608843Y-13409100D02*
X15623128Y-13394814D01*
X15651700Y-13351957D01*
X15665986Y-13323386D01*
X15680271Y-13280529D01*
X15694557Y-13209100D01*
X15694557Y-13151957D01*
X15680271Y-13080529D01*
X15665986Y-13037671D01*
X15651700Y-13009100D01*
X15623128Y-12966243D01*
X15608843Y-12951957D01*
X8823520Y-13586920D02*
X8823520Y-13523280D01*
X8759880Y-13523280D01*
X8759880Y-13586920D01*
X8823520Y-13586920D01*
X9180271Y-13390814D02*
X9208843Y-13390814D01*
X9237414Y-13405100D01*
X9251700Y-13419386D01*
X9265986Y-13447957D01*
X9280271Y-13505100D01*
X9280271Y-13576529D01*
X9265986Y-13633671D01*
X9251700Y-13662243D01*
X9237414Y-13676529D01*
X9208843Y-13690814D01*
X9180271Y-13690814D01*
X9151700Y-13676529D01*
X9137414Y-13662243D01*
X9123128Y-13633671D01*
X9108843Y-13576529D01*
X9108843Y-13505100D01*
X9123128Y-13447957D01*
X9137414Y-13419386D01*
X9151700Y-13405100D01*
X9180271Y-13390814D01*
X9408843Y-13662243D02*
X9423128Y-13676529D01*
X9408843Y-13690814D01*
X9394557Y-13676529D01*
X9408843Y-13662243D01*
X9408843Y-13690814D01*
X9565986Y-13690814D02*
X9623128Y-13690814D01*
X9651700Y-13676529D01*
X9665986Y-13662243D01*
X9694557Y-13619386D01*
X9708843Y-13562243D01*
X9708843Y-13447957D01*
X9694557Y-13419386D01*
X9680271Y-13405100D01*
X9651700Y-13390814D01*
X9594557Y-13390814D01*
X9565986Y-13405100D01*
X9551700Y-13419386D01*
X9537414Y-13447957D01*
X9537414Y-13519386D01*
X9551700Y-13547957D01*
X9565986Y-13562243D01*
X9594557Y-13576529D01*
X9651700Y-13576529D01*
X9680271Y-13562243D01*
X9694557Y-13547957D01*
X9708843Y-13519386D01*
X9894557Y-13390814D02*
X9923128Y-13390814D01*
X9951700Y-13405100D01*
X9965986Y-13419386D01*
X9980271Y-13447957D01*
X9994557Y-13505100D01*
X9994557Y-13576529D01*
X9980271Y-13633671D01*
X9965986Y-13662243D01*
X9951700Y-13676529D01*
X9923128Y-13690814D01*
X9894557Y-13690814D01*
X9865986Y-13676529D01*
X9851700Y-13662243D01*
X9837414Y-13633671D01*
X9823128Y-13576529D01*
X9823128Y-13505100D01*
X9837414Y-13447957D01*
X9851700Y-13419386D01*
X9865986Y-13405100D01*
X9894557Y-13390814D01*
X10123128Y-13690814D02*
X10123128Y-13490814D01*
X10123128Y-13519386D02*
X10137414Y-13505100D01*
X10165986Y-13490814D01*
X10208843Y-13490814D01*
X10237414Y-13505100D01*
X10251700Y-13533671D01*
X10251700Y-13690814D01*
X10251700Y-13533671D02*
X10265986Y-13505100D01*
X10294557Y-13490814D01*
X10337414Y-13490814D01*
X10365986Y-13505100D01*
X10380271Y-13533671D01*
X10380271Y-13690814D01*
X10523128Y-13690814D02*
X10523128Y-13490814D01*
X10523128Y-13519386D02*
X10537414Y-13505100D01*
X10565986Y-13490814D01*
X10608843Y-13490814D01*
X10637414Y-13505100D01*
X10651700Y-13533671D01*
X10651700Y-13690814D01*
X10651700Y-13533671D02*
X10665986Y-13505100D01*
X10694557Y-13490814D01*
X10737414Y-13490814D01*
X10765986Y-13505100D01*
X10780271Y-13533671D01*
X10780271Y-13690814D01*
X11365986Y-13376529D02*
X11108843Y-13762243D01*
X11751700Y-13390814D02*
X11780271Y-13390814D01*
X11808843Y-13405100D01*
X11823128Y-13419386D01*
X11837414Y-13447957D01*
X11851700Y-13505100D01*
X11851700Y-13576529D01*
X11837414Y-13633671D01*
X11823128Y-13662243D01*
X11808843Y-13676529D01*
X11780271Y-13690814D01*
X11751700Y-13690814D01*
X11723128Y-13676529D01*
X11708843Y-13662243D01*
X11694557Y-13633671D01*
X11680271Y-13576529D01*
X11680271Y-13505100D01*
X11694557Y-13447957D01*
X11708843Y-13419386D01*
X11723128Y-13405100D01*
X11751700Y-13390814D01*
X11980271Y-13662243D02*
X11994557Y-13676529D01*
X11980271Y-13690814D01*
X11965986Y-13676529D01*
X11980271Y-13662243D01*
X11980271Y-13690814D01*
X12180271Y-13390814D02*
X12208843Y-13390814D01*
X12237414Y-13405100D01*
X12251700Y-13419386D01*
X12265986Y-13447957D01*
X12280271Y-13505100D01*
X12280271Y-13576529D01*
X12265986Y-13633671D01*
X12251700Y-13662243D01*
X12237414Y-13676529D01*
X12208843Y-13690814D01*
X12180271Y-13690814D01*
X12151700Y-13676529D01*
X12137414Y-13662243D01*
X12123128Y-13633671D01*
X12108843Y-13576529D01*
X12108843Y-13505100D01*
X12123128Y-13447957D01*
X12137414Y-13419386D01*
X12151700Y-13405100D01*
X12180271Y-13390814D01*
X12380271Y-13390814D02*
X12565986Y-13390814D01*
X12465986Y-13505100D01*
X12508843Y-13505100D01*
X12537414Y-13519386D01*
X12551700Y-13533671D01*
X12565986Y-13562243D01*
X12565986Y-13633671D01*
X12551700Y-13662243D01*
X12537414Y-13676529D01*
X12508843Y-13690814D01*
X12423128Y-13690814D01*
X12394557Y-13676529D01*
X12380271Y-13662243D01*
X12837414Y-13390814D02*
X12694557Y-13390814D01*
X12680271Y-13533671D01*
X12694557Y-13519386D01*
X12723128Y-13505100D01*
X12794557Y-13505100D01*
X12823128Y-13519386D01*
X12837414Y-13533671D01*
X12851700Y-13562243D01*
X12851700Y-13633671D01*
X12837414Y-13662243D01*
X12823128Y-13676529D01*
X12794557Y-13690814D01*
X12723128Y-13690814D01*
X12694557Y-13676529D01*
X12680271Y-13662243D01*
X12965986Y-13390814D02*
X12965986Y-13447957D01*
X13080271Y-13390814D02*
X13080271Y-13447957D01*
X13523128Y-13805100D02*
X13508843Y-13790814D01*
X13480271Y-13747957D01*
X13465986Y-13719386D01*
X13451700Y-13676529D01*
X13437414Y-13605100D01*
X13437414Y-13547957D01*
X13451700Y-13476529D01*
X13465986Y-13433671D01*
X13480271Y-13405100D01*
X13508843Y-13362243D01*
X13523128Y-13347957D01*
X13794557Y-13690814D02*
X13623128Y-13690814D01*
X13708843Y-13690814D02*
X13708843Y-13390814D01*
X13680271Y-13433671D01*
X13651700Y-13462243D01*
X13623128Y-13476529D01*
X14051700Y-13390814D02*
X13994557Y-13390814D01*
X13965986Y-13405100D01*
X13951700Y-13419386D01*
X13923128Y-13462243D01*
X13908843Y-13519386D01*
X13908843Y-13633671D01*
X13923128Y-13662243D01*
X13937414Y-13676529D01*
X13965986Y-13690814D01*
X14023128Y-13690814D01*
X14051700Y-13676529D01*
X14065986Y-13662243D01*
X14080271Y-13633671D01*
X14080271Y-13562243D01*
X14065986Y-13533671D01*
X14051700Y-13519386D01*
X14023128Y-13505100D01*
X13965986Y-13505100D01*
X13937414Y-13519386D01*
X13923128Y-13533671D01*
X13908843Y-13562243D01*
X14437414Y-13690814D02*
X14437414Y-13390814D01*
X14565986Y-13690814D02*
X14565986Y-13533671D01*
X14551700Y-13505100D01*
X14523128Y-13490814D01*
X14480271Y-13490814D01*
X14451700Y-13505100D01*
X14437414Y-13519386D01*
X14751700Y-13690814D02*
X14723128Y-13676529D01*
X14708843Y-13662243D01*
X14694557Y-13633671D01*
X14694557Y-13547957D01*
X14708843Y-13519386D01*
X14723128Y-13505100D01*
X14751700Y-13490814D01*
X14794557Y-13490814D01*
X14823128Y-13505100D01*
X14837414Y-13519386D01*
X14851700Y-13547957D01*
X14851700Y-13633671D01*
X14837414Y-13662243D01*
X14823128Y-13676529D01*
X14794557Y-13690814D01*
X14751700Y-13690814D01*
X15023128Y-13690814D02*
X14994557Y-13676529D01*
X14980271Y-13647957D01*
X14980271Y-13390814D01*
X15251700Y-13676529D02*
X15223128Y-13690814D01*
X15165986Y-13690814D01*
X15137414Y-13676529D01*
X15123128Y-13647957D01*
X15123128Y-13533671D01*
X15137414Y-13505100D01*
X15165986Y-13490814D01*
X15223128Y-13490814D01*
X15251700Y-13505100D01*
X15265986Y-13533671D01*
X15265986Y-13562243D01*
X15123128Y-13590814D01*
X15380271Y-13676529D02*
X15408843Y-13690814D01*
X15465986Y-13690814D01*
X15494557Y-13676529D01*
X15508843Y-13647957D01*
X15508843Y-13633671D01*
X15494557Y-13605100D01*
X15465986Y-13590814D01*
X15423128Y-13590814D01*
X15394557Y-13576529D01*
X15380271Y-13547957D01*
X15380271Y-13533671D01*
X15394557Y-13505100D01*
X15423128Y-13490814D01*
X15465986Y-13490814D01*
X15494557Y-13505100D01*
X15608843Y-13805100D02*
X15623128Y-13790814D01*
X15651700Y-13747957D01*
X15665986Y-13719386D01*
X15680271Y-13676529D01*
X15694557Y-13605100D01*
X15694557Y-13547957D01*
X15680271Y-13476529D01*
X15665986Y-13433671D01*
X15651700Y-13405100D01*
X15623128Y-13362243D01*
X15608843Y-13347957D01*
X8786700Y-14001100D02*
X8836700Y-13951100D01*
X8786700Y-13901100D01*
X8736700Y-13951100D01*
X8786700Y-14001100D01*
X9280271Y-14086814D02*
X9108843Y-14086814D01*
X9194557Y-14086814D02*
X9194557Y-13786814D01*
X9165986Y-13829671D01*
X9137414Y-13858243D01*
X9108843Y-13872529D01*
X9408843Y-14058243D02*
X9423128Y-14072529D01*
X9408843Y-14086814D01*
X9394557Y-14072529D01*
X9408843Y-14058243D01*
X9408843Y-14086814D01*
X9608843Y-13786814D02*
X9637414Y-13786814D01*
X9665986Y-13801100D01*
X9680271Y-13815386D01*
X9694557Y-13843957D01*
X9708843Y-13901100D01*
X9708843Y-13972529D01*
X9694557Y-14029671D01*
X9680271Y-14058243D01*
X9665986Y-14072529D01*
X9637414Y-14086814D01*
X9608843Y-14086814D01*
X9580271Y-14072529D01*
X9565986Y-14058243D01*
X9551700Y-14029671D01*
X9537414Y-13972529D01*
X9537414Y-13901100D01*
X9551700Y-13843957D01*
X9565986Y-13815386D01*
X9580271Y-13801100D01*
X9608843Y-13786814D01*
X9894557Y-13786814D02*
X9923128Y-13786814D01*
X9951700Y-13801100D01*
X9965986Y-13815386D01*
X9980271Y-13843957D01*
X9994557Y-13901100D01*
X9994557Y-13972529D01*
X9980271Y-14029671D01*
X9965986Y-14058243D01*
X9951700Y-14072529D01*
X9923128Y-14086814D01*
X9894557Y-14086814D01*
X9865986Y-14072529D01*
X9851700Y-14058243D01*
X9837414Y-14029671D01*
X9823128Y-13972529D01*
X9823128Y-13901100D01*
X9837414Y-13843957D01*
X9851700Y-13815386D01*
X9865986Y-13801100D01*
X9894557Y-13786814D01*
X10123128Y-14086814D02*
X10123128Y-13886814D01*
X10123128Y-13915386D02*
X10137414Y-13901100D01*
X10165986Y-13886814D01*
X10208843Y-13886814D01*
X10237414Y-13901100D01*
X10251700Y-13929671D01*
X10251700Y-14086814D01*
X10251700Y-13929671D02*
X10265986Y-13901100D01*
X10294557Y-13886814D01*
X10337414Y-13886814D01*
X10365986Y-13901100D01*
X10380271Y-13929671D01*
X10380271Y-14086814D01*
X10523128Y-14086814D02*
X10523128Y-13886814D01*
X10523128Y-13915386D02*
X10537414Y-13901100D01*
X10565986Y-13886814D01*
X10608843Y-13886814D01*
X10637414Y-13901100D01*
X10651700Y-13929671D01*
X10651700Y-14086814D01*
X10651700Y-13929671D02*
X10665986Y-13901100D01*
X10694557Y-13886814D01*
X10737414Y-13886814D01*
X10765986Y-13901100D01*
X10780271Y-13929671D01*
X10780271Y-14086814D01*
X11365986Y-13772529D02*
X11108843Y-14158243D01*
X11751700Y-13786814D02*
X11780271Y-13786814D01*
X11808843Y-13801100D01*
X11823128Y-13815386D01*
X11837414Y-13843957D01*
X11851700Y-13901100D01*
X11851700Y-13972529D01*
X11837414Y-14029671D01*
X11823128Y-14058243D01*
X11808843Y-14072529D01*
X11780271Y-14086814D01*
X11751700Y-14086814D01*
X11723128Y-14072529D01*
X11708843Y-14058243D01*
X11694557Y-14029671D01*
X11680271Y-13972529D01*
X11680271Y-13901100D01*
X11694557Y-13843957D01*
X11708843Y-13815386D01*
X11723128Y-13801100D01*
X11751700Y-13786814D01*
X11980271Y-14058243D02*
X11994557Y-14072529D01*
X11980271Y-14086814D01*
X11965986Y-14072529D01*
X11980271Y-14058243D01*
X11980271Y-14086814D01*
X12180271Y-13786814D02*
X12208843Y-13786814D01*
X12237414Y-13801100D01*
X12251700Y-13815386D01*
X12265986Y-13843957D01*
X12280271Y-13901100D01*
X12280271Y-13972529D01*
X12265986Y-14029671D01*
X12251700Y-14058243D01*
X12237414Y-14072529D01*
X12208843Y-14086814D01*
X12180271Y-14086814D01*
X12151700Y-14072529D01*
X12137414Y-14058243D01*
X12123128Y-14029671D01*
X12108843Y-13972529D01*
X12108843Y-13901100D01*
X12123128Y-13843957D01*
X12137414Y-13815386D01*
X12151700Y-13801100D01*
X12180271Y-13786814D01*
X12380271Y-13786814D02*
X12565986Y-13786814D01*
X12465986Y-13901100D01*
X12508843Y-13901100D01*
X12537414Y-13915386D01*
X12551700Y-13929671D01*
X12565986Y-13958243D01*
X12565986Y-14029671D01*
X12551700Y-14058243D01*
X12537414Y-14072529D01*
X12508843Y-14086814D01*
X12423128Y-14086814D01*
X12394557Y-14072529D01*
X12380271Y-14058243D01*
X12708843Y-14086814D02*
X12765986Y-14086814D01*
X12794557Y-14072529D01*
X12808843Y-14058243D01*
X12837414Y-14015386D01*
X12851700Y-13958243D01*
X12851700Y-13843957D01*
X12837414Y-13815386D01*
X12823128Y-13801100D01*
X12794557Y-13786814D01*
X12737414Y-13786814D01*
X12708843Y-13801100D01*
X12694557Y-13815386D01*
X12680271Y-13843957D01*
X12680271Y-13915386D01*
X12694557Y-13943957D01*
X12708843Y-13958243D01*
X12737414Y-13972529D01*
X12794557Y-13972529D01*
X12823128Y-13958243D01*
X12837414Y-13943957D01*
X12851700Y-13915386D01*
X12965986Y-13786814D02*
X12965986Y-13843957D01*
X13080271Y-13786814D02*
X13080271Y-13843957D01*
X13523128Y-14201100D02*
X13508843Y-14186814D01*
X13480271Y-14143957D01*
X13465986Y-14115386D01*
X13451700Y-14072529D01*
X13437414Y-14001100D01*
X13437414Y-13943957D01*
X13451700Y-13872529D01*
X13465986Y-13829671D01*
X13480271Y-13801100D01*
X13508843Y-13758243D01*
X13523128Y-13743957D01*
X13794557Y-14086814D02*
X13623128Y-14086814D01*
X13708843Y-14086814D02*
X13708843Y-13786814D01*
X13680271Y-13829671D01*
X13651700Y-13858243D01*
X13623128Y-13872529D01*
X14065986Y-13786814D02*
X13923128Y-13786814D01*
X13908843Y-13929671D01*
X13923128Y-13915386D01*
X13951700Y-13901100D01*
X14023128Y-13901100D01*
X14051700Y-13915386D01*
X14065986Y-13929671D01*
X14080271Y-13958243D01*
X14080271Y-14029671D01*
X14065986Y-14058243D01*
X14051700Y-14072529D01*
X14023128Y-14086814D01*
X13951700Y-14086814D01*
X13923128Y-14072529D01*
X13908843Y-14058243D01*
X14437414Y-14086814D02*
X14437414Y-13786814D01*
X14565986Y-14086814D02*
X14565986Y-13929671D01*
X14551700Y-13901100D01*
X14523128Y-13886814D01*
X14480271Y-13886814D01*
X14451700Y-13901100D01*
X14437414Y-13915386D01*
X14751700Y-14086814D02*
X14723128Y-14072529D01*
X14708843Y-14058243D01*
X14694557Y-14029671D01*
X14694557Y-13943957D01*
X14708843Y-13915386D01*
X14723128Y-13901100D01*
X14751700Y-13886814D01*
X14794557Y-13886814D01*
X14823128Y-13901100D01*
X14837414Y-13915386D01*
X14851700Y-13943957D01*
X14851700Y-14029671D01*
X14837414Y-14058243D01*
X14823128Y-14072529D01*
X14794557Y-14086814D01*
X14751700Y-14086814D01*
X15023128Y-14086814D02*
X14994557Y-14072529D01*
X14980271Y-14043957D01*
X14980271Y-13786814D01*
X15251700Y-14072529D02*
X15223128Y-14086814D01*
X15165986Y-14086814D01*
X15137414Y-14072529D01*
X15123128Y-14043957D01*
X15123128Y-13929671D01*
X15137414Y-13901100D01*
X15165986Y-13886814D01*
X15223128Y-13886814D01*
X15251700Y-13901100D01*
X15265986Y-13929671D01*
X15265986Y-13958243D01*
X15123128Y-13986814D01*
X15380271Y-14072529D02*
X15408843Y-14086814D01*
X15465986Y-14086814D01*
X15494557Y-14072529D01*
X15508843Y-14043957D01*
X15508843Y-14029671D01*
X15494557Y-14001100D01*
X15465986Y-13986814D01*
X15423128Y-13986814D01*
X15394557Y-13972529D01*
X15380271Y-13943957D01*
X15380271Y-13929671D01*
X15394557Y-13901100D01*
X15423128Y-13886814D01*
X15465986Y-13886814D01*
X15494557Y-13901100D01*
X15608843Y-14201100D02*
X15623128Y-14186814D01*
X15651700Y-14143957D01*
X15665986Y-14115386D01*
X15680271Y-14072529D01*
X15694557Y-14001100D01*
X15694557Y-13943957D01*
X15680271Y-13872529D01*
X15665986Y-13829671D01*
X15651700Y-13801100D01*
X15623128Y-13758243D01*
X15608843Y-13743957D01*
X8726700Y-14292100D02*
X8836700Y-14402100D01*
X8836700Y-14292100D02*
X8726700Y-14402100D01*
X8836700Y-14347100D02*
G75*
G03X8836700Y-14347100I-55000J0D01*
G01*
X9280271Y-14482814D02*
X9108843Y-14482814D01*
X9194557Y-14482814D02*
X9194557Y-14182814D01*
X9165986Y-14225671D01*
X9137414Y-14254243D01*
X9108843Y-14268529D01*
X9408843Y-14454243D02*
X9423128Y-14468529D01*
X9408843Y-14482814D01*
X9394557Y-14468529D01*
X9408843Y-14454243D01*
X9408843Y-14482814D01*
X9708843Y-14482814D02*
X9537414Y-14482814D01*
X9623128Y-14482814D02*
X9623128Y-14182814D01*
X9594557Y-14225671D01*
X9565986Y-14254243D01*
X9537414Y-14268529D01*
X9894557Y-14182814D02*
X9923128Y-14182814D01*
X9951700Y-14197100D01*
X9965986Y-14211386D01*
X9980271Y-14239957D01*
X9994557Y-14297100D01*
X9994557Y-14368529D01*
X9980271Y-14425671D01*
X9965986Y-14454243D01*
X9951700Y-14468529D01*
X9923128Y-14482814D01*
X9894557Y-14482814D01*
X9865986Y-14468529D01*
X9851700Y-14454243D01*
X9837414Y-14425671D01*
X9823128Y-14368529D01*
X9823128Y-14297100D01*
X9837414Y-14239957D01*
X9851700Y-14211386D01*
X9865986Y-14197100D01*
X9894557Y-14182814D01*
X10123128Y-14482814D02*
X10123128Y-14282814D01*
X10123128Y-14311386D02*
X10137414Y-14297100D01*
X10165986Y-14282814D01*
X10208843Y-14282814D01*
X10237414Y-14297100D01*
X10251700Y-14325671D01*
X10251700Y-14482814D01*
X10251700Y-14325671D02*
X10265986Y-14297100D01*
X10294557Y-14282814D01*
X10337414Y-14282814D01*
X10365986Y-14297100D01*
X10380271Y-14325671D01*
X10380271Y-14482814D01*
X10523128Y-14482814D02*
X10523128Y-14282814D01*
X10523128Y-14311386D02*
X10537414Y-14297100D01*
X10565986Y-14282814D01*
X10608843Y-14282814D01*
X10637414Y-14297100D01*
X10651700Y-14325671D01*
X10651700Y-14482814D01*
X10651700Y-14325671D02*
X10665986Y-14297100D01*
X10694557Y-14282814D01*
X10737414Y-14282814D01*
X10765986Y-14297100D01*
X10780271Y-14325671D01*
X10780271Y-14482814D01*
X11365986Y-14168529D02*
X11108843Y-14554243D01*
X11751700Y-14182814D02*
X11780271Y-14182814D01*
X11808843Y-14197100D01*
X11823128Y-14211386D01*
X11837414Y-14239957D01*
X11851700Y-14297100D01*
X11851700Y-14368529D01*
X11837414Y-14425671D01*
X11823128Y-14454243D01*
X11808843Y-14468529D01*
X11780271Y-14482814D01*
X11751700Y-14482814D01*
X11723128Y-14468529D01*
X11708843Y-14454243D01*
X11694557Y-14425671D01*
X11680271Y-14368529D01*
X11680271Y-14297100D01*
X11694557Y-14239957D01*
X11708843Y-14211386D01*
X11723128Y-14197100D01*
X11751700Y-14182814D01*
X11980271Y-14454243D02*
X11994557Y-14468529D01*
X11980271Y-14482814D01*
X11965986Y-14468529D01*
X11980271Y-14454243D01*
X11980271Y-14482814D01*
X12180271Y-14182814D02*
X12208843Y-14182814D01*
X12237414Y-14197100D01*
X12251700Y-14211386D01*
X12265986Y-14239957D01*
X12280271Y-14297100D01*
X12280271Y-14368529D01*
X12265986Y-14425671D01*
X12251700Y-14454243D01*
X12237414Y-14468529D01*
X12208843Y-14482814D01*
X12180271Y-14482814D01*
X12151700Y-14468529D01*
X12137414Y-14454243D01*
X12123128Y-14425671D01*
X12108843Y-14368529D01*
X12108843Y-14297100D01*
X12123128Y-14239957D01*
X12137414Y-14211386D01*
X12151700Y-14197100D01*
X12180271Y-14182814D01*
X12537414Y-14282814D02*
X12537414Y-14482814D01*
X12465986Y-14168529D02*
X12394557Y-14382814D01*
X12580271Y-14382814D01*
X12665986Y-14182814D02*
X12851700Y-14182814D01*
X12751700Y-14297100D01*
X12794557Y-14297100D01*
X12823128Y-14311386D01*
X12837414Y-14325671D01*
X12851700Y-14354243D01*
X12851700Y-14425671D01*
X12837414Y-14454243D01*
X12823128Y-14468529D01*
X12794557Y-14482814D01*
X12708843Y-14482814D01*
X12680271Y-14468529D01*
X12665986Y-14454243D01*
X12965986Y-14182814D02*
X12965986Y-14239957D01*
X13080271Y-14182814D02*
X13080271Y-14239957D01*
X13523128Y-14597100D02*
X13508843Y-14582814D01*
X13480271Y-14539957D01*
X13465986Y-14511386D01*
X13451700Y-14468529D01*
X13437414Y-14397100D01*
X13437414Y-14339957D01*
X13451700Y-14268529D01*
X13465986Y-14225671D01*
X13480271Y-14197100D01*
X13508843Y-14154243D01*
X13523128Y-14139957D01*
X13623128Y-14211386D02*
X13637414Y-14197100D01*
X13665986Y-14182814D01*
X13737414Y-14182814D01*
X13765986Y-14197100D01*
X13780271Y-14211386D01*
X13794557Y-14239957D01*
X13794557Y-14268529D01*
X13780271Y-14311386D01*
X13608843Y-14482814D01*
X13794557Y-14482814D01*
X13894557Y-14182814D02*
X14080271Y-14182814D01*
X13980271Y-14297100D01*
X14023128Y-14297100D01*
X14051700Y-14311386D01*
X14065986Y-14325671D01*
X14080271Y-14354243D01*
X14080271Y-14425671D01*
X14065986Y-14454243D01*
X14051700Y-14468529D01*
X14023128Y-14482814D01*
X13937414Y-14482814D01*
X13908843Y-14468529D01*
X13894557Y-14454243D01*
X14437414Y-14482814D02*
X14437414Y-14182814D01*
X14565986Y-14482814D02*
X14565986Y-14325671D01*
X14551700Y-14297100D01*
X14523128Y-14282814D01*
X14480271Y-14282814D01*
X14451700Y-14297100D01*
X14437414Y-14311386D01*
X14751700Y-14482814D02*
X14723128Y-14468529D01*
X14708843Y-14454243D01*
X14694557Y-14425671D01*
X14694557Y-14339957D01*
X14708843Y-14311386D01*
X14723128Y-14297100D01*
X14751700Y-14282814D01*
X14794557Y-14282814D01*
X14823128Y-14297100D01*
X14837414Y-14311386D01*
X14851700Y-14339957D01*
X14851700Y-14425671D01*
X14837414Y-14454243D01*
X14823128Y-14468529D01*
X14794557Y-14482814D01*
X14751700Y-14482814D01*
X15023128Y-14482814D02*
X14994557Y-14468529D01*
X14980271Y-14439957D01*
X14980271Y-14182814D01*
X15251700Y-14468529D02*
X15223128Y-14482814D01*
X15165986Y-14482814D01*
X15137414Y-14468529D01*
X15123128Y-14439957D01*
X15123128Y-14325671D01*
X15137414Y-14297100D01*
X15165986Y-14282814D01*
X15223128Y-14282814D01*
X15251700Y-14297100D01*
X15265986Y-14325671D01*
X15265986Y-14354243D01*
X15123128Y-14382814D01*
X15380271Y-14468529D02*
X15408843Y-14482814D01*
X15465986Y-14482814D01*
X15494557Y-14468529D01*
X15508843Y-14439957D01*
X15508843Y-14425671D01*
X15494557Y-14397100D01*
X15465986Y-14382814D01*
X15423128Y-14382814D01*
X15394557Y-14368529D01*
X15380271Y-14339957D01*
X15380271Y-14325671D01*
X15394557Y-14297100D01*
X15423128Y-14282814D01*
X15465986Y-14282814D01*
X15494557Y-14297100D01*
X15608843Y-14597100D02*
X15623128Y-14582814D01*
X15651700Y-14539957D01*
X15665986Y-14511386D01*
X15680271Y-14468529D01*
X15694557Y-14397100D01*
X15694557Y-14339957D01*
X15680271Y-14268529D01*
X15665986Y-14225671D01*
X15651700Y-14197100D01*
X15623128Y-14154243D01*
X15608843Y-14139957D01*
M02*
