%FSLAX45Y45*%
G04 Gerber Fmt 4.5, Leading zero omitted, Abs format (unit mm)*
G04 Created by KiCad (PCBNEW (5.1.5)-3) date 2021-02-01 00:00:24*
%MOMM*%
%LPD*%
G04 APERTURE LIST*
%TA.AperFunction,Profile*%
%ADD10C,0.050000*%
%TD*%
%ADD11C,0.200000*%
%ADD12C,0.300000*%
G04 APERTURE END LIST*
D10*
X8839200Y-5588000D02*
X8839200Y-11404600D01*
X16306800Y-5588000D02*
X8839200Y-5588000D01*
X16306800Y-11404600D02*
X16306800Y-5588000D01*
X8839200Y-11404600D02*
X16306800Y-11404600D01*
D11*
X15795400Y-5914800D02*
X16005400Y-6124800D01*
X16005400Y-5914800D02*
X15795400Y-6124800D01*
X9191400Y-10842400D02*
X9401400Y-11052400D01*
X9401400Y-10842400D02*
X9191400Y-11052400D01*
X9191400Y-5940200D02*
X9401400Y-6150200D01*
X9401400Y-5940200D02*
X9191400Y-6150200D01*
X15796000Y-11013200D02*
G75*
G03X15796000Y-11013200I-175000J0D01*
G01*
D12*
X9123128Y-11872814D02*
X9123128Y-11572814D01*
X9194557Y-11572814D01*
X9237414Y-11587100D01*
X9265986Y-11615671D01*
X9280271Y-11644243D01*
X9294557Y-11701386D01*
X9294557Y-11744243D01*
X9280271Y-11801386D01*
X9265986Y-11829957D01*
X9237414Y-11858529D01*
X9194557Y-11872814D01*
X9123128Y-11872814D01*
X9423128Y-11872814D02*
X9423128Y-11672814D01*
X9423128Y-11729957D02*
X9437414Y-11701386D01*
X9451700Y-11687100D01*
X9480271Y-11672814D01*
X9508843Y-11672814D01*
X9608843Y-11872814D02*
X9608843Y-11672814D01*
X9608843Y-11572814D02*
X9594557Y-11587100D01*
X9608843Y-11601386D01*
X9623128Y-11587100D01*
X9608843Y-11572814D01*
X9608843Y-11601386D01*
X9794557Y-11872814D02*
X9765986Y-11858529D01*
X9751700Y-11829957D01*
X9751700Y-11572814D01*
X9951700Y-11872814D02*
X9923128Y-11858529D01*
X9908843Y-11829957D01*
X9908843Y-11572814D01*
X10294557Y-11872814D02*
X10294557Y-11572814D01*
X10394557Y-11787100D01*
X10494557Y-11572814D01*
X10494557Y-11872814D01*
X10765986Y-11872814D02*
X10765986Y-11715671D01*
X10751700Y-11687100D01*
X10723128Y-11672814D01*
X10665986Y-11672814D01*
X10637414Y-11687100D01*
X10765986Y-11858529D02*
X10737414Y-11872814D01*
X10665986Y-11872814D01*
X10637414Y-11858529D01*
X10623128Y-11829957D01*
X10623128Y-11801386D01*
X10637414Y-11772814D01*
X10665986Y-11758529D01*
X10737414Y-11758529D01*
X10765986Y-11744243D01*
X10908843Y-11672814D02*
X10908843Y-11972814D01*
X10908843Y-11687100D02*
X10937414Y-11672814D01*
X10994557Y-11672814D01*
X11023128Y-11687100D01*
X11037414Y-11701386D01*
X11051700Y-11729957D01*
X11051700Y-11815671D01*
X11037414Y-11844243D01*
X11023128Y-11858529D01*
X10994557Y-11872814D01*
X10937414Y-11872814D01*
X10908843Y-11858529D01*
X11180271Y-11844243D02*
X11194557Y-11858529D01*
X11180271Y-11872814D01*
X11165986Y-11858529D01*
X11180271Y-11844243D01*
X11180271Y-11872814D01*
X11180271Y-11687100D02*
X11194557Y-11701386D01*
X11180271Y-11715671D01*
X11165986Y-11701386D01*
X11180271Y-11687100D01*
X11180271Y-11715671D01*
X8626700Y-12262100D02*
X8836700Y-12472100D01*
X8836700Y-12262100D02*
X8626700Y-12472100D01*
X9108843Y-12231386D02*
X9123128Y-12217100D01*
X9151700Y-12202814D01*
X9223128Y-12202814D01*
X9251700Y-12217100D01*
X9265986Y-12231386D01*
X9280271Y-12259957D01*
X9280271Y-12288529D01*
X9265986Y-12331386D01*
X9094557Y-12502814D01*
X9280271Y-12502814D01*
X9408843Y-12474243D02*
X9423128Y-12488529D01*
X9408843Y-12502814D01*
X9394557Y-12488529D01*
X9408843Y-12474243D01*
X9408843Y-12502814D01*
X9708843Y-12502814D02*
X9537414Y-12502814D01*
X9623128Y-12502814D02*
X9623128Y-12202814D01*
X9594557Y-12245671D01*
X9565986Y-12274243D01*
X9537414Y-12288529D01*
X9894557Y-12202814D02*
X9923128Y-12202814D01*
X9951700Y-12217100D01*
X9965986Y-12231386D01*
X9980271Y-12259957D01*
X9994557Y-12317100D01*
X9994557Y-12388529D01*
X9980271Y-12445671D01*
X9965986Y-12474243D01*
X9951700Y-12488529D01*
X9923128Y-12502814D01*
X9894557Y-12502814D01*
X9865986Y-12488529D01*
X9851700Y-12474243D01*
X9837414Y-12445671D01*
X9823128Y-12388529D01*
X9823128Y-12317100D01*
X9837414Y-12259957D01*
X9851700Y-12231386D01*
X9865986Y-12217100D01*
X9894557Y-12202814D01*
X10123128Y-12502814D02*
X10123128Y-12302814D01*
X10123128Y-12331386D02*
X10137414Y-12317100D01*
X10165986Y-12302814D01*
X10208843Y-12302814D01*
X10237414Y-12317100D01*
X10251700Y-12345671D01*
X10251700Y-12502814D01*
X10251700Y-12345671D02*
X10265986Y-12317100D01*
X10294557Y-12302814D01*
X10337414Y-12302814D01*
X10365986Y-12317100D01*
X10380271Y-12345671D01*
X10380271Y-12502814D01*
X10523128Y-12502814D02*
X10523128Y-12302814D01*
X10523128Y-12331386D02*
X10537414Y-12317100D01*
X10565986Y-12302814D01*
X10608843Y-12302814D01*
X10637414Y-12317100D01*
X10651700Y-12345671D01*
X10651700Y-12502814D01*
X10651700Y-12345671D02*
X10665986Y-12317100D01*
X10694557Y-12302814D01*
X10737414Y-12302814D01*
X10765986Y-12317100D01*
X10780271Y-12345671D01*
X10780271Y-12502814D01*
X11365986Y-12188529D02*
X11108843Y-12574243D01*
X11751700Y-12202814D02*
X11780271Y-12202814D01*
X11808843Y-12217100D01*
X11823128Y-12231386D01*
X11837414Y-12259957D01*
X11851700Y-12317100D01*
X11851700Y-12388529D01*
X11837414Y-12445671D01*
X11823128Y-12474243D01*
X11808843Y-12488529D01*
X11780271Y-12502814D01*
X11751700Y-12502814D01*
X11723128Y-12488529D01*
X11708843Y-12474243D01*
X11694557Y-12445671D01*
X11680271Y-12388529D01*
X11680271Y-12317100D01*
X11694557Y-12259957D01*
X11708843Y-12231386D01*
X11723128Y-12217100D01*
X11751700Y-12202814D01*
X11980271Y-12474243D02*
X11994557Y-12488529D01*
X11980271Y-12502814D01*
X11965986Y-12488529D01*
X11980271Y-12474243D01*
X11980271Y-12502814D01*
X12180271Y-12202814D02*
X12208843Y-12202814D01*
X12237414Y-12217100D01*
X12251700Y-12231386D01*
X12265986Y-12259957D01*
X12280271Y-12317100D01*
X12280271Y-12388529D01*
X12265986Y-12445671D01*
X12251700Y-12474243D01*
X12237414Y-12488529D01*
X12208843Y-12502814D01*
X12180271Y-12502814D01*
X12151700Y-12488529D01*
X12137414Y-12474243D01*
X12123128Y-12445671D01*
X12108843Y-12388529D01*
X12108843Y-12317100D01*
X12123128Y-12259957D01*
X12137414Y-12231386D01*
X12151700Y-12217100D01*
X12180271Y-12202814D01*
X12451700Y-12331386D02*
X12423128Y-12317100D01*
X12408843Y-12302814D01*
X12394557Y-12274243D01*
X12394557Y-12259957D01*
X12408843Y-12231386D01*
X12423128Y-12217100D01*
X12451700Y-12202814D01*
X12508843Y-12202814D01*
X12537414Y-12217100D01*
X12551700Y-12231386D01*
X12565986Y-12259957D01*
X12565986Y-12274243D01*
X12551700Y-12302814D01*
X12537414Y-12317100D01*
X12508843Y-12331386D01*
X12451700Y-12331386D01*
X12423128Y-12345671D01*
X12408843Y-12359957D01*
X12394557Y-12388529D01*
X12394557Y-12445671D01*
X12408843Y-12474243D01*
X12423128Y-12488529D01*
X12451700Y-12502814D01*
X12508843Y-12502814D01*
X12537414Y-12488529D01*
X12551700Y-12474243D01*
X12565986Y-12445671D01*
X12565986Y-12388529D01*
X12551700Y-12359957D01*
X12537414Y-12345671D01*
X12508843Y-12331386D01*
X12665986Y-12202814D02*
X12851700Y-12202814D01*
X12751700Y-12317100D01*
X12794557Y-12317100D01*
X12823128Y-12331386D01*
X12837414Y-12345671D01*
X12851700Y-12374243D01*
X12851700Y-12445671D01*
X12837414Y-12474243D01*
X12823128Y-12488529D01*
X12794557Y-12502814D01*
X12708843Y-12502814D01*
X12680271Y-12488529D01*
X12665986Y-12474243D01*
X12965986Y-12202814D02*
X12965986Y-12259957D01*
X13080271Y-12202814D02*
X13080271Y-12259957D01*
X13523128Y-12617100D02*
X13508843Y-12602814D01*
X13480271Y-12559957D01*
X13465986Y-12531386D01*
X13451700Y-12488529D01*
X13437414Y-12417100D01*
X13437414Y-12359957D01*
X13451700Y-12288529D01*
X13465986Y-12245671D01*
X13480271Y-12217100D01*
X13508843Y-12174243D01*
X13523128Y-12159957D01*
X13608843Y-12202814D02*
X13794557Y-12202814D01*
X13694557Y-12317100D01*
X13737414Y-12317100D01*
X13765986Y-12331386D01*
X13780271Y-12345671D01*
X13794557Y-12374243D01*
X13794557Y-12445671D01*
X13780271Y-12474243D01*
X13765986Y-12488529D01*
X13737414Y-12502814D01*
X13651700Y-12502814D01*
X13623128Y-12488529D01*
X13608843Y-12474243D01*
X14151700Y-12502814D02*
X14151700Y-12202814D01*
X14280271Y-12502814D02*
X14280271Y-12345671D01*
X14265986Y-12317100D01*
X14237414Y-12302814D01*
X14194557Y-12302814D01*
X14165986Y-12317100D01*
X14151700Y-12331386D01*
X14465986Y-12502814D02*
X14437414Y-12488529D01*
X14423128Y-12474243D01*
X14408843Y-12445671D01*
X14408843Y-12359957D01*
X14423128Y-12331386D01*
X14437414Y-12317100D01*
X14465986Y-12302814D01*
X14508843Y-12302814D01*
X14537414Y-12317100D01*
X14551700Y-12331386D01*
X14565986Y-12359957D01*
X14565986Y-12445671D01*
X14551700Y-12474243D01*
X14537414Y-12488529D01*
X14508843Y-12502814D01*
X14465986Y-12502814D01*
X14737414Y-12502814D02*
X14708843Y-12488529D01*
X14694557Y-12459957D01*
X14694557Y-12202814D01*
X14965986Y-12488529D02*
X14937414Y-12502814D01*
X14880271Y-12502814D01*
X14851700Y-12488529D01*
X14837414Y-12459957D01*
X14837414Y-12345671D01*
X14851700Y-12317100D01*
X14880271Y-12302814D01*
X14937414Y-12302814D01*
X14965986Y-12317100D01*
X14980271Y-12345671D01*
X14980271Y-12374243D01*
X14837414Y-12402814D01*
X15094557Y-12488529D02*
X15123128Y-12502814D01*
X15180271Y-12502814D01*
X15208843Y-12488529D01*
X15223128Y-12459957D01*
X15223128Y-12445671D01*
X15208843Y-12417100D01*
X15180271Y-12402814D01*
X15137414Y-12402814D01*
X15108843Y-12388529D01*
X15094557Y-12359957D01*
X15094557Y-12345671D01*
X15108843Y-12317100D01*
X15137414Y-12302814D01*
X15180271Y-12302814D01*
X15208843Y-12317100D01*
X15323128Y-12617100D02*
X15337414Y-12602814D01*
X15365986Y-12559957D01*
X15380271Y-12531386D01*
X15394557Y-12488529D01*
X15408843Y-12417100D01*
X15408843Y-12359957D01*
X15394557Y-12288529D01*
X15380271Y-12245671D01*
X15365986Y-12217100D01*
X15337414Y-12174243D01*
X15323128Y-12159957D01*
X15865986Y-12617100D02*
X15851700Y-12602814D01*
X15823128Y-12559957D01*
X15808843Y-12531386D01*
X15794557Y-12488529D01*
X15780271Y-12417100D01*
X15780271Y-12359957D01*
X15794557Y-12288529D01*
X15808843Y-12245671D01*
X15823128Y-12217100D01*
X15851700Y-12174243D01*
X15865986Y-12159957D01*
X15980271Y-12302814D02*
X15980271Y-12502814D01*
X15980271Y-12331386D02*
X15994557Y-12317100D01*
X16023128Y-12302814D01*
X16065986Y-12302814D01*
X16094557Y-12317100D01*
X16108843Y-12345671D01*
X16108843Y-12502814D01*
X16294557Y-12502814D02*
X16265986Y-12488529D01*
X16251700Y-12474243D01*
X16237414Y-12445671D01*
X16237414Y-12359957D01*
X16251700Y-12331386D01*
X16265986Y-12317100D01*
X16294557Y-12302814D01*
X16337414Y-12302814D01*
X16365986Y-12317100D01*
X16380271Y-12331386D01*
X16394557Y-12359957D01*
X16394557Y-12445671D01*
X16380271Y-12474243D01*
X16365986Y-12488529D01*
X16337414Y-12502814D01*
X16294557Y-12502814D01*
X16480271Y-12302814D02*
X16594557Y-12302814D01*
X16523128Y-12202814D02*
X16523128Y-12459957D01*
X16537414Y-12488529D01*
X16565986Y-12502814D01*
X16594557Y-12502814D01*
X16923128Y-12302814D02*
X16923128Y-12602814D01*
X16923128Y-12317100D02*
X16951700Y-12302814D01*
X17008843Y-12302814D01*
X17037414Y-12317100D01*
X17051700Y-12331386D01*
X17065986Y-12359957D01*
X17065986Y-12445671D01*
X17051700Y-12474243D01*
X17037414Y-12488529D01*
X17008843Y-12502814D01*
X16951700Y-12502814D01*
X16923128Y-12488529D01*
X17237414Y-12502814D02*
X17208843Y-12488529D01*
X17194557Y-12459957D01*
X17194557Y-12202814D01*
X17480271Y-12502814D02*
X17480271Y-12345671D01*
X17465986Y-12317100D01*
X17437414Y-12302814D01*
X17380271Y-12302814D01*
X17351700Y-12317100D01*
X17480271Y-12488529D02*
X17451700Y-12502814D01*
X17380271Y-12502814D01*
X17351700Y-12488529D01*
X17337414Y-12459957D01*
X17337414Y-12431386D01*
X17351700Y-12402814D01*
X17380271Y-12388529D01*
X17451700Y-12388529D01*
X17480271Y-12374243D01*
X17580271Y-12302814D02*
X17694557Y-12302814D01*
X17623128Y-12202814D02*
X17623128Y-12459957D01*
X17637414Y-12488529D01*
X17665986Y-12502814D01*
X17694557Y-12502814D01*
X17908843Y-12488529D02*
X17880271Y-12502814D01*
X17823128Y-12502814D01*
X17794557Y-12488529D01*
X17780271Y-12459957D01*
X17780271Y-12345671D01*
X17794557Y-12317100D01*
X17823128Y-12302814D01*
X17880271Y-12302814D01*
X17908843Y-12317100D01*
X17923128Y-12345671D01*
X17923128Y-12374243D01*
X17780271Y-12402814D01*
X18180271Y-12502814D02*
X18180271Y-12202814D01*
X18180271Y-12488529D02*
X18151700Y-12502814D01*
X18094557Y-12502814D01*
X18065986Y-12488529D01*
X18051700Y-12474243D01*
X18037414Y-12445671D01*
X18037414Y-12359957D01*
X18051700Y-12331386D01*
X18065986Y-12317100D01*
X18094557Y-12302814D01*
X18151700Y-12302814D01*
X18180271Y-12317100D01*
X18294557Y-12617100D02*
X18308843Y-12602814D01*
X18337414Y-12559957D01*
X18351700Y-12531386D01*
X18365986Y-12488529D01*
X18380271Y-12417100D01*
X18380271Y-12359957D01*
X18365986Y-12288529D01*
X18351700Y-12245671D01*
X18337414Y-12217100D01*
X18308843Y-12174243D01*
X18294557Y-12159957D01*
X8836700Y-12763100D02*
G75*
G03X8836700Y-12763100I-175000J0D01*
G01*
X9094557Y-12598814D02*
X9280271Y-12598814D01*
X9180271Y-12713100D01*
X9223128Y-12713100D01*
X9251700Y-12727386D01*
X9265986Y-12741671D01*
X9280271Y-12770243D01*
X9280271Y-12841671D01*
X9265986Y-12870243D01*
X9251700Y-12884529D01*
X9223128Y-12898814D01*
X9137414Y-12898814D01*
X9108843Y-12884529D01*
X9094557Y-12870243D01*
X9408843Y-12870243D02*
X9423128Y-12884529D01*
X9408843Y-12898814D01*
X9394557Y-12884529D01*
X9408843Y-12870243D01*
X9408843Y-12898814D01*
X9694557Y-12598814D02*
X9551700Y-12598814D01*
X9537414Y-12741671D01*
X9551700Y-12727386D01*
X9580271Y-12713100D01*
X9651700Y-12713100D01*
X9680271Y-12727386D01*
X9694557Y-12741671D01*
X9708843Y-12770243D01*
X9708843Y-12841671D01*
X9694557Y-12870243D01*
X9680271Y-12884529D01*
X9651700Y-12898814D01*
X9580271Y-12898814D01*
X9551700Y-12884529D01*
X9537414Y-12870243D01*
X9894557Y-12598814D02*
X9923128Y-12598814D01*
X9951700Y-12613100D01*
X9965986Y-12627386D01*
X9980271Y-12655957D01*
X9994557Y-12713100D01*
X9994557Y-12784529D01*
X9980271Y-12841671D01*
X9965986Y-12870243D01*
X9951700Y-12884529D01*
X9923128Y-12898814D01*
X9894557Y-12898814D01*
X9865986Y-12884529D01*
X9851700Y-12870243D01*
X9837414Y-12841671D01*
X9823128Y-12784529D01*
X9823128Y-12713100D01*
X9837414Y-12655957D01*
X9851700Y-12627386D01*
X9865986Y-12613100D01*
X9894557Y-12598814D01*
X10123128Y-12898814D02*
X10123128Y-12698814D01*
X10123128Y-12727386D02*
X10137414Y-12713100D01*
X10165986Y-12698814D01*
X10208843Y-12698814D01*
X10237414Y-12713100D01*
X10251700Y-12741671D01*
X10251700Y-12898814D01*
X10251700Y-12741671D02*
X10265986Y-12713100D01*
X10294557Y-12698814D01*
X10337414Y-12698814D01*
X10365986Y-12713100D01*
X10380271Y-12741671D01*
X10380271Y-12898814D01*
X10523128Y-12898814D02*
X10523128Y-12698814D01*
X10523128Y-12727386D02*
X10537414Y-12713100D01*
X10565986Y-12698814D01*
X10608843Y-12698814D01*
X10637414Y-12713100D01*
X10651700Y-12741671D01*
X10651700Y-12898814D01*
X10651700Y-12741671D02*
X10665986Y-12713100D01*
X10694557Y-12698814D01*
X10737414Y-12698814D01*
X10765986Y-12713100D01*
X10780271Y-12741671D01*
X10780271Y-12898814D01*
X11365986Y-12584529D02*
X11108843Y-12970243D01*
X11751700Y-12598814D02*
X11780271Y-12598814D01*
X11808843Y-12613100D01*
X11823128Y-12627386D01*
X11837414Y-12655957D01*
X11851700Y-12713100D01*
X11851700Y-12784529D01*
X11837414Y-12841671D01*
X11823128Y-12870243D01*
X11808843Y-12884529D01*
X11780271Y-12898814D01*
X11751700Y-12898814D01*
X11723128Y-12884529D01*
X11708843Y-12870243D01*
X11694557Y-12841671D01*
X11680271Y-12784529D01*
X11680271Y-12713100D01*
X11694557Y-12655957D01*
X11708843Y-12627386D01*
X11723128Y-12613100D01*
X11751700Y-12598814D01*
X11980271Y-12870243D02*
X11994557Y-12884529D01*
X11980271Y-12898814D01*
X11965986Y-12884529D01*
X11980271Y-12870243D01*
X11980271Y-12898814D01*
X12280271Y-12898814D02*
X12108843Y-12898814D01*
X12194557Y-12898814D02*
X12194557Y-12598814D01*
X12165986Y-12641671D01*
X12137414Y-12670243D01*
X12108843Y-12684529D01*
X12380271Y-12598814D02*
X12565986Y-12598814D01*
X12465986Y-12713100D01*
X12508843Y-12713100D01*
X12537414Y-12727386D01*
X12551700Y-12741671D01*
X12565986Y-12770243D01*
X12565986Y-12841671D01*
X12551700Y-12870243D01*
X12537414Y-12884529D01*
X12508843Y-12898814D01*
X12423128Y-12898814D01*
X12394557Y-12884529D01*
X12380271Y-12870243D01*
X12737414Y-12727386D02*
X12708843Y-12713100D01*
X12694557Y-12698814D01*
X12680271Y-12670243D01*
X12680271Y-12655957D01*
X12694557Y-12627386D01*
X12708843Y-12613100D01*
X12737414Y-12598814D01*
X12794557Y-12598814D01*
X12823128Y-12613100D01*
X12837414Y-12627386D01*
X12851700Y-12655957D01*
X12851700Y-12670243D01*
X12837414Y-12698814D01*
X12823128Y-12713100D01*
X12794557Y-12727386D01*
X12737414Y-12727386D01*
X12708843Y-12741671D01*
X12694557Y-12755957D01*
X12680271Y-12784529D01*
X12680271Y-12841671D01*
X12694557Y-12870243D01*
X12708843Y-12884529D01*
X12737414Y-12898814D01*
X12794557Y-12898814D01*
X12823128Y-12884529D01*
X12837414Y-12870243D01*
X12851700Y-12841671D01*
X12851700Y-12784529D01*
X12837414Y-12755957D01*
X12823128Y-12741671D01*
X12794557Y-12727386D01*
X12965986Y-12598814D02*
X12965986Y-12655957D01*
X13080271Y-12598814D02*
X13080271Y-12655957D01*
X13523128Y-13013100D02*
X13508843Y-12998814D01*
X13480271Y-12955957D01*
X13465986Y-12927386D01*
X13451700Y-12884529D01*
X13437414Y-12813100D01*
X13437414Y-12755957D01*
X13451700Y-12684529D01*
X13465986Y-12641671D01*
X13480271Y-12613100D01*
X13508843Y-12570243D01*
X13523128Y-12555957D01*
X13794557Y-12898814D02*
X13623128Y-12898814D01*
X13708843Y-12898814D02*
X13708843Y-12598814D01*
X13680271Y-12641671D01*
X13651700Y-12670243D01*
X13623128Y-12684529D01*
X14151700Y-12898814D02*
X14151700Y-12598814D01*
X14280271Y-12898814D02*
X14280271Y-12741671D01*
X14265986Y-12713100D01*
X14237414Y-12698814D01*
X14194557Y-12698814D01*
X14165986Y-12713100D01*
X14151700Y-12727386D01*
X14465986Y-12898814D02*
X14437414Y-12884529D01*
X14423128Y-12870243D01*
X14408843Y-12841671D01*
X14408843Y-12755957D01*
X14423128Y-12727386D01*
X14437414Y-12713100D01*
X14465986Y-12698814D01*
X14508843Y-12698814D01*
X14537414Y-12713100D01*
X14551700Y-12727386D01*
X14565986Y-12755957D01*
X14565986Y-12841671D01*
X14551700Y-12870243D01*
X14537414Y-12884529D01*
X14508843Y-12898814D01*
X14465986Y-12898814D01*
X14737414Y-12898814D02*
X14708843Y-12884529D01*
X14694557Y-12855957D01*
X14694557Y-12598814D01*
X14965986Y-12884529D02*
X14937414Y-12898814D01*
X14880271Y-12898814D01*
X14851700Y-12884529D01*
X14837414Y-12855957D01*
X14837414Y-12741671D01*
X14851700Y-12713100D01*
X14880271Y-12698814D01*
X14937414Y-12698814D01*
X14965986Y-12713100D01*
X14980271Y-12741671D01*
X14980271Y-12770243D01*
X14837414Y-12798814D01*
X15080271Y-13013100D02*
X15094557Y-12998814D01*
X15123128Y-12955957D01*
X15137414Y-12927386D01*
X15151700Y-12884529D01*
X15165986Y-12813100D01*
X15165986Y-12755957D01*
X15151700Y-12684529D01*
X15137414Y-12641671D01*
X15123128Y-12613100D01*
X15094557Y-12570243D01*
X15080271Y-12555957D01*
X15623128Y-13013100D02*
X15608843Y-12998814D01*
X15580271Y-12955957D01*
X15565986Y-12927386D01*
X15551700Y-12884529D01*
X15537414Y-12813100D01*
X15537414Y-12755957D01*
X15551700Y-12684529D01*
X15565986Y-12641671D01*
X15580271Y-12613100D01*
X15608843Y-12570243D01*
X15623128Y-12555957D01*
X15737414Y-12698814D02*
X15737414Y-12898814D01*
X15737414Y-12727386D02*
X15751700Y-12713100D01*
X15780271Y-12698814D01*
X15823128Y-12698814D01*
X15851700Y-12713100D01*
X15865986Y-12741671D01*
X15865986Y-12898814D01*
X16051700Y-12898814D02*
X16023128Y-12884529D01*
X16008843Y-12870243D01*
X15994557Y-12841671D01*
X15994557Y-12755957D01*
X16008843Y-12727386D01*
X16023128Y-12713100D01*
X16051700Y-12698814D01*
X16094557Y-12698814D01*
X16123128Y-12713100D01*
X16137414Y-12727386D01*
X16151700Y-12755957D01*
X16151700Y-12841671D01*
X16137414Y-12870243D01*
X16123128Y-12884529D01*
X16094557Y-12898814D01*
X16051700Y-12898814D01*
X16237414Y-12698814D02*
X16351700Y-12698814D01*
X16280271Y-12598814D02*
X16280271Y-12855957D01*
X16294557Y-12884529D01*
X16323128Y-12898814D01*
X16351700Y-12898814D01*
X16680271Y-12698814D02*
X16680271Y-12998814D01*
X16680271Y-12713100D02*
X16708843Y-12698814D01*
X16765986Y-12698814D01*
X16794557Y-12713100D01*
X16808843Y-12727386D01*
X16823128Y-12755957D01*
X16823128Y-12841671D01*
X16808843Y-12870243D01*
X16794557Y-12884529D01*
X16765986Y-12898814D01*
X16708843Y-12898814D01*
X16680271Y-12884529D01*
X16994557Y-12898814D02*
X16965986Y-12884529D01*
X16951700Y-12855957D01*
X16951700Y-12598814D01*
X17237414Y-12898814D02*
X17237414Y-12741671D01*
X17223128Y-12713100D01*
X17194557Y-12698814D01*
X17137414Y-12698814D01*
X17108843Y-12713100D01*
X17237414Y-12884529D02*
X17208843Y-12898814D01*
X17137414Y-12898814D01*
X17108843Y-12884529D01*
X17094557Y-12855957D01*
X17094557Y-12827386D01*
X17108843Y-12798814D01*
X17137414Y-12784529D01*
X17208843Y-12784529D01*
X17237414Y-12770243D01*
X17337414Y-12698814D02*
X17451700Y-12698814D01*
X17380271Y-12598814D02*
X17380271Y-12855957D01*
X17394557Y-12884529D01*
X17423128Y-12898814D01*
X17451700Y-12898814D01*
X17665986Y-12884529D02*
X17637414Y-12898814D01*
X17580271Y-12898814D01*
X17551700Y-12884529D01*
X17537414Y-12855957D01*
X17537414Y-12741671D01*
X17551700Y-12713100D01*
X17580271Y-12698814D01*
X17637414Y-12698814D01*
X17665986Y-12713100D01*
X17680271Y-12741671D01*
X17680271Y-12770243D01*
X17537414Y-12798814D01*
X17937414Y-12898814D02*
X17937414Y-12598814D01*
X17937414Y-12884529D02*
X17908843Y-12898814D01*
X17851700Y-12898814D01*
X17823128Y-12884529D01*
X17808843Y-12870243D01*
X17794557Y-12841671D01*
X17794557Y-12755957D01*
X17808843Y-12727386D01*
X17823128Y-12713100D01*
X17851700Y-12698814D01*
X17908843Y-12698814D01*
X17937414Y-12713100D01*
X18051700Y-13013100D02*
X18065986Y-12998814D01*
X18094557Y-12955957D01*
X18108843Y-12927386D01*
X18123128Y-12884529D01*
X18137414Y-12813100D01*
X18137414Y-12755957D01*
X18123128Y-12684529D01*
X18108843Y-12641671D01*
X18094557Y-12613100D01*
X18065986Y-12570243D01*
X18051700Y-12555957D01*
M02*
