G04 #@! TF.GenerationSoftware,KiCad,Pcbnew,(5.1.5)-3*
G04 #@! TF.CreationDate,2021-01-31T23:34:22+01:00*
G04 #@! TF.ProjectId,nadajnik_rev01,6e616461-6a6e-4696-9b5f-72657630312e,rev?*
G04 #@! TF.SameCoordinates,Original*
G04 #@! TF.FileFunction,Soldermask,Bot*
G04 #@! TF.FilePolarity,Negative*
%FSLAX46Y46*%
G04 Gerber Fmt 4.6, Leading zero omitted, Abs format (unit mm)*
G04 Created by KiCad (PCBNEW (5.1.5)-3) date 2021-01-31 23:34:22*
%MOMM*%
%LPD*%
G04 APERTURE LIST*
%ADD10C,0.100000*%
G04 APERTURE END LIST*
D10*
G36*
X156735331Y-108400211D02*
G01*
X157063092Y-108535974D01*
X157358070Y-108733072D01*
X157608928Y-108983930D01*
X157806026Y-109278908D01*
X157941789Y-109606669D01*
X158011000Y-109954616D01*
X158011000Y-110309384D01*
X157941789Y-110657331D01*
X157806026Y-110985092D01*
X157608928Y-111280070D01*
X157358070Y-111530928D01*
X157063092Y-111728026D01*
X156735331Y-111863789D01*
X156387384Y-111933000D01*
X156032616Y-111933000D01*
X155684669Y-111863789D01*
X155356908Y-111728026D01*
X155061930Y-111530928D01*
X154811072Y-111280070D01*
X154613974Y-110985092D01*
X154478211Y-110657331D01*
X154409000Y-110309384D01*
X154409000Y-109954616D01*
X154478211Y-109606669D01*
X154613974Y-109278908D01*
X154811072Y-108983930D01*
X155061930Y-108733072D01*
X155356908Y-108535974D01*
X155684669Y-108400211D01*
X156032616Y-108331000D01*
X156387384Y-108331000D01*
X156735331Y-108400211D01*
G37*
G36*
X93178794Y-108394155D02*
G01*
X93285150Y-108415311D01*
X93385334Y-108456809D01*
X93485520Y-108498307D01*
X93665844Y-108618795D01*
X93819205Y-108772156D01*
X93939693Y-108952480D01*
X93939693Y-108952481D01*
X94018448Y-109142611D01*
X94022689Y-109152851D01*
X94065000Y-109365560D01*
X94065000Y-109582440D01*
X94022689Y-109795149D01*
X93939693Y-109995520D01*
X93819205Y-110175844D01*
X93665844Y-110329205D01*
X93485520Y-110449693D01*
X93285150Y-110532689D01*
X93178795Y-110553844D01*
X93072440Y-110575000D01*
X92855560Y-110575000D01*
X92749205Y-110553844D01*
X92642850Y-110532689D01*
X92442480Y-110449693D01*
X92262156Y-110329205D01*
X92108795Y-110175844D01*
X91988307Y-109995520D01*
X91905311Y-109795149D01*
X91863000Y-109582440D01*
X91863000Y-109365560D01*
X91905311Y-109152851D01*
X91909553Y-109142611D01*
X91988307Y-108952481D01*
X91988307Y-108952480D01*
X92108795Y-108772156D01*
X92262156Y-108618795D01*
X92442480Y-108498307D01*
X92542666Y-108456809D01*
X92642850Y-108415311D01*
X92749206Y-108394155D01*
X92855560Y-108373000D01*
X93072440Y-108373000D01*
X93178794Y-108394155D01*
G37*
G36*
X117400564Y-107121389D02*
G01*
X117591833Y-107200615D01*
X117591835Y-107200616D01*
X117763973Y-107315635D01*
X117910365Y-107462027D01*
X118025385Y-107634167D01*
X118104611Y-107825436D01*
X118145000Y-108028484D01*
X118145000Y-108235516D01*
X118104611Y-108438564D01*
X118064262Y-108535975D01*
X118025384Y-108629835D01*
X117910365Y-108801973D01*
X117763973Y-108948365D01*
X117591835Y-109063384D01*
X117591834Y-109063385D01*
X117591833Y-109063385D01*
X117400564Y-109142611D01*
X117197516Y-109183000D01*
X116990484Y-109183000D01*
X116787436Y-109142611D01*
X116596167Y-109063385D01*
X116596166Y-109063385D01*
X116596165Y-109063384D01*
X116424027Y-108948365D01*
X116277635Y-108801973D01*
X116162616Y-108629835D01*
X116123738Y-108535975D01*
X116083389Y-108438564D01*
X116043000Y-108235516D01*
X116043000Y-108028484D01*
X116083389Y-107825436D01*
X116162615Y-107634167D01*
X116277635Y-107462027D01*
X116424027Y-107315635D01*
X116596165Y-107200616D01*
X116596167Y-107200615D01*
X116787436Y-107121389D01*
X116990484Y-107081000D01*
X117197516Y-107081000D01*
X117400564Y-107121389D01*
G37*
G36*
X127052564Y-107121389D02*
G01*
X127243833Y-107200615D01*
X127243835Y-107200616D01*
X127415973Y-107315635D01*
X127562365Y-107462027D01*
X127677385Y-107634167D01*
X127756611Y-107825436D01*
X127797000Y-108028484D01*
X127797000Y-108235516D01*
X127756611Y-108438564D01*
X127716262Y-108535975D01*
X127677384Y-108629835D01*
X127562365Y-108801973D01*
X127415973Y-108948365D01*
X127243835Y-109063384D01*
X127243834Y-109063385D01*
X127243833Y-109063385D01*
X127052564Y-109142611D01*
X126849516Y-109183000D01*
X126642484Y-109183000D01*
X126439436Y-109142611D01*
X126248167Y-109063385D01*
X126248166Y-109063385D01*
X126248165Y-109063384D01*
X126076027Y-108948365D01*
X125929635Y-108801973D01*
X125814616Y-108629835D01*
X125775738Y-108535975D01*
X125735389Y-108438564D01*
X125695000Y-108235516D01*
X125695000Y-108028484D01*
X125735389Y-107825436D01*
X125814615Y-107634167D01*
X125929635Y-107462027D01*
X126076027Y-107315635D01*
X126248165Y-107200616D01*
X126248167Y-107200615D01*
X126439436Y-107121389D01*
X126642484Y-107081000D01*
X126849516Y-107081000D01*
X127052564Y-107121389D01*
G37*
G36*
X133552564Y-107121389D02*
G01*
X133743833Y-107200615D01*
X133743835Y-107200616D01*
X133915973Y-107315635D01*
X134062365Y-107462027D01*
X134177385Y-107634167D01*
X134256611Y-107825436D01*
X134297000Y-108028484D01*
X134297000Y-108235516D01*
X134256611Y-108438564D01*
X134216262Y-108535975D01*
X134177384Y-108629835D01*
X134062365Y-108801973D01*
X133915973Y-108948365D01*
X133743835Y-109063384D01*
X133743834Y-109063385D01*
X133743833Y-109063385D01*
X133552564Y-109142611D01*
X133349516Y-109183000D01*
X133142484Y-109183000D01*
X132939436Y-109142611D01*
X132748167Y-109063385D01*
X132748166Y-109063385D01*
X132748165Y-109063384D01*
X132576027Y-108948365D01*
X132429635Y-108801973D01*
X132314616Y-108629835D01*
X132275738Y-108535975D01*
X132235389Y-108438564D01*
X132195000Y-108235516D01*
X132195000Y-108028484D01*
X132235389Y-107825436D01*
X132314615Y-107634167D01*
X132429635Y-107462027D01*
X132576027Y-107315635D01*
X132748165Y-107200616D01*
X132748167Y-107200615D01*
X132939436Y-107121389D01*
X133142484Y-107081000D01*
X133349516Y-107081000D01*
X133552564Y-107121389D01*
G37*
G36*
X123900564Y-107121389D02*
G01*
X124091833Y-107200615D01*
X124091835Y-107200616D01*
X124263973Y-107315635D01*
X124410365Y-107462027D01*
X124525385Y-107634167D01*
X124604611Y-107825436D01*
X124645000Y-108028484D01*
X124645000Y-108235516D01*
X124604611Y-108438564D01*
X124564262Y-108535975D01*
X124525384Y-108629835D01*
X124410365Y-108801973D01*
X124263973Y-108948365D01*
X124091835Y-109063384D01*
X124091834Y-109063385D01*
X124091833Y-109063385D01*
X123900564Y-109142611D01*
X123697516Y-109183000D01*
X123490484Y-109183000D01*
X123287436Y-109142611D01*
X123096167Y-109063385D01*
X123096166Y-109063385D01*
X123096165Y-109063384D01*
X122924027Y-108948365D01*
X122777635Y-108801973D01*
X122662616Y-108629835D01*
X122623738Y-108535975D01*
X122583389Y-108438564D01*
X122543000Y-108235516D01*
X122543000Y-108028484D01*
X122583389Y-107825436D01*
X122662615Y-107634167D01*
X122777635Y-107462027D01*
X122924027Y-107315635D01*
X123096165Y-107200616D01*
X123096167Y-107200615D01*
X123287436Y-107121389D01*
X123490484Y-107081000D01*
X123697516Y-107081000D01*
X123900564Y-107121389D01*
G37*
G36*
X137527512Y-102989927D02*
G01*
X137676812Y-103019624D01*
X137840784Y-103087544D01*
X137988354Y-103186147D01*
X138113853Y-103311646D01*
X138212456Y-103459216D01*
X138280376Y-103623188D01*
X138315000Y-103797259D01*
X138315000Y-103974741D01*
X138280376Y-104148812D01*
X138212456Y-104312784D01*
X138113853Y-104460354D01*
X137988354Y-104585853D01*
X137840784Y-104684456D01*
X137676812Y-104752376D01*
X137527512Y-104782073D01*
X137502742Y-104787000D01*
X137325258Y-104787000D01*
X137300488Y-104782073D01*
X137151188Y-104752376D01*
X136987216Y-104684456D01*
X136839646Y-104585853D01*
X136714147Y-104460354D01*
X136615544Y-104312784D01*
X136547624Y-104148812D01*
X136513000Y-103974741D01*
X136513000Y-103797259D01*
X136547624Y-103623188D01*
X136615544Y-103459216D01*
X136714147Y-103311646D01*
X136839646Y-103186147D01*
X136987216Y-103087544D01*
X137151188Y-103019624D01*
X137300488Y-102989927D01*
X137325258Y-102985000D01*
X137502742Y-102985000D01*
X137527512Y-102989927D01*
G37*
G36*
X111111512Y-102989927D02*
G01*
X111260812Y-103019624D01*
X111424784Y-103087544D01*
X111572354Y-103186147D01*
X111697853Y-103311646D01*
X111796456Y-103459216D01*
X111864376Y-103623188D01*
X111899000Y-103797259D01*
X111899000Y-103974741D01*
X111864376Y-104148812D01*
X111796456Y-104312784D01*
X111697853Y-104460354D01*
X111572354Y-104585853D01*
X111424784Y-104684456D01*
X111260812Y-104752376D01*
X111111512Y-104782073D01*
X111086742Y-104787000D01*
X110909258Y-104787000D01*
X110884488Y-104782073D01*
X110735188Y-104752376D01*
X110571216Y-104684456D01*
X110423646Y-104585853D01*
X110298147Y-104460354D01*
X110199544Y-104312784D01*
X110131624Y-104148812D01*
X110097000Y-103974741D01*
X110097000Y-103797259D01*
X110131624Y-103623188D01*
X110199544Y-103459216D01*
X110298147Y-103311646D01*
X110423646Y-103186147D01*
X110571216Y-103087544D01*
X110735188Y-103019624D01*
X110884488Y-102989927D01*
X110909258Y-102985000D01*
X111086742Y-102985000D01*
X111111512Y-102989927D01*
G37*
G36*
X140067512Y-102989927D02*
G01*
X140216812Y-103019624D01*
X140380784Y-103087544D01*
X140528354Y-103186147D01*
X140653853Y-103311646D01*
X140752456Y-103459216D01*
X140820376Y-103623188D01*
X140855000Y-103797259D01*
X140855000Y-103974741D01*
X140820376Y-104148812D01*
X140752456Y-104312784D01*
X140653853Y-104460354D01*
X140528354Y-104585853D01*
X140380784Y-104684456D01*
X140216812Y-104752376D01*
X140067512Y-104782073D01*
X140042742Y-104787000D01*
X139865258Y-104787000D01*
X139840488Y-104782073D01*
X139691188Y-104752376D01*
X139527216Y-104684456D01*
X139379646Y-104585853D01*
X139254147Y-104460354D01*
X139155544Y-104312784D01*
X139087624Y-104148812D01*
X139053000Y-103974741D01*
X139053000Y-103797259D01*
X139087624Y-103623188D01*
X139155544Y-103459216D01*
X139254147Y-103311646D01*
X139379646Y-103186147D01*
X139527216Y-103087544D01*
X139691188Y-103019624D01*
X139840488Y-102989927D01*
X139865258Y-102985000D01*
X140042742Y-102985000D01*
X140067512Y-102989927D01*
G37*
G36*
X142607512Y-102989927D02*
G01*
X142756812Y-103019624D01*
X142920784Y-103087544D01*
X143068354Y-103186147D01*
X143193853Y-103311646D01*
X143292456Y-103459216D01*
X143360376Y-103623188D01*
X143395000Y-103797259D01*
X143395000Y-103974741D01*
X143360376Y-104148812D01*
X143292456Y-104312784D01*
X143193853Y-104460354D01*
X143068354Y-104585853D01*
X142920784Y-104684456D01*
X142756812Y-104752376D01*
X142607512Y-104782073D01*
X142582742Y-104787000D01*
X142405258Y-104787000D01*
X142380488Y-104782073D01*
X142231188Y-104752376D01*
X142067216Y-104684456D01*
X141919646Y-104585853D01*
X141794147Y-104460354D01*
X141695544Y-104312784D01*
X141627624Y-104148812D01*
X141593000Y-103974741D01*
X141593000Y-103797259D01*
X141627624Y-103623188D01*
X141695544Y-103459216D01*
X141794147Y-103311646D01*
X141919646Y-103186147D01*
X142067216Y-103087544D01*
X142231188Y-103019624D01*
X142380488Y-102989927D01*
X142405258Y-102985000D01*
X142582742Y-102985000D01*
X142607512Y-102989927D01*
G37*
G36*
X145147512Y-102989927D02*
G01*
X145296812Y-103019624D01*
X145460784Y-103087544D01*
X145608354Y-103186147D01*
X145733853Y-103311646D01*
X145832456Y-103459216D01*
X145900376Y-103623188D01*
X145935000Y-103797259D01*
X145935000Y-103974741D01*
X145900376Y-104148812D01*
X145832456Y-104312784D01*
X145733853Y-104460354D01*
X145608354Y-104585853D01*
X145460784Y-104684456D01*
X145296812Y-104752376D01*
X145147512Y-104782073D01*
X145122742Y-104787000D01*
X144945258Y-104787000D01*
X144920488Y-104782073D01*
X144771188Y-104752376D01*
X144607216Y-104684456D01*
X144459646Y-104585853D01*
X144334147Y-104460354D01*
X144235544Y-104312784D01*
X144167624Y-104148812D01*
X144133000Y-103974741D01*
X144133000Y-103797259D01*
X144167624Y-103623188D01*
X144235544Y-103459216D01*
X144334147Y-103311646D01*
X144459646Y-103186147D01*
X144607216Y-103087544D01*
X144771188Y-103019624D01*
X144920488Y-102989927D01*
X144945258Y-102985000D01*
X145122742Y-102985000D01*
X145147512Y-102989927D01*
G37*
G36*
X148475000Y-104787000D02*
G01*
X146673000Y-104787000D01*
X146673000Y-102985000D01*
X148475000Y-102985000D01*
X148475000Y-104787000D01*
G37*
G36*
X103491512Y-102989927D02*
G01*
X103640812Y-103019624D01*
X103804784Y-103087544D01*
X103952354Y-103186147D01*
X104077853Y-103311646D01*
X104176456Y-103459216D01*
X104244376Y-103623188D01*
X104279000Y-103797259D01*
X104279000Y-103974741D01*
X104244376Y-104148812D01*
X104176456Y-104312784D01*
X104077853Y-104460354D01*
X103952354Y-104585853D01*
X103804784Y-104684456D01*
X103640812Y-104752376D01*
X103491512Y-104782073D01*
X103466742Y-104787000D01*
X103289258Y-104787000D01*
X103264488Y-104782073D01*
X103115188Y-104752376D01*
X102951216Y-104684456D01*
X102803646Y-104585853D01*
X102678147Y-104460354D01*
X102579544Y-104312784D01*
X102511624Y-104148812D01*
X102477000Y-103974741D01*
X102477000Y-103797259D01*
X102511624Y-103623188D01*
X102579544Y-103459216D01*
X102678147Y-103311646D01*
X102803646Y-103186147D01*
X102951216Y-103087544D01*
X103115188Y-103019624D01*
X103264488Y-102989927D01*
X103289258Y-102985000D01*
X103466742Y-102985000D01*
X103491512Y-102989927D01*
G37*
G36*
X106031512Y-102989927D02*
G01*
X106180812Y-103019624D01*
X106344784Y-103087544D01*
X106492354Y-103186147D01*
X106617853Y-103311646D01*
X106716456Y-103459216D01*
X106784376Y-103623188D01*
X106819000Y-103797259D01*
X106819000Y-103974741D01*
X106784376Y-104148812D01*
X106716456Y-104312784D01*
X106617853Y-104460354D01*
X106492354Y-104585853D01*
X106344784Y-104684456D01*
X106180812Y-104752376D01*
X106031512Y-104782073D01*
X106006742Y-104787000D01*
X105829258Y-104787000D01*
X105804488Y-104782073D01*
X105655188Y-104752376D01*
X105491216Y-104684456D01*
X105343646Y-104585853D01*
X105218147Y-104460354D01*
X105119544Y-104312784D01*
X105051624Y-104148812D01*
X105017000Y-103974741D01*
X105017000Y-103797259D01*
X105051624Y-103623188D01*
X105119544Y-103459216D01*
X105218147Y-103311646D01*
X105343646Y-103186147D01*
X105491216Y-103087544D01*
X105655188Y-103019624D01*
X105804488Y-102989927D01*
X105829258Y-102985000D01*
X106006742Y-102985000D01*
X106031512Y-102989927D01*
G37*
G36*
X108571512Y-102989927D02*
G01*
X108720812Y-103019624D01*
X108884784Y-103087544D01*
X109032354Y-103186147D01*
X109157853Y-103311646D01*
X109256456Y-103459216D01*
X109324376Y-103623188D01*
X109359000Y-103797259D01*
X109359000Y-103974741D01*
X109324376Y-104148812D01*
X109256456Y-104312784D01*
X109157853Y-104460354D01*
X109032354Y-104585853D01*
X108884784Y-104684456D01*
X108720812Y-104752376D01*
X108571512Y-104782073D01*
X108546742Y-104787000D01*
X108369258Y-104787000D01*
X108344488Y-104782073D01*
X108195188Y-104752376D01*
X108031216Y-104684456D01*
X107883646Y-104585853D01*
X107758147Y-104460354D01*
X107659544Y-104312784D01*
X107591624Y-104148812D01*
X107557000Y-103974741D01*
X107557000Y-103797259D01*
X107591624Y-103623188D01*
X107659544Y-103459216D01*
X107758147Y-103311646D01*
X107883646Y-103186147D01*
X108031216Y-103087544D01*
X108195188Y-103019624D01*
X108344488Y-102989927D01*
X108369258Y-102985000D01*
X108546742Y-102985000D01*
X108571512Y-102989927D01*
G37*
G36*
X114439000Y-104787000D02*
G01*
X112637000Y-104787000D01*
X112637000Y-102985000D01*
X114439000Y-102985000D01*
X114439000Y-104787000D01*
G37*
G36*
X117400564Y-102621389D02*
G01*
X117591833Y-102700615D01*
X117591835Y-102700616D01*
X117763973Y-102815635D01*
X117910365Y-102962027D01*
X118025385Y-103134167D01*
X118104611Y-103325436D01*
X118145000Y-103528484D01*
X118145000Y-103735516D01*
X118104611Y-103938564D01*
X118025385Y-104129833D01*
X118025384Y-104129835D01*
X117910365Y-104301973D01*
X117763973Y-104448365D01*
X117591835Y-104563384D01*
X117591834Y-104563385D01*
X117591833Y-104563385D01*
X117400564Y-104642611D01*
X117197516Y-104683000D01*
X116990484Y-104683000D01*
X116787436Y-104642611D01*
X116596167Y-104563385D01*
X116596166Y-104563385D01*
X116596165Y-104563384D01*
X116424027Y-104448365D01*
X116277635Y-104301973D01*
X116162616Y-104129835D01*
X116162615Y-104129833D01*
X116083389Y-103938564D01*
X116043000Y-103735516D01*
X116043000Y-103528484D01*
X116083389Y-103325436D01*
X116162615Y-103134167D01*
X116277635Y-102962027D01*
X116424027Y-102815635D01*
X116596165Y-102700616D01*
X116596167Y-102700615D01*
X116787436Y-102621389D01*
X116990484Y-102581000D01*
X117197516Y-102581000D01*
X117400564Y-102621389D01*
G37*
G36*
X123900564Y-102621389D02*
G01*
X124091833Y-102700615D01*
X124091835Y-102700616D01*
X124263973Y-102815635D01*
X124410365Y-102962027D01*
X124525385Y-103134167D01*
X124604611Y-103325436D01*
X124645000Y-103528484D01*
X124645000Y-103735516D01*
X124604611Y-103938564D01*
X124525385Y-104129833D01*
X124525384Y-104129835D01*
X124410365Y-104301973D01*
X124263973Y-104448365D01*
X124091835Y-104563384D01*
X124091834Y-104563385D01*
X124091833Y-104563385D01*
X123900564Y-104642611D01*
X123697516Y-104683000D01*
X123490484Y-104683000D01*
X123287436Y-104642611D01*
X123096167Y-104563385D01*
X123096166Y-104563385D01*
X123096165Y-104563384D01*
X122924027Y-104448365D01*
X122777635Y-104301973D01*
X122662616Y-104129835D01*
X122662615Y-104129833D01*
X122583389Y-103938564D01*
X122543000Y-103735516D01*
X122543000Y-103528484D01*
X122583389Y-103325436D01*
X122662615Y-103134167D01*
X122777635Y-102962027D01*
X122924027Y-102815635D01*
X123096165Y-102700616D01*
X123096167Y-102700615D01*
X123287436Y-102621389D01*
X123490484Y-102581000D01*
X123697516Y-102581000D01*
X123900564Y-102621389D01*
G37*
G36*
X127052564Y-102621389D02*
G01*
X127243833Y-102700615D01*
X127243835Y-102700616D01*
X127415973Y-102815635D01*
X127562365Y-102962027D01*
X127677385Y-103134167D01*
X127756611Y-103325436D01*
X127797000Y-103528484D01*
X127797000Y-103735516D01*
X127756611Y-103938564D01*
X127677385Y-104129833D01*
X127677384Y-104129835D01*
X127562365Y-104301973D01*
X127415973Y-104448365D01*
X127243835Y-104563384D01*
X127243834Y-104563385D01*
X127243833Y-104563385D01*
X127052564Y-104642611D01*
X126849516Y-104683000D01*
X126642484Y-104683000D01*
X126439436Y-104642611D01*
X126248167Y-104563385D01*
X126248166Y-104563385D01*
X126248165Y-104563384D01*
X126076027Y-104448365D01*
X125929635Y-104301973D01*
X125814616Y-104129835D01*
X125814615Y-104129833D01*
X125735389Y-103938564D01*
X125695000Y-103735516D01*
X125695000Y-103528484D01*
X125735389Y-103325436D01*
X125814615Y-103134167D01*
X125929635Y-102962027D01*
X126076027Y-102815635D01*
X126248165Y-102700616D01*
X126248167Y-102700615D01*
X126439436Y-102621389D01*
X126642484Y-102581000D01*
X126849516Y-102581000D01*
X127052564Y-102621389D01*
G37*
G36*
X133552564Y-102621389D02*
G01*
X133743833Y-102700615D01*
X133743835Y-102700616D01*
X133915973Y-102815635D01*
X134062365Y-102962027D01*
X134177385Y-103134167D01*
X134256611Y-103325436D01*
X134297000Y-103528484D01*
X134297000Y-103735516D01*
X134256611Y-103938564D01*
X134177385Y-104129833D01*
X134177384Y-104129835D01*
X134062365Y-104301973D01*
X133915973Y-104448365D01*
X133743835Y-104563384D01*
X133743834Y-104563385D01*
X133743833Y-104563385D01*
X133552564Y-104642611D01*
X133349516Y-104683000D01*
X133142484Y-104683000D01*
X132939436Y-104642611D01*
X132748167Y-104563385D01*
X132748166Y-104563385D01*
X132748165Y-104563384D01*
X132576027Y-104448365D01*
X132429635Y-104301973D01*
X132314616Y-104129835D01*
X132314615Y-104129833D01*
X132235389Y-103938564D01*
X132195000Y-103735516D01*
X132195000Y-103528484D01*
X132235389Y-103325436D01*
X132314615Y-103134167D01*
X132429635Y-102962027D01*
X132576027Y-102815635D01*
X132748165Y-102700616D01*
X132748167Y-102700615D01*
X132939436Y-102621389D01*
X133142484Y-102581000D01*
X133349516Y-102581000D01*
X133552564Y-102621389D01*
G37*
G36*
X93437059Y-99527860D02*
G01*
X93573732Y-99584472D01*
X93696735Y-99666660D01*
X93801340Y-99771265D01*
X93883528Y-99894268D01*
X93940140Y-100030941D01*
X93969000Y-100176033D01*
X93969000Y-100323967D01*
X93940140Y-100469059D01*
X93883528Y-100605732D01*
X93801340Y-100728735D01*
X93696735Y-100833340D01*
X93573732Y-100915528D01*
X93573731Y-100915529D01*
X93573730Y-100915529D01*
X93437059Y-100972140D01*
X93291968Y-101001000D01*
X93144032Y-101001000D01*
X92998941Y-100972140D01*
X92862270Y-100915529D01*
X92862269Y-100915529D01*
X92862268Y-100915528D01*
X92739265Y-100833340D01*
X92634660Y-100728735D01*
X92552472Y-100605732D01*
X92495860Y-100469059D01*
X92467000Y-100323967D01*
X92467000Y-100176033D01*
X92495860Y-100030941D01*
X92552472Y-99894268D01*
X92634660Y-99771265D01*
X92739265Y-99666660D01*
X92862268Y-99584472D01*
X92998941Y-99527860D01*
X93144032Y-99499000D01*
X93291968Y-99499000D01*
X93437059Y-99527860D01*
G37*
G36*
X90137059Y-99527860D02*
G01*
X90273732Y-99584472D01*
X90396735Y-99666660D01*
X90501340Y-99771265D01*
X90583528Y-99894268D01*
X90640140Y-100030941D01*
X90669000Y-100176033D01*
X90669000Y-100323967D01*
X90640140Y-100469059D01*
X90583528Y-100605732D01*
X90501340Y-100728735D01*
X90396735Y-100833340D01*
X90273732Y-100915528D01*
X90273731Y-100915529D01*
X90273730Y-100915529D01*
X90137059Y-100972140D01*
X89991968Y-101001000D01*
X89844032Y-101001000D01*
X89698941Y-100972140D01*
X89562270Y-100915529D01*
X89562269Y-100915529D01*
X89562268Y-100915528D01*
X89439265Y-100833340D01*
X89334660Y-100728735D01*
X89252472Y-100605732D01*
X89195860Y-100469059D01*
X89167000Y-100323967D01*
X89167000Y-100176033D01*
X89195860Y-100030941D01*
X89252472Y-99894268D01*
X89334660Y-99771265D01*
X89439265Y-99666660D01*
X89562268Y-99584472D01*
X89698941Y-99527860D01*
X89844032Y-99499000D01*
X89991968Y-99499000D01*
X90137059Y-99527860D01*
G37*
G36*
X90049104Y-97010365D02*
G01*
X90137059Y-97027860D01*
X90273732Y-97084472D01*
X90396735Y-97166660D01*
X90501340Y-97271265D01*
X90583528Y-97394268D01*
X90640140Y-97530941D01*
X90669000Y-97676033D01*
X90669000Y-97823967D01*
X90640140Y-97969059D01*
X90583528Y-98105732D01*
X90501340Y-98228735D01*
X90396735Y-98333340D01*
X90273732Y-98415528D01*
X90273731Y-98415529D01*
X90273730Y-98415529D01*
X90137059Y-98472140D01*
X89991968Y-98501000D01*
X89844032Y-98501000D01*
X89698941Y-98472140D01*
X89562270Y-98415529D01*
X89562269Y-98415529D01*
X89562268Y-98415528D01*
X89439265Y-98333340D01*
X89334660Y-98228735D01*
X89252472Y-98105732D01*
X89195860Y-97969059D01*
X89167000Y-97823967D01*
X89167000Y-97676033D01*
X89195860Y-97530941D01*
X89252472Y-97394268D01*
X89334660Y-97271265D01*
X89439265Y-97166660D01*
X89562268Y-97084472D01*
X89698941Y-97027860D01*
X89786896Y-97010365D01*
X89844032Y-96999000D01*
X89991968Y-96999000D01*
X90049104Y-97010365D01*
G37*
G36*
X93349104Y-97010365D02*
G01*
X93437059Y-97027860D01*
X93573732Y-97084472D01*
X93696735Y-97166660D01*
X93801340Y-97271265D01*
X93883528Y-97394268D01*
X93940140Y-97530941D01*
X93969000Y-97676033D01*
X93969000Y-97823967D01*
X93940140Y-97969059D01*
X93883528Y-98105732D01*
X93801340Y-98228735D01*
X93696735Y-98333340D01*
X93573732Y-98415528D01*
X93573731Y-98415529D01*
X93573730Y-98415529D01*
X93437059Y-98472140D01*
X93291968Y-98501000D01*
X93144032Y-98501000D01*
X92998941Y-98472140D01*
X92862270Y-98415529D01*
X92862269Y-98415529D01*
X92862268Y-98415528D01*
X92739265Y-98333340D01*
X92634660Y-98228735D01*
X92552472Y-98105732D01*
X92495860Y-97969059D01*
X92467000Y-97823967D01*
X92467000Y-97676033D01*
X92495860Y-97530941D01*
X92552472Y-97394268D01*
X92634660Y-97271265D01*
X92739265Y-97166660D01*
X92862268Y-97084472D01*
X92998941Y-97027860D01*
X93086896Y-97010365D01*
X93144032Y-96999000D01*
X93291968Y-96999000D01*
X93349104Y-97010365D01*
G37*
G36*
X116834228Y-95701703D02*
G01*
X116989100Y-95765853D01*
X117128481Y-95858985D01*
X117247015Y-95977519D01*
X117340147Y-96116900D01*
X117404297Y-96271772D01*
X117437000Y-96436184D01*
X117437000Y-96603816D01*
X117404297Y-96768228D01*
X117340147Y-96923100D01*
X117247015Y-97062481D01*
X117128481Y-97181015D01*
X116989100Y-97274147D01*
X116834228Y-97338297D01*
X116669816Y-97371000D01*
X116502184Y-97371000D01*
X116337772Y-97338297D01*
X116182900Y-97274147D01*
X116043519Y-97181015D01*
X115924985Y-97062481D01*
X115831853Y-96923100D01*
X115767703Y-96768228D01*
X115735000Y-96603816D01*
X115735000Y-96436184D01*
X115767703Y-96271772D01*
X115831853Y-96116900D01*
X115924985Y-95977519D01*
X116043519Y-95858985D01*
X116182900Y-95765853D01*
X116337772Y-95701703D01*
X116502184Y-95669000D01*
X116669816Y-95669000D01*
X116834228Y-95701703D01*
G37*
G36*
X132677000Y-97371000D02*
G01*
X130975000Y-97371000D01*
X130975000Y-95669000D01*
X132677000Y-95669000D01*
X132677000Y-97371000D01*
G37*
G36*
X138736564Y-95183389D02*
G01*
X138927833Y-95262615D01*
X138927835Y-95262616D01*
X139099973Y-95377635D01*
X139246365Y-95524027D01*
X139300959Y-95605732D01*
X139361385Y-95696167D01*
X139440611Y-95887436D01*
X139481000Y-96090484D01*
X139481000Y-96297516D01*
X139440611Y-96500564D01*
X139361385Y-96691833D01*
X139361384Y-96691835D01*
X139246365Y-96863973D01*
X139099973Y-97010365D01*
X138927835Y-97125384D01*
X138927834Y-97125385D01*
X138927833Y-97125385D01*
X138736564Y-97204611D01*
X138533516Y-97245000D01*
X138326484Y-97245000D01*
X138123436Y-97204611D01*
X137932167Y-97125385D01*
X137932166Y-97125385D01*
X137932165Y-97125384D01*
X137760027Y-97010365D01*
X137613635Y-96863973D01*
X137498616Y-96691835D01*
X137498615Y-96691833D01*
X137419389Y-96500564D01*
X137379000Y-96297516D01*
X137379000Y-96090484D01*
X137419389Y-95887436D01*
X137498615Y-95696167D01*
X137559042Y-95605732D01*
X137613635Y-95524027D01*
X137760027Y-95377635D01*
X137932165Y-95262616D01*
X137932167Y-95262615D01*
X138123436Y-95183389D01*
X138326484Y-95143000D01*
X138533516Y-95143000D01*
X138736564Y-95183389D01*
G37*
G36*
X145236564Y-95183389D02*
G01*
X145427833Y-95262615D01*
X145427835Y-95262616D01*
X145599973Y-95377635D01*
X145746365Y-95524027D01*
X145800959Y-95605732D01*
X145861385Y-95696167D01*
X145940611Y-95887436D01*
X145981000Y-96090484D01*
X145981000Y-96297516D01*
X145940611Y-96500564D01*
X145861385Y-96691833D01*
X145861384Y-96691835D01*
X145746365Y-96863973D01*
X145599973Y-97010365D01*
X145427835Y-97125384D01*
X145427834Y-97125385D01*
X145427833Y-97125385D01*
X145236564Y-97204611D01*
X145033516Y-97245000D01*
X144826484Y-97245000D01*
X144623436Y-97204611D01*
X144432167Y-97125385D01*
X144432166Y-97125385D01*
X144432165Y-97125384D01*
X144260027Y-97010365D01*
X144113635Y-96863973D01*
X143998616Y-96691835D01*
X143998615Y-96691833D01*
X143919389Y-96500564D01*
X143879000Y-96297516D01*
X143879000Y-96090484D01*
X143919389Y-95887436D01*
X143998615Y-95696167D01*
X144059042Y-95605732D01*
X144113635Y-95524027D01*
X144260027Y-95377635D01*
X144432165Y-95262616D01*
X144432167Y-95262615D01*
X144623436Y-95183389D01*
X144826484Y-95143000D01*
X145033516Y-95143000D01*
X145236564Y-95183389D01*
G37*
G36*
X90112626Y-94523000D02*
G01*
X90137059Y-94527860D01*
X90273732Y-94584472D01*
X90396735Y-94666660D01*
X90501340Y-94771265D01*
X90583528Y-94894268D01*
X90583529Y-94894270D01*
X90640140Y-95030941D01*
X90669000Y-95176032D01*
X90669000Y-95323968D01*
X90640140Y-95469059D01*
X90617372Y-95524027D01*
X90583528Y-95605732D01*
X90501340Y-95728735D01*
X90396735Y-95833340D01*
X90273732Y-95915528D01*
X90273731Y-95915529D01*
X90273730Y-95915529D01*
X90137059Y-95972140D01*
X89991968Y-96001000D01*
X89844032Y-96001000D01*
X89698941Y-95972140D01*
X89562270Y-95915529D01*
X89562269Y-95915529D01*
X89562268Y-95915528D01*
X89439265Y-95833340D01*
X89334660Y-95728735D01*
X89252472Y-95605732D01*
X89218629Y-95524027D01*
X89195860Y-95469059D01*
X89167000Y-95323968D01*
X89167000Y-95176032D01*
X89195860Y-95030941D01*
X89252471Y-94894270D01*
X89252472Y-94894268D01*
X89334660Y-94771265D01*
X89439265Y-94666660D01*
X89562268Y-94584472D01*
X89698941Y-94527860D01*
X89723374Y-94523000D01*
X89844032Y-94499000D01*
X89991968Y-94499000D01*
X90112626Y-94523000D01*
G37*
G36*
X93969000Y-96001000D02*
G01*
X92467000Y-96001000D01*
X92467000Y-94499000D01*
X93969000Y-94499000D01*
X93969000Y-96001000D01*
G37*
G36*
X132074228Y-93161703D02*
G01*
X132229100Y-93225853D01*
X132368481Y-93318985D01*
X132487015Y-93437519D01*
X132580147Y-93576900D01*
X132644297Y-93731772D01*
X132677000Y-93896184D01*
X132677000Y-94063816D01*
X132644297Y-94228228D01*
X132580147Y-94383100D01*
X132487015Y-94522481D01*
X132368481Y-94641015D01*
X132229100Y-94734147D01*
X132074228Y-94798297D01*
X131909816Y-94831000D01*
X131742184Y-94831000D01*
X131577772Y-94798297D01*
X131422900Y-94734147D01*
X131283519Y-94641015D01*
X131164985Y-94522481D01*
X131071853Y-94383100D01*
X131007703Y-94228228D01*
X130975000Y-94063816D01*
X130975000Y-93896184D01*
X131007703Y-93731772D01*
X131071853Y-93576900D01*
X131164985Y-93437519D01*
X131283519Y-93318985D01*
X131422900Y-93225853D01*
X131577772Y-93161703D01*
X131742184Y-93129000D01*
X131909816Y-93129000D01*
X132074228Y-93161703D01*
G37*
G36*
X116834228Y-93161703D02*
G01*
X116989100Y-93225853D01*
X117128481Y-93318985D01*
X117247015Y-93437519D01*
X117340147Y-93576900D01*
X117404297Y-93731772D01*
X117437000Y-93896184D01*
X117437000Y-94063816D01*
X117404297Y-94228228D01*
X117340147Y-94383100D01*
X117247015Y-94522481D01*
X117128481Y-94641015D01*
X116989100Y-94734147D01*
X116834228Y-94798297D01*
X116669816Y-94831000D01*
X116502184Y-94831000D01*
X116337772Y-94798297D01*
X116182900Y-94734147D01*
X116043519Y-94641015D01*
X115924985Y-94522481D01*
X115831853Y-94383100D01*
X115767703Y-94228228D01*
X115735000Y-94063816D01*
X115735000Y-93896184D01*
X115767703Y-93731772D01*
X115831853Y-93576900D01*
X115924985Y-93437519D01*
X116043519Y-93318985D01*
X116182900Y-93225853D01*
X116337772Y-93161703D01*
X116502184Y-93129000D01*
X116669816Y-93129000D01*
X116834228Y-93161703D01*
G37*
G36*
X158946719Y-92435520D02*
G01*
X159135880Y-92492901D01*
X159135883Y-92492902D01*
X159228333Y-92542318D01*
X159310212Y-92586083D01*
X159463015Y-92711485D01*
X159588417Y-92864288D01*
X159681599Y-93038619D01*
X159738980Y-93227780D01*
X159753500Y-93375206D01*
X159753500Y-93568793D01*
X159738980Y-93716219D01*
X159684388Y-93896185D01*
X159681598Y-93905383D01*
X159632182Y-93997833D01*
X159588417Y-94079712D01*
X159463015Y-94232515D01*
X159310212Y-94357917D01*
X159135881Y-94451099D01*
X158946720Y-94508480D01*
X158750000Y-94527855D01*
X158553281Y-94508480D01*
X158364120Y-94451099D01*
X158189788Y-94357917D01*
X158036985Y-94232515D01*
X157911583Y-94079712D01*
X157818401Y-93905381D01*
X157761020Y-93716220D01*
X157746500Y-93568794D01*
X157746500Y-93375207D01*
X157761020Y-93227781D01*
X157818401Y-93038620D01*
X157818402Y-93038617D01*
X157867818Y-92946167D01*
X157911583Y-92864288D01*
X158036985Y-92711485D01*
X158189788Y-92586083D01*
X158364119Y-92492901D01*
X158553280Y-92435520D01*
X158750000Y-92416145D01*
X158946719Y-92435520D01*
G37*
G36*
X156406719Y-92435520D02*
G01*
X156595880Y-92492901D01*
X156595883Y-92492902D01*
X156688333Y-92542318D01*
X156770212Y-92586083D01*
X156923015Y-92711485D01*
X157048417Y-92864288D01*
X157141599Y-93038619D01*
X157198980Y-93227780D01*
X157213500Y-93375206D01*
X157213500Y-93568793D01*
X157198980Y-93716219D01*
X157144388Y-93896185D01*
X157141598Y-93905383D01*
X157092182Y-93997833D01*
X157048417Y-94079712D01*
X156923015Y-94232515D01*
X156770212Y-94357917D01*
X156595881Y-94451099D01*
X156406720Y-94508480D01*
X156210000Y-94527855D01*
X156013281Y-94508480D01*
X155824120Y-94451099D01*
X155649788Y-94357917D01*
X155496985Y-94232515D01*
X155371583Y-94079712D01*
X155278401Y-93905381D01*
X155221020Y-93716220D01*
X155206500Y-93568794D01*
X155206500Y-93375207D01*
X155221020Y-93227781D01*
X155278401Y-93038620D01*
X155278402Y-93038617D01*
X155327818Y-92946167D01*
X155371583Y-92864288D01*
X155496985Y-92711485D01*
X155649788Y-92586083D01*
X155824119Y-92492901D01*
X156013280Y-92435520D01*
X156210000Y-92416145D01*
X156406719Y-92435520D01*
G37*
G36*
X154673500Y-94523000D02*
G01*
X152666500Y-94523000D01*
X152666500Y-92421000D01*
X154673500Y-92421000D01*
X154673500Y-94523000D01*
G37*
G36*
X138736564Y-90683389D02*
G01*
X138927833Y-90762615D01*
X138927835Y-90762616D01*
X139099973Y-90877635D01*
X139246365Y-91024027D01*
X139358449Y-91191772D01*
X139361385Y-91196167D01*
X139440611Y-91387436D01*
X139481000Y-91590484D01*
X139481000Y-91797516D01*
X139440611Y-92000564D01*
X139399003Y-92101015D01*
X139361384Y-92191835D01*
X139246365Y-92363973D01*
X139099973Y-92510365D01*
X138927835Y-92625384D01*
X138927834Y-92625385D01*
X138927833Y-92625385D01*
X138736564Y-92704611D01*
X138533516Y-92745000D01*
X138326484Y-92745000D01*
X138123436Y-92704611D01*
X137932167Y-92625385D01*
X137932166Y-92625385D01*
X137932165Y-92625384D01*
X137760027Y-92510365D01*
X137613635Y-92363973D01*
X137498616Y-92191835D01*
X137460997Y-92101015D01*
X137419389Y-92000564D01*
X137379000Y-91797516D01*
X137379000Y-91590484D01*
X137419389Y-91387436D01*
X137498615Y-91196167D01*
X137501552Y-91191772D01*
X137613635Y-91024027D01*
X137760027Y-90877635D01*
X137932165Y-90762616D01*
X137932167Y-90762615D01*
X138123436Y-90683389D01*
X138326484Y-90643000D01*
X138533516Y-90643000D01*
X138736564Y-90683389D01*
G37*
G36*
X145236564Y-90683389D02*
G01*
X145427833Y-90762615D01*
X145427835Y-90762616D01*
X145599973Y-90877635D01*
X145746365Y-91024027D01*
X145858449Y-91191772D01*
X145861385Y-91196167D01*
X145940611Y-91387436D01*
X145981000Y-91590484D01*
X145981000Y-91797516D01*
X145940611Y-92000564D01*
X145899003Y-92101015D01*
X145861384Y-92191835D01*
X145746365Y-92363973D01*
X145599973Y-92510365D01*
X145427835Y-92625384D01*
X145427834Y-92625385D01*
X145427833Y-92625385D01*
X145236564Y-92704611D01*
X145033516Y-92745000D01*
X144826484Y-92745000D01*
X144623436Y-92704611D01*
X144432167Y-92625385D01*
X144432166Y-92625385D01*
X144432165Y-92625384D01*
X144260027Y-92510365D01*
X144113635Y-92363973D01*
X143998616Y-92191835D01*
X143960997Y-92101015D01*
X143919389Y-92000564D01*
X143879000Y-91797516D01*
X143879000Y-91590484D01*
X143919389Y-91387436D01*
X143998615Y-91196167D01*
X144001552Y-91191772D01*
X144113635Y-91024027D01*
X144260027Y-90877635D01*
X144432165Y-90762616D01*
X144432167Y-90762615D01*
X144623436Y-90683389D01*
X144826484Y-90643000D01*
X145033516Y-90643000D01*
X145236564Y-90683389D01*
G37*
G36*
X116834228Y-90621703D02*
G01*
X116989100Y-90685853D01*
X117128481Y-90778985D01*
X117247015Y-90897519D01*
X117340147Y-91036900D01*
X117404297Y-91191772D01*
X117437000Y-91356184D01*
X117437000Y-91523816D01*
X117404297Y-91688228D01*
X117340147Y-91843100D01*
X117247015Y-91982481D01*
X117128481Y-92101015D01*
X116989100Y-92194147D01*
X116834228Y-92258297D01*
X116669816Y-92291000D01*
X116502184Y-92291000D01*
X116337772Y-92258297D01*
X116182900Y-92194147D01*
X116043519Y-92101015D01*
X115924985Y-91982481D01*
X115831853Y-91843100D01*
X115767703Y-91688228D01*
X115735000Y-91523816D01*
X115735000Y-91356184D01*
X115767703Y-91191772D01*
X115831853Y-91036900D01*
X115924985Y-90897519D01*
X116043519Y-90778985D01*
X116182900Y-90685853D01*
X116337772Y-90621703D01*
X116502184Y-90589000D01*
X116669816Y-90589000D01*
X116834228Y-90621703D01*
G37*
G36*
X132074228Y-90621703D02*
G01*
X132229100Y-90685853D01*
X132368481Y-90778985D01*
X132487015Y-90897519D01*
X132580147Y-91036900D01*
X132644297Y-91191772D01*
X132677000Y-91356184D01*
X132677000Y-91523816D01*
X132644297Y-91688228D01*
X132580147Y-91843100D01*
X132487015Y-91982481D01*
X132368481Y-92101015D01*
X132229100Y-92194147D01*
X132074228Y-92258297D01*
X131909816Y-92291000D01*
X131742184Y-92291000D01*
X131577772Y-92258297D01*
X131422900Y-92194147D01*
X131283519Y-92101015D01*
X131164985Y-91982481D01*
X131071853Y-91843100D01*
X131007703Y-91688228D01*
X130975000Y-91523816D01*
X130975000Y-91356184D01*
X131007703Y-91191772D01*
X131071853Y-91036900D01*
X131164985Y-90897519D01*
X131283519Y-90778985D01*
X131422900Y-90685853D01*
X131577772Y-90621703D01*
X131742184Y-90589000D01*
X131909816Y-90589000D01*
X132074228Y-90621703D01*
G37*
G36*
X111454564Y-88071389D02*
G01*
X111634334Y-88145852D01*
X111645835Y-88150616D01*
X111761608Y-88227973D01*
X111817973Y-88265635D01*
X111964365Y-88412027D01*
X112079385Y-88584167D01*
X112158611Y-88775436D01*
X112199000Y-88978484D01*
X112199000Y-89185516D01*
X112158611Y-89388564D01*
X112079385Y-89579833D01*
X112079384Y-89579835D01*
X111964365Y-89751973D01*
X111817973Y-89898365D01*
X111645835Y-90013384D01*
X111645834Y-90013385D01*
X111645833Y-90013385D01*
X111454564Y-90092611D01*
X111251516Y-90133000D01*
X111044484Y-90133000D01*
X110841436Y-90092611D01*
X110650167Y-90013385D01*
X110650166Y-90013385D01*
X110650165Y-90013384D01*
X110478027Y-89898365D01*
X110331635Y-89751973D01*
X110216616Y-89579835D01*
X110216615Y-89579833D01*
X110137389Y-89388564D01*
X110097000Y-89185516D01*
X110097000Y-88978484D01*
X110137389Y-88775436D01*
X110216615Y-88584167D01*
X110331635Y-88412027D01*
X110478027Y-88265635D01*
X110534392Y-88227973D01*
X110650165Y-88150616D01*
X110661666Y-88145852D01*
X110841436Y-88071389D01*
X111044484Y-88031000D01*
X111251516Y-88031000D01*
X111454564Y-88071389D01*
G37*
G36*
X104954564Y-88071389D02*
G01*
X105134334Y-88145852D01*
X105145835Y-88150616D01*
X105261608Y-88227973D01*
X105317973Y-88265635D01*
X105464365Y-88412027D01*
X105579385Y-88584167D01*
X105658611Y-88775436D01*
X105699000Y-88978484D01*
X105699000Y-89185516D01*
X105658611Y-89388564D01*
X105579385Y-89579833D01*
X105579384Y-89579835D01*
X105464365Y-89751973D01*
X105317973Y-89898365D01*
X105145835Y-90013384D01*
X105145834Y-90013385D01*
X105145833Y-90013385D01*
X104954564Y-90092611D01*
X104751516Y-90133000D01*
X104544484Y-90133000D01*
X104341436Y-90092611D01*
X104150167Y-90013385D01*
X104150166Y-90013385D01*
X104150165Y-90013384D01*
X103978027Y-89898365D01*
X103831635Y-89751973D01*
X103716616Y-89579835D01*
X103716615Y-89579833D01*
X103637389Y-89388564D01*
X103597000Y-89185516D01*
X103597000Y-88978484D01*
X103637389Y-88775436D01*
X103716615Y-88584167D01*
X103831635Y-88412027D01*
X103978027Y-88265635D01*
X104034392Y-88227973D01*
X104150165Y-88150616D01*
X104161666Y-88145852D01*
X104341436Y-88071389D01*
X104544484Y-88031000D01*
X104751516Y-88031000D01*
X104954564Y-88071389D01*
G37*
G36*
X93327989Y-88584165D02*
G01*
X93437059Y-88605860D01*
X93573732Y-88662472D01*
X93696735Y-88744660D01*
X93801340Y-88849265D01*
X93801341Y-88849267D01*
X93883529Y-88972270D01*
X93940140Y-89108941D01*
X93969000Y-89254032D01*
X93969000Y-89401968D01*
X93940140Y-89547059D01*
X93883528Y-89683732D01*
X93801340Y-89806735D01*
X93696735Y-89911340D01*
X93573732Y-89993528D01*
X93573731Y-89993529D01*
X93573730Y-89993529D01*
X93437059Y-90050140D01*
X93291968Y-90079000D01*
X93144032Y-90079000D01*
X92998941Y-90050140D01*
X92862270Y-89993529D01*
X92862269Y-89993529D01*
X92862268Y-89993528D01*
X92739265Y-89911340D01*
X92634660Y-89806735D01*
X92552472Y-89683732D01*
X92495860Y-89547059D01*
X92467000Y-89401968D01*
X92467000Y-89254032D01*
X92495860Y-89108941D01*
X92552471Y-88972270D01*
X92634659Y-88849267D01*
X92634660Y-88849265D01*
X92739265Y-88744660D01*
X92862268Y-88662472D01*
X92998941Y-88605860D01*
X93108011Y-88584165D01*
X93144032Y-88577000D01*
X93291968Y-88577000D01*
X93327989Y-88584165D01*
G37*
G36*
X90027989Y-88584165D02*
G01*
X90137059Y-88605860D01*
X90273732Y-88662472D01*
X90396735Y-88744660D01*
X90501340Y-88849265D01*
X90501341Y-88849267D01*
X90583529Y-88972270D01*
X90640140Y-89108941D01*
X90669000Y-89254032D01*
X90669000Y-89401968D01*
X90640140Y-89547059D01*
X90583528Y-89683732D01*
X90501340Y-89806735D01*
X90396735Y-89911340D01*
X90273732Y-89993528D01*
X90273731Y-89993529D01*
X90273730Y-89993529D01*
X90137059Y-90050140D01*
X89991968Y-90079000D01*
X89844032Y-90079000D01*
X89698941Y-90050140D01*
X89562270Y-89993529D01*
X89562269Y-89993529D01*
X89562268Y-89993528D01*
X89439265Y-89911340D01*
X89334660Y-89806735D01*
X89252472Y-89683732D01*
X89195860Y-89547059D01*
X89167000Y-89401968D01*
X89167000Y-89254032D01*
X89195860Y-89108941D01*
X89252471Y-88972270D01*
X89334659Y-88849267D01*
X89334660Y-88849265D01*
X89439265Y-88744660D01*
X89562268Y-88662472D01*
X89698941Y-88605860D01*
X89808011Y-88584165D01*
X89844032Y-88577000D01*
X89991968Y-88577000D01*
X90027989Y-88584165D01*
G37*
G36*
X132074228Y-88081703D02*
G01*
X132229100Y-88145853D01*
X132368481Y-88238985D01*
X132487015Y-88357519D01*
X132580147Y-88496900D01*
X132644297Y-88651772D01*
X132677000Y-88816184D01*
X132677000Y-88983816D01*
X132644297Y-89148228D01*
X132580147Y-89303100D01*
X132487015Y-89442481D01*
X132368481Y-89561015D01*
X132229100Y-89654147D01*
X132074228Y-89718297D01*
X131909816Y-89751000D01*
X131742184Y-89751000D01*
X131577772Y-89718297D01*
X131422900Y-89654147D01*
X131283519Y-89561015D01*
X131164985Y-89442481D01*
X131071853Y-89303100D01*
X131007703Y-89148228D01*
X130975000Y-88983816D01*
X130975000Y-88816184D01*
X131007703Y-88651772D01*
X131071853Y-88496900D01*
X131164985Y-88357519D01*
X131283519Y-88238985D01*
X131422900Y-88145853D01*
X131577772Y-88081703D01*
X131742184Y-88049000D01*
X131909816Y-88049000D01*
X132074228Y-88081703D01*
G37*
G36*
X116834228Y-88081703D02*
G01*
X116989100Y-88145853D01*
X117128481Y-88238985D01*
X117247015Y-88357519D01*
X117340147Y-88496900D01*
X117404297Y-88651772D01*
X117437000Y-88816184D01*
X117437000Y-88983816D01*
X117404297Y-89148228D01*
X117340147Y-89303100D01*
X117247015Y-89442481D01*
X117128481Y-89561015D01*
X116989100Y-89654147D01*
X116834228Y-89718297D01*
X116669816Y-89751000D01*
X116502184Y-89751000D01*
X116337772Y-89718297D01*
X116182900Y-89654147D01*
X116043519Y-89561015D01*
X115924985Y-89442481D01*
X115831853Y-89303100D01*
X115767703Y-89148228D01*
X115735000Y-88983816D01*
X115735000Y-88816184D01*
X115767703Y-88651772D01*
X115831853Y-88496900D01*
X115924985Y-88357519D01*
X116043519Y-88238985D01*
X116182900Y-88145853D01*
X116337772Y-88081703D01*
X116502184Y-88049000D01*
X116669816Y-88049000D01*
X116834228Y-88081703D01*
G37*
G36*
X145236564Y-86547389D02*
G01*
X145427833Y-86626615D01*
X145427835Y-86626616D01*
X145599973Y-86741635D01*
X145746365Y-86888027D01*
X145861385Y-87060167D01*
X145940611Y-87251436D01*
X145981000Y-87454484D01*
X145981000Y-87661516D01*
X145940611Y-87864564D01*
X145871671Y-88031000D01*
X145861384Y-88055835D01*
X145746365Y-88227973D01*
X145599973Y-88374365D01*
X145427835Y-88489384D01*
X145427834Y-88489385D01*
X145427833Y-88489385D01*
X145236564Y-88568611D01*
X145033516Y-88609000D01*
X144826484Y-88609000D01*
X144623436Y-88568611D01*
X144432167Y-88489385D01*
X144432166Y-88489385D01*
X144432165Y-88489384D01*
X144260027Y-88374365D01*
X144113635Y-88227973D01*
X143998616Y-88055835D01*
X143988329Y-88031000D01*
X143919389Y-87864564D01*
X143879000Y-87661516D01*
X143879000Y-87454484D01*
X143919389Y-87251436D01*
X143998615Y-87060167D01*
X144113635Y-86888027D01*
X144260027Y-86741635D01*
X144432165Y-86626616D01*
X144432167Y-86626615D01*
X144623436Y-86547389D01*
X144826484Y-86507000D01*
X145033516Y-86507000D01*
X145236564Y-86547389D01*
G37*
G36*
X138736564Y-86547389D02*
G01*
X138927833Y-86626615D01*
X138927835Y-86626616D01*
X139099973Y-86741635D01*
X139246365Y-86888027D01*
X139361385Y-87060167D01*
X139440611Y-87251436D01*
X139481000Y-87454484D01*
X139481000Y-87661516D01*
X139440611Y-87864564D01*
X139371671Y-88031000D01*
X139361384Y-88055835D01*
X139246365Y-88227973D01*
X139099973Y-88374365D01*
X138927835Y-88489384D01*
X138927834Y-88489385D01*
X138927833Y-88489385D01*
X138736564Y-88568611D01*
X138533516Y-88609000D01*
X138326484Y-88609000D01*
X138123436Y-88568611D01*
X137932167Y-88489385D01*
X137932166Y-88489385D01*
X137932165Y-88489384D01*
X137760027Y-88374365D01*
X137613635Y-88227973D01*
X137498616Y-88055835D01*
X137488329Y-88031000D01*
X137419389Y-87864564D01*
X137379000Y-87661516D01*
X137379000Y-87454484D01*
X137419389Y-87251436D01*
X137498615Y-87060167D01*
X137613635Y-86888027D01*
X137760027Y-86741635D01*
X137932165Y-86626616D01*
X137932167Y-86626615D01*
X138123436Y-86547389D01*
X138326484Y-86507000D01*
X138533516Y-86507000D01*
X138736564Y-86547389D01*
G37*
G36*
X90137059Y-86105860D02*
G01*
X90273732Y-86162472D01*
X90396735Y-86244660D01*
X90501340Y-86349265D01*
X90583528Y-86472268D01*
X90640140Y-86608941D01*
X90669000Y-86754033D01*
X90669000Y-86901967D01*
X90640140Y-87047059D01*
X90583528Y-87183732D01*
X90501340Y-87306735D01*
X90396735Y-87411340D01*
X90273732Y-87493528D01*
X90273731Y-87493529D01*
X90273730Y-87493529D01*
X90137059Y-87550140D01*
X89991968Y-87579000D01*
X89844032Y-87579000D01*
X89698941Y-87550140D01*
X89562270Y-87493529D01*
X89562269Y-87493529D01*
X89562268Y-87493528D01*
X89439265Y-87411340D01*
X89334660Y-87306735D01*
X89252472Y-87183732D01*
X89195860Y-87047059D01*
X89167000Y-86901967D01*
X89167000Y-86754033D01*
X89195860Y-86608941D01*
X89252472Y-86472268D01*
X89334660Y-86349265D01*
X89439265Y-86244660D01*
X89562268Y-86162472D01*
X89698941Y-86105860D01*
X89844032Y-86077000D01*
X89991968Y-86077000D01*
X90137059Y-86105860D01*
G37*
G36*
X93437059Y-86105860D02*
G01*
X93573732Y-86162472D01*
X93696735Y-86244660D01*
X93801340Y-86349265D01*
X93883528Y-86472268D01*
X93940140Y-86608941D01*
X93969000Y-86754033D01*
X93969000Y-86901967D01*
X93940140Y-87047059D01*
X93883528Y-87183732D01*
X93801340Y-87306735D01*
X93696735Y-87411340D01*
X93573732Y-87493528D01*
X93573731Y-87493529D01*
X93573730Y-87493529D01*
X93437059Y-87550140D01*
X93291968Y-87579000D01*
X93144032Y-87579000D01*
X92998941Y-87550140D01*
X92862270Y-87493529D01*
X92862269Y-87493529D01*
X92862268Y-87493528D01*
X92739265Y-87411340D01*
X92634660Y-87306735D01*
X92552472Y-87183732D01*
X92495860Y-87047059D01*
X92467000Y-86901967D01*
X92467000Y-86754033D01*
X92495860Y-86608941D01*
X92552472Y-86472268D01*
X92634660Y-86349265D01*
X92739265Y-86244660D01*
X92862268Y-86162472D01*
X92998941Y-86105860D01*
X93144032Y-86077000D01*
X93291968Y-86077000D01*
X93437059Y-86105860D01*
G37*
G36*
X116834228Y-85541703D02*
G01*
X116989100Y-85605853D01*
X117128481Y-85698985D01*
X117247015Y-85817519D01*
X117340147Y-85956900D01*
X117404297Y-86111772D01*
X117437000Y-86276184D01*
X117437000Y-86443816D01*
X117404297Y-86608228D01*
X117340147Y-86763100D01*
X117247015Y-86902481D01*
X117128481Y-87021015D01*
X116989100Y-87114147D01*
X116834228Y-87178297D01*
X116669816Y-87211000D01*
X116502184Y-87211000D01*
X116337772Y-87178297D01*
X116182900Y-87114147D01*
X116043519Y-87021015D01*
X115924985Y-86902481D01*
X115831853Y-86763100D01*
X115767703Y-86608228D01*
X115735000Y-86443816D01*
X115735000Y-86276184D01*
X115767703Y-86111772D01*
X115831853Y-85956900D01*
X115924985Y-85817519D01*
X116043519Y-85698985D01*
X116182900Y-85605853D01*
X116337772Y-85541703D01*
X116502184Y-85509000D01*
X116669816Y-85509000D01*
X116834228Y-85541703D01*
G37*
G36*
X132074228Y-85541703D02*
G01*
X132229100Y-85605853D01*
X132368481Y-85698985D01*
X132487015Y-85817519D01*
X132580147Y-85956900D01*
X132644297Y-86111772D01*
X132677000Y-86276184D01*
X132677000Y-86443816D01*
X132644297Y-86608228D01*
X132580147Y-86763100D01*
X132487015Y-86902481D01*
X132368481Y-87021015D01*
X132229100Y-87114147D01*
X132074228Y-87178297D01*
X131909816Y-87211000D01*
X131742184Y-87211000D01*
X131577772Y-87178297D01*
X131422900Y-87114147D01*
X131283519Y-87021015D01*
X131164985Y-86902481D01*
X131071853Y-86763100D01*
X131007703Y-86608228D01*
X130975000Y-86443816D01*
X130975000Y-86276184D01*
X131007703Y-86111772D01*
X131071853Y-85956900D01*
X131164985Y-85817519D01*
X131283519Y-85698985D01*
X131422900Y-85605853D01*
X131577772Y-85541703D01*
X131742184Y-85509000D01*
X131909816Y-85509000D01*
X132074228Y-85541703D01*
G37*
G36*
X111454564Y-83571389D02*
G01*
X111645833Y-83650615D01*
X111645835Y-83650616D01*
X111761608Y-83727973D01*
X111817973Y-83765635D01*
X111964365Y-83912027D01*
X112079385Y-84084167D01*
X112158611Y-84275436D01*
X112199000Y-84478484D01*
X112199000Y-84685516D01*
X112158611Y-84888564D01*
X112115133Y-84993529D01*
X112079384Y-85079835D01*
X111964365Y-85251973D01*
X111817973Y-85398365D01*
X111645835Y-85513384D01*
X111645834Y-85513385D01*
X111645833Y-85513385D01*
X111454564Y-85592611D01*
X111251516Y-85633000D01*
X111044484Y-85633000D01*
X110841436Y-85592611D01*
X110650167Y-85513385D01*
X110650166Y-85513385D01*
X110650165Y-85513384D01*
X110478027Y-85398365D01*
X110331635Y-85251973D01*
X110216616Y-85079835D01*
X110180867Y-84993529D01*
X110137389Y-84888564D01*
X110097000Y-84685516D01*
X110097000Y-84478484D01*
X110137389Y-84275436D01*
X110216615Y-84084167D01*
X110331635Y-83912027D01*
X110478027Y-83765635D01*
X110534392Y-83727973D01*
X110650165Y-83650616D01*
X110650167Y-83650615D01*
X110841436Y-83571389D01*
X111044484Y-83531000D01*
X111251516Y-83531000D01*
X111454564Y-83571389D01*
G37*
G36*
X104954564Y-83571389D02*
G01*
X105145833Y-83650615D01*
X105145835Y-83650616D01*
X105261608Y-83727973D01*
X105317973Y-83765635D01*
X105464365Y-83912027D01*
X105579385Y-84084167D01*
X105658611Y-84275436D01*
X105699000Y-84478484D01*
X105699000Y-84685516D01*
X105658611Y-84888564D01*
X105615133Y-84993529D01*
X105579384Y-85079835D01*
X105464365Y-85251973D01*
X105317973Y-85398365D01*
X105145835Y-85513384D01*
X105145834Y-85513385D01*
X105145833Y-85513385D01*
X104954564Y-85592611D01*
X104751516Y-85633000D01*
X104544484Y-85633000D01*
X104341436Y-85592611D01*
X104150167Y-85513385D01*
X104150166Y-85513385D01*
X104150165Y-85513384D01*
X103978027Y-85398365D01*
X103831635Y-85251973D01*
X103716616Y-85079835D01*
X103680867Y-84993529D01*
X103637389Y-84888564D01*
X103597000Y-84685516D01*
X103597000Y-84478484D01*
X103637389Y-84275436D01*
X103716615Y-84084167D01*
X103831635Y-83912027D01*
X103978027Y-83765635D01*
X104034392Y-83727973D01*
X104150165Y-83650616D01*
X104150167Y-83650615D01*
X104341436Y-83571389D01*
X104544484Y-83531000D01*
X104751516Y-83531000D01*
X104954564Y-83571389D01*
G37*
G36*
X93969000Y-85079000D02*
G01*
X92467000Y-85079000D01*
X92467000Y-83577000D01*
X93969000Y-83577000D01*
X93969000Y-85079000D01*
G37*
G36*
X90137059Y-83605860D02*
G01*
X90245110Y-83650616D01*
X90273732Y-83662472D01*
X90396735Y-83744660D01*
X90501340Y-83849265D01*
X90543276Y-83912027D01*
X90583529Y-83972270D01*
X90623434Y-84068610D01*
X90640140Y-84108941D01*
X90669000Y-84254033D01*
X90669000Y-84401967D01*
X90640140Y-84547059D01*
X90583528Y-84683732D01*
X90501340Y-84806735D01*
X90396735Y-84911340D01*
X90273732Y-84993528D01*
X90273731Y-84993529D01*
X90273730Y-84993529D01*
X90137059Y-85050140D01*
X89991968Y-85079000D01*
X89844032Y-85079000D01*
X89698941Y-85050140D01*
X89562270Y-84993529D01*
X89562269Y-84993529D01*
X89562268Y-84993528D01*
X89439265Y-84911340D01*
X89334660Y-84806735D01*
X89252472Y-84683732D01*
X89195860Y-84547059D01*
X89167000Y-84401967D01*
X89167000Y-84254033D01*
X89195860Y-84108941D01*
X89212566Y-84068610D01*
X89252471Y-83972270D01*
X89292724Y-83912027D01*
X89334660Y-83849265D01*
X89439265Y-83744660D01*
X89562268Y-83662472D01*
X89590891Y-83650616D01*
X89698941Y-83605860D01*
X89844032Y-83577000D01*
X89991968Y-83577000D01*
X90137059Y-83605860D01*
G37*
G36*
X132074228Y-83001703D02*
G01*
X132229100Y-83065853D01*
X132368481Y-83158985D01*
X132487015Y-83277519D01*
X132580147Y-83416900D01*
X132644297Y-83571772D01*
X132677000Y-83736184D01*
X132677000Y-83903816D01*
X132644297Y-84068228D01*
X132580147Y-84223100D01*
X132487015Y-84362481D01*
X132368481Y-84481015D01*
X132229100Y-84574147D01*
X132074228Y-84638297D01*
X131909816Y-84671000D01*
X131742184Y-84671000D01*
X131577772Y-84638297D01*
X131422900Y-84574147D01*
X131283519Y-84481015D01*
X131164985Y-84362481D01*
X131071853Y-84223100D01*
X131007703Y-84068228D01*
X130975000Y-83903816D01*
X130975000Y-83736184D01*
X131007703Y-83571772D01*
X131071853Y-83416900D01*
X131164985Y-83277519D01*
X131283519Y-83158985D01*
X131422900Y-83065853D01*
X131577772Y-83001703D01*
X131742184Y-82969000D01*
X131909816Y-82969000D01*
X132074228Y-83001703D01*
G37*
G36*
X116834228Y-83001703D02*
G01*
X116989100Y-83065853D01*
X117128481Y-83158985D01*
X117247015Y-83277519D01*
X117340147Y-83416900D01*
X117404297Y-83571772D01*
X117437000Y-83736184D01*
X117437000Y-83903816D01*
X117404297Y-84068228D01*
X117340147Y-84223100D01*
X117247015Y-84362481D01*
X117128481Y-84481015D01*
X116989100Y-84574147D01*
X116834228Y-84638297D01*
X116669816Y-84671000D01*
X116502184Y-84671000D01*
X116337772Y-84638297D01*
X116182900Y-84574147D01*
X116043519Y-84481015D01*
X115924985Y-84362481D01*
X115831853Y-84223100D01*
X115767703Y-84068228D01*
X115735000Y-83903816D01*
X115735000Y-83736184D01*
X115767703Y-83571772D01*
X115831853Y-83416900D01*
X115924985Y-83277519D01*
X116043519Y-83158985D01*
X116182900Y-83065853D01*
X116337772Y-83001703D01*
X116502184Y-82969000D01*
X116669816Y-82969000D01*
X116834228Y-83001703D01*
G37*
G36*
X138736564Y-82047389D02*
G01*
X138927833Y-82126615D01*
X138927835Y-82126616D01*
X138934396Y-82131000D01*
X139099973Y-82241635D01*
X139246365Y-82388027D01*
X139361385Y-82560167D01*
X139440611Y-82751436D01*
X139481000Y-82954484D01*
X139481000Y-83161516D01*
X139440611Y-83364564D01*
X139371671Y-83531000D01*
X139361384Y-83555835D01*
X139246365Y-83727973D01*
X139099973Y-83874365D01*
X138927835Y-83989384D01*
X138927834Y-83989385D01*
X138927833Y-83989385D01*
X138736564Y-84068611D01*
X138533516Y-84109000D01*
X138326484Y-84109000D01*
X138123436Y-84068611D01*
X137932167Y-83989385D01*
X137932166Y-83989385D01*
X137932165Y-83989384D01*
X137760027Y-83874365D01*
X137613635Y-83727973D01*
X137498616Y-83555835D01*
X137488329Y-83531000D01*
X137419389Y-83364564D01*
X137379000Y-83161516D01*
X137379000Y-82954484D01*
X137419389Y-82751436D01*
X137498615Y-82560167D01*
X137613635Y-82388027D01*
X137760027Y-82241635D01*
X137925604Y-82131000D01*
X137932165Y-82126616D01*
X137932167Y-82126615D01*
X138123436Y-82047389D01*
X138326484Y-82007000D01*
X138533516Y-82007000D01*
X138736564Y-82047389D01*
G37*
G36*
X145236564Y-82047389D02*
G01*
X145427833Y-82126615D01*
X145427835Y-82126616D01*
X145434396Y-82131000D01*
X145599973Y-82241635D01*
X145746365Y-82388027D01*
X145861385Y-82560167D01*
X145940611Y-82751436D01*
X145981000Y-82954484D01*
X145981000Y-83161516D01*
X145940611Y-83364564D01*
X145871671Y-83531000D01*
X145861384Y-83555835D01*
X145746365Y-83727973D01*
X145599973Y-83874365D01*
X145427835Y-83989384D01*
X145427834Y-83989385D01*
X145427833Y-83989385D01*
X145236564Y-84068611D01*
X145033516Y-84109000D01*
X144826484Y-84109000D01*
X144623436Y-84068611D01*
X144432167Y-83989385D01*
X144432166Y-83989385D01*
X144432165Y-83989384D01*
X144260027Y-83874365D01*
X144113635Y-83727973D01*
X143998616Y-83555835D01*
X143988329Y-83531000D01*
X143919389Y-83364564D01*
X143879000Y-83161516D01*
X143879000Y-82954484D01*
X143919389Y-82751436D01*
X143998615Y-82560167D01*
X144113635Y-82388027D01*
X144260027Y-82241635D01*
X144425604Y-82131000D01*
X144432165Y-82126616D01*
X144432167Y-82126615D01*
X144623436Y-82047389D01*
X144826484Y-82007000D01*
X145033516Y-82007000D01*
X145236564Y-82047389D01*
G37*
G36*
X132074228Y-80461703D02*
G01*
X132229100Y-80525853D01*
X132368481Y-80618985D01*
X132487015Y-80737519D01*
X132580147Y-80876900D01*
X132644297Y-81031772D01*
X132677000Y-81196184D01*
X132677000Y-81363816D01*
X132644297Y-81528228D01*
X132580147Y-81683100D01*
X132487015Y-81822481D01*
X132368481Y-81941015D01*
X132229100Y-82034147D01*
X132074228Y-82098297D01*
X131909816Y-82131000D01*
X131742184Y-82131000D01*
X131577772Y-82098297D01*
X131422900Y-82034147D01*
X131283519Y-81941015D01*
X131164985Y-81822481D01*
X131071853Y-81683100D01*
X131007703Y-81528228D01*
X130975000Y-81363816D01*
X130975000Y-81196184D01*
X131007703Y-81031772D01*
X131071853Y-80876900D01*
X131164985Y-80737519D01*
X131283519Y-80618985D01*
X131422900Y-80525853D01*
X131577772Y-80461703D01*
X131742184Y-80429000D01*
X131909816Y-80429000D01*
X132074228Y-80461703D01*
G37*
G36*
X116834228Y-80461703D02*
G01*
X116989100Y-80525853D01*
X117128481Y-80618985D01*
X117247015Y-80737519D01*
X117340147Y-80876900D01*
X117404297Y-81031772D01*
X117437000Y-81196184D01*
X117437000Y-81363816D01*
X117404297Y-81528228D01*
X117340147Y-81683100D01*
X117247015Y-81822481D01*
X117128481Y-81941015D01*
X116989100Y-82034147D01*
X116834228Y-82098297D01*
X116669816Y-82131000D01*
X116502184Y-82131000D01*
X116337772Y-82098297D01*
X116182900Y-82034147D01*
X116043519Y-81941015D01*
X115924985Y-81822481D01*
X115831853Y-81683100D01*
X115767703Y-81528228D01*
X115735000Y-81363816D01*
X115735000Y-81196184D01*
X115767703Y-81031772D01*
X115831853Y-80876900D01*
X115924985Y-80737519D01*
X116043519Y-80618985D01*
X116182900Y-80525853D01*
X116337772Y-80461703D01*
X116502184Y-80429000D01*
X116669816Y-80429000D01*
X116834228Y-80461703D01*
G37*
G36*
X110171000Y-79691000D02*
G01*
X108269000Y-79691000D01*
X108269000Y-77789000D01*
X110171000Y-77789000D01*
X110171000Y-79691000D01*
G37*
G36*
X106957395Y-77825546D02*
G01*
X107130466Y-77897234D01*
X107130467Y-77897235D01*
X107286227Y-78001310D01*
X107418690Y-78133773D01*
X107461284Y-78197520D01*
X107522766Y-78289534D01*
X107594454Y-78462605D01*
X107631000Y-78646333D01*
X107631000Y-78833667D01*
X107594454Y-79017395D01*
X107522766Y-79190466D01*
X107522765Y-79190467D01*
X107418690Y-79346227D01*
X107286227Y-79478690D01*
X107263092Y-79494148D01*
X107130466Y-79582766D01*
X106957395Y-79654454D01*
X106773667Y-79691000D01*
X106586333Y-79691000D01*
X106402605Y-79654454D01*
X106229534Y-79582766D01*
X106096908Y-79494148D01*
X106073773Y-79478690D01*
X105941310Y-79346227D01*
X105837235Y-79190467D01*
X105837234Y-79190466D01*
X105765546Y-79017395D01*
X105729000Y-78833667D01*
X105729000Y-78646333D01*
X105765546Y-78462605D01*
X105837234Y-78289534D01*
X105898716Y-78197520D01*
X105941310Y-78133773D01*
X106073773Y-78001310D01*
X106229533Y-77897235D01*
X106229534Y-77897234D01*
X106402605Y-77825546D01*
X106586333Y-77789000D01*
X106773667Y-77789000D01*
X106957395Y-77825546D01*
G37*
G36*
X101848228Y-77921703D02*
G01*
X102003100Y-77985853D01*
X102142481Y-78078985D01*
X102261015Y-78197519D01*
X102354147Y-78336900D01*
X102418297Y-78491772D01*
X102451000Y-78656184D01*
X102451000Y-78823816D01*
X102418297Y-78988228D01*
X102354147Y-79143100D01*
X102261015Y-79282481D01*
X102142481Y-79401015D01*
X102003100Y-79494147D01*
X101848228Y-79558297D01*
X101683816Y-79591000D01*
X101516184Y-79591000D01*
X101351772Y-79558297D01*
X101196900Y-79494147D01*
X101057519Y-79401015D01*
X100938985Y-79282481D01*
X100845853Y-79143100D01*
X100781703Y-78988228D01*
X100749000Y-78823816D01*
X100749000Y-78656184D01*
X100781703Y-78491772D01*
X100845853Y-78336900D01*
X100938985Y-78197519D01*
X101057519Y-78078985D01*
X101196900Y-77985853D01*
X101351772Y-77921703D01*
X101516184Y-77889000D01*
X101683816Y-77889000D01*
X101848228Y-77921703D01*
G37*
G36*
X91688228Y-77921703D02*
G01*
X91843100Y-77985853D01*
X91982481Y-78078985D01*
X92101015Y-78197519D01*
X92194147Y-78336900D01*
X92258297Y-78491772D01*
X92291000Y-78656184D01*
X92291000Y-78823816D01*
X92258297Y-78988228D01*
X92194147Y-79143100D01*
X92101015Y-79282481D01*
X91982481Y-79401015D01*
X91843100Y-79494147D01*
X91688228Y-79558297D01*
X91523816Y-79591000D01*
X91356184Y-79591000D01*
X91191772Y-79558297D01*
X91036900Y-79494147D01*
X90897519Y-79401015D01*
X90778985Y-79282481D01*
X90685853Y-79143100D01*
X90621703Y-78988228D01*
X90589000Y-78823816D01*
X90589000Y-78656184D01*
X90621703Y-78491772D01*
X90685853Y-78336900D01*
X90778985Y-78197519D01*
X90897519Y-78078985D01*
X91036900Y-77985853D01*
X91191772Y-77921703D01*
X91356184Y-77889000D01*
X91523816Y-77889000D01*
X91688228Y-77921703D01*
G37*
G36*
X116834228Y-77921703D02*
G01*
X116989100Y-77985853D01*
X117128481Y-78078985D01*
X117247015Y-78197519D01*
X117340147Y-78336900D01*
X117404297Y-78491772D01*
X117437000Y-78656184D01*
X117437000Y-78823816D01*
X117404297Y-78988228D01*
X117340147Y-79143100D01*
X117247015Y-79282481D01*
X117128481Y-79401015D01*
X116989100Y-79494147D01*
X116834228Y-79558297D01*
X116669816Y-79591000D01*
X116502184Y-79591000D01*
X116337772Y-79558297D01*
X116182900Y-79494147D01*
X116043519Y-79401015D01*
X115924985Y-79282481D01*
X115831853Y-79143100D01*
X115767703Y-78988228D01*
X115735000Y-78823816D01*
X115735000Y-78656184D01*
X115767703Y-78491772D01*
X115831853Y-78336900D01*
X115924985Y-78197519D01*
X116043519Y-78078985D01*
X116182900Y-77985853D01*
X116337772Y-77921703D01*
X116502184Y-77889000D01*
X116669816Y-77889000D01*
X116834228Y-77921703D01*
G37*
G36*
X132074228Y-77921703D02*
G01*
X132229100Y-77985853D01*
X132368481Y-78078985D01*
X132487015Y-78197519D01*
X132580147Y-78336900D01*
X132644297Y-78491772D01*
X132677000Y-78656184D01*
X132677000Y-78823816D01*
X132644297Y-78988228D01*
X132580147Y-79143100D01*
X132487015Y-79282481D01*
X132368481Y-79401015D01*
X132229100Y-79494147D01*
X132074228Y-79558297D01*
X131909816Y-79591000D01*
X131742184Y-79591000D01*
X131577772Y-79558297D01*
X131422900Y-79494147D01*
X131283519Y-79401015D01*
X131164985Y-79282481D01*
X131071853Y-79143100D01*
X131007703Y-78988228D01*
X130975000Y-78823816D01*
X130975000Y-78656184D01*
X131007703Y-78491772D01*
X131071853Y-78336900D01*
X131164985Y-78197519D01*
X131283519Y-78078985D01*
X131422900Y-77985853D01*
X131577772Y-77921703D01*
X131742184Y-77889000D01*
X131909816Y-77889000D01*
X132074228Y-77921703D01*
G37*
G36*
X132074228Y-75381703D02*
G01*
X132229100Y-75445853D01*
X132368481Y-75538985D01*
X132487015Y-75657519D01*
X132580147Y-75796900D01*
X132644297Y-75951772D01*
X132677000Y-76116184D01*
X132677000Y-76283816D01*
X132644297Y-76448228D01*
X132580147Y-76603100D01*
X132487015Y-76742481D01*
X132368481Y-76861015D01*
X132229100Y-76954147D01*
X132074228Y-77018297D01*
X131909816Y-77051000D01*
X131742184Y-77051000D01*
X131577772Y-77018297D01*
X131422900Y-76954147D01*
X131283519Y-76861015D01*
X131164985Y-76742481D01*
X131071853Y-76603100D01*
X131007703Y-76448228D01*
X130975000Y-76283816D01*
X130975000Y-76116184D01*
X131007703Y-75951772D01*
X131071853Y-75796900D01*
X131164985Y-75657519D01*
X131283519Y-75538985D01*
X131422900Y-75445853D01*
X131577772Y-75381703D01*
X131742184Y-75349000D01*
X131909816Y-75349000D01*
X132074228Y-75381703D01*
G37*
G36*
X116834228Y-75381703D02*
G01*
X116989100Y-75445853D01*
X117128481Y-75538985D01*
X117247015Y-75657519D01*
X117340147Y-75796900D01*
X117404297Y-75951772D01*
X117437000Y-76116184D01*
X117437000Y-76283816D01*
X117404297Y-76448228D01*
X117340147Y-76603100D01*
X117247015Y-76742481D01*
X117128481Y-76861015D01*
X116989100Y-76954147D01*
X116834228Y-77018297D01*
X116669816Y-77051000D01*
X116502184Y-77051000D01*
X116337772Y-77018297D01*
X116182900Y-76954147D01*
X116043519Y-76861015D01*
X115924985Y-76742481D01*
X115831853Y-76603100D01*
X115767703Y-76448228D01*
X115735000Y-76283816D01*
X115735000Y-76116184D01*
X115767703Y-75951772D01*
X115831853Y-75796900D01*
X115924985Y-75657519D01*
X116043519Y-75538985D01*
X116182900Y-75445853D01*
X116337772Y-75381703D01*
X116502184Y-75349000D01*
X116669816Y-75349000D01*
X116834228Y-75381703D01*
G37*
G36*
X139839000Y-75577000D02*
G01*
X138037000Y-75577000D01*
X138037000Y-73775000D01*
X139839000Y-73775000D01*
X139839000Y-75577000D01*
G37*
G36*
X132074228Y-72841703D02*
G01*
X132229100Y-72905853D01*
X132368481Y-72998985D01*
X132487015Y-73117519D01*
X132580147Y-73256900D01*
X132644297Y-73411772D01*
X132677000Y-73576184D01*
X132677000Y-73743816D01*
X132644297Y-73908228D01*
X132580147Y-74063100D01*
X132487015Y-74202481D01*
X132368481Y-74321015D01*
X132229100Y-74414147D01*
X132074228Y-74478297D01*
X131909816Y-74511000D01*
X131742184Y-74511000D01*
X131577772Y-74478297D01*
X131422900Y-74414147D01*
X131283519Y-74321015D01*
X131164985Y-74202481D01*
X131071853Y-74063100D01*
X131007703Y-73908228D01*
X130975000Y-73743816D01*
X130975000Y-73576184D01*
X131007703Y-73411772D01*
X131071853Y-73256900D01*
X131164985Y-73117519D01*
X131283519Y-72998985D01*
X131422900Y-72905853D01*
X131577772Y-72841703D01*
X131742184Y-72809000D01*
X131909816Y-72809000D01*
X132074228Y-72841703D01*
G37*
G36*
X116834228Y-72841703D02*
G01*
X116989100Y-72905853D01*
X117128481Y-72998985D01*
X117247015Y-73117519D01*
X117340147Y-73256900D01*
X117404297Y-73411772D01*
X117437000Y-73576184D01*
X117437000Y-73743816D01*
X117404297Y-73908228D01*
X117340147Y-74063100D01*
X117247015Y-74202481D01*
X117128481Y-74321015D01*
X116989100Y-74414147D01*
X116834228Y-74478297D01*
X116669816Y-74511000D01*
X116502184Y-74511000D01*
X116337772Y-74478297D01*
X116182900Y-74414147D01*
X116043519Y-74321015D01*
X115924985Y-74202481D01*
X115831853Y-74063100D01*
X115767703Y-73908228D01*
X115735000Y-73743816D01*
X115735000Y-73576184D01*
X115767703Y-73411772D01*
X115831853Y-73256900D01*
X115924985Y-73117519D01*
X116043519Y-72998985D01*
X116182900Y-72905853D01*
X116337772Y-72841703D01*
X116502184Y-72809000D01*
X116669816Y-72809000D01*
X116834228Y-72841703D01*
G37*
G36*
X139051512Y-71239927D02*
G01*
X139200812Y-71269624D01*
X139364784Y-71337544D01*
X139512354Y-71436147D01*
X139637853Y-71561646D01*
X139736456Y-71709216D01*
X139804376Y-71873188D01*
X139839000Y-72047259D01*
X139839000Y-72224741D01*
X139804376Y-72398812D01*
X139736456Y-72562784D01*
X139637853Y-72710354D01*
X139512354Y-72835853D01*
X139364784Y-72934456D01*
X139200812Y-73002376D01*
X139051512Y-73032073D01*
X139026742Y-73037000D01*
X138849258Y-73037000D01*
X138824488Y-73032073D01*
X138675188Y-73002376D01*
X138511216Y-72934456D01*
X138363646Y-72835853D01*
X138238147Y-72710354D01*
X138139544Y-72562784D01*
X138071624Y-72398812D01*
X138037000Y-72224741D01*
X138037000Y-72047259D01*
X138071624Y-71873188D01*
X138139544Y-71709216D01*
X138238147Y-71561646D01*
X138363646Y-71436147D01*
X138511216Y-71337544D01*
X138675188Y-71269624D01*
X138824488Y-71239927D01*
X138849258Y-71235000D01*
X139026742Y-71235000D01*
X139051512Y-71239927D01*
G37*
G36*
X106957395Y-70205546D02*
G01*
X107130466Y-70277234D01*
X107130467Y-70277235D01*
X107286227Y-70381310D01*
X107418690Y-70513773D01*
X107461284Y-70577520D01*
X107522766Y-70669534D01*
X107594454Y-70842605D01*
X107631000Y-71026333D01*
X107631000Y-71213667D01*
X107594454Y-71397395D01*
X107522766Y-71570466D01*
X107522765Y-71570467D01*
X107418690Y-71726227D01*
X107286227Y-71858690D01*
X107263092Y-71874148D01*
X107130466Y-71962766D01*
X106957395Y-72034454D01*
X106773667Y-72071000D01*
X106586333Y-72071000D01*
X106402605Y-72034454D01*
X106229534Y-71962766D01*
X106096908Y-71874148D01*
X106073773Y-71858690D01*
X105941310Y-71726227D01*
X105837235Y-71570467D01*
X105837234Y-71570466D01*
X105765546Y-71397395D01*
X105729000Y-71213667D01*
X105729000Y-71026333D01*
X105765546Y-70842605D01*
X105837234Y-70669534D01*
X105898716Y-70577520D01*
X105941310Y-70513773D01*
X106073773Y-70381310D01*
X106229533Y-70277235D01*
X106229534Y-70277234D01*
X106402605Y-70205546D01*
X106586333Y-70169000D01*
X106773667Y-70169000D01*
X106957395Y-70205546D01*
G37*
G36*
X110171000Y-72071000D02*
G01*
X108269000Y-72071000D01*
X108269000Y-70169000D01*
X110171000Y-70169000D01*
X110171000Y-72071000D01*
G37*
G36*
X116834228Y-70301703D02*
G01*
X116989100Y-70365853D01*
X117128481Y-70458985D01*
X117247015Y-70577519D01*
X117340147Y-70716900D01*
X117404297Y-70871772D01*
X117437000Y-71036184D01*
X117437000Y-71203816D01*
X117404297Y-71368228D01*
X117340147Y-71523100D01*
X117247015Y-71662481D01*
X117128481Y-71781015D01*
X116989100Y-71874147D01*
X116834228Y-71938297D01*
X116669816Y-71971000D01*
X116502184Y-71971000D01*
X116337772Y-71938297D01*
X116182900Y-71874147D01*
X116043519Y-71781015D01*
X115924985Y-71662481D01*
X115831853Y-71523100D01*
X115767703Y-71368228D01*
X115735000Y-71203816D01*
X115735000Y-71036184D01*
X115767703Y-70871772D01*
X115831853Y-70716900D01*
X115924985Y-70577519D01*
X116043519Y-70458985D01*
X116182900Y-70365853D01*
X116337772Y-70301703D01*
X116502184Y-70269000D01*
X116669816Y-70269000D01*
X116834228Y-70301703D01*
G37*
G36*
X132074228Y-70301703D02*
G01*
X132229100Y-70365853D01*
X132368481Y-70458985D01*
X132487015Y-70577519D01*
X132580147Y-70716900D01*
X132644297Y-70871772D01*
X132677000Y-71036184D01*
X132677000Y-71203816D01*
X132644297Y-71368228D01*
X132580147Y-71523100D01*
X132487015Y-71662481D01*
X132368481Y-71781015D01*
X132229100Y-71874147D01*
X132074228Y-71938297D01*
X131909816Y-71971000D01*
X131742184Y-71971000D01*
X131577772Y-71938297D01*
X131422900Y-71874147D01*
X131283519Y-71781015D01*
X131164985Y-71662481D01*
X131071853Y-71523100D01*
X131007703Y-71368228D01*
X130975000Y-71203816D01*
X130975000Y-71036184D01*
X131007703Y-70871772D01*
X131071853Y-70716900D01*
X131164985Y-70577519D01*
X131283519Y-70458985D01*
X131422900Y-70365853D01*
X131577772Y-70301703D01*
X131742184Y-70269000D01*
X131909816Y-70269000D01*
X132074228Y-70301703D01*
G37*
G36*
X101848228Y-70301703D02*
G01*
X102003100Y-70365853D01*
X102142481Y-70458985D01*
X102261015Y-70577519D01*
X102354147Y-70716900D01*
X102418297Y-70871772D01*
X102451000Y-71036184D01*
X102451000Y-71203816D01*
X102418297Y-71368228D01*
X102354147Y-71523100D01*
X102261015Y-71662481D01*
X102142481Y-71781015D01*
X102003100Y-71874147D01*
X101848228Y-71938297D01*
X101683816Y-71971000D01*
X101516184Y-71971000D01*
X101351772Y-71938297D01*
X101196900Y-71874147D01*
X101057519Y-71781015D01*
X100938985Y-71662481D01*
X100845853Y-71523100D01*
X100781703Y-71368228D01*
X100749000Y-71203816D01*
X100749000Y-71036184D01*
X100781703Y-70871772D01*
X100845853Y-70716900D01*
X100938985Y-70577519D01*
X101057519Y-70458985D01*
X101196900Y-70365853D01*
X101351772Y-70301703D01*
X101516184Y-70269000D01*
X101683816Y-70269000D01*
X101848228Y-70301703D01*
G37*
G36*
X91688228Y-70301703D02*
G01*
X91843100Y-70365853D01*
X91982481Y-70458985D01*
X92101015Y-70577519D01*
X92194147Y-70716900D01*
X92258297Y-70871772D01*
X92291000Y-71036184D01*
X92291000Y-71203816D01*
X92258297Y-71368228D01*
X92194147Y-71523100D01*
X92101015Y-71662481D01*
X91982481Y-71781015D01*
X91843100Y-71874147D01*
X91688228Y-71938297D01*
X91523816Y-71971000D01*
X91356184Y-71971000D01*
X91191772Y-71938297D01*
X91036900Y-71874147D01*
X90897519Y-71781015D01*
X90778985Y-71662481D01*
X90685853Y-71523100D01*
X90621703Y-71368228D01*
X90589000Y-71203816D01*
X90589000Y-71036184D01*
X90621703Y-70871772D01*
X90685853Y-70716900D01*
X90778985Y-70577519D01*
X90897519Y-70458985D01*
X91036900Y-70365853D01*
X91191772Y-70301703D01*
X91356184Y-70269000D01*
X91523816Y-70269000D01*
X91688228Y-70301703D01*
G37*
G36*
X132074228Y-67761703D02*
G01*
X132229100Y-67825853D01*
X132368481Y-67918985D01*
X132487015Y-68037519D01*
X132580147Y-68176900D01*
X132644297Y-68331772D01*
X132677000Y-68496184D01*
X132677000Y-68663816D01*
X132644297Y-68828228D01*
X132580147Y-68983100D01*
X132487015Y-69122481D01*
X132368481Y-69241015D01*
X132229100Y-69334147D01*
X132074228Y-69398297D01*
X131909816Y-69431000D01*
X131742184Y-69431000D01*
X131577772Y-69398297D01*
X131422900Y-69334147D01*
X131283519Y-69241015D01*
X131164985Y-69122481D01*
X131071853Y-68983100D01*
X131007703Y-68828228D01*
X130975000Y-68663816D01*
X130975000Y-68496184D01*
X131007703Y-68331772D01*
X131071853Y-68176900D01*
X131164985Y-68037519D01*
X131283519Y-67918985D01*
X131422900Y-67825853D01*
X131577772Y-67761703D01*
X131742184Y-67729000D01*
X131909816Y-67729000D01*
X132074228Y-67761703D01*
G37*
G36*
X116834228Y-67761703D02*
G01*
X116989100Y-67825853D01*
X117128481Y-67918985D01*
X117247015Y-68037519D01*
X117340147Y-68176900D01*
X117404297Y-68331772D01*
X117437000Y-68496184D01*
X117437000Y-68663816D01*
X117404297Y-68828228D01*
X117340147Y-68983100D01*
X117247015Y-69122481D01*
X117128481Y-69241015D01*
X116989100Y-69334147D01*
X116834228Y-69398297D01*
X116669816Y-69431000D01*
X116502184Y-69431000D01*
X116337772Y-69398297D01*
X116182900Y-69334147D01*
X116043519Y-69241015D01*
X115924985Y-69122481D01*
X115831853Y-68983100D01*
X115767703Y-68828228D01*
X115735000Y-68663816D01*
X115735000Y-68496184D01*
X115767703Y-68331772D01*
X115831853Y-68176900D01*
X115924985Y-68037519D01*
X116043519Y-67918985D01*
X116182900Y-67825853D01*
X116337772Y-67761703D01*
X116502184Y-67729000D01*
X116669816Y-67729000D01*
X116834228Y-67761703D01*
G37*
G36*
X111137000Y-67449000D02*
G01*
X109335000Y-67449000D01*
X109335000Y-65647000D01*
X111137000Y-65647000D01*
X111137000Y-67449000D01*
G37*
G36*
X107809512Y-65651927D02*
G01*
X107958812Y-65681624D01*
X108122784Y-65749544D01*
X108270354Y-65848147D01*
X108395853Y-65973646D01*
X108494456Y-66121216D01*
X108562376Y-66285188D01*
X108597000Y-66459259D01*
X108597000Y-66636741D01*
X108562376Y-66810812D01*
X108494456Y-66974784D01*
X108395853Y-67122354D01*
X108270354Y-67247853D01*
X108122784Y-67346456D01*
X107958812Y-67414376D01*
X107809512Y-67444073D01*
X107784742Y-67449000D01*
X107607258Y-67449000D01*
X107582488Y-67444073D01*
X107433188Y-67414376D01*
X107269216Y-67346456D01*
X107121646Y-67247853D01*
X106996147Y-67122354D01*
X106897544Y-66974784D01*
X106829624Y-66810812D01*
X106795000Y-66636741D01*
X106795000Y-66459259D01*
X106829624Y-66285188D01*
X106897544Y-66121216D01*
X106996147Y-65973646D01*
X107121646Y-65848147D01*
X107269216Y-65749544D01*
X107433188Y-65681624D01*
X107582488Y-65651927D01*
X107607258Y-65647000D01*
X107784742Y-65647000D01*
X107809512Y-65651927D01*
G37*
G36*
X105269512Y-65651927D02*
G01*
X105418812Y-65681624D01*
X105582784Y-65749544D01*
X105730354Y-65848147D01*
X105855853Y-65973646D01*
X105954456Y-66121216D01*
X106022376Y-66285188D01*
X106057000Y-66459259D01*
X106057000Y-66636741D01*
X106022376Y-66810812D01*
X105954456Y-66974784D01*
X105855853Y-67122354D01*
X105730354Y-67247853D01*
X105582784Y-67346456D01*
X105418812Y-67414376D01*
X105269512Y-67444073D01*
X105244742Y-67449000D01*
X105067258Y-67449000D01*
X105042488Y-67444073D01*
X104893188Y-67414376D01*
X104729216Y-67346456D01*
X104581646Y-67247853D01*
X104456147Y-67122354D01*
X104357544Y-66974784D01*
X104289624Y-66810812D01*
X104255000Y-66636741D01*
X104255000Y-66459259D01*
X104289624Y-66285188D01*
X104357544Y-66121216D01*
X104456147Y-65973646D01*
X104581646Y-65848147D01*
X104729216Y-65749544D01*
X104893188Y-65681624D01*
X105042488Y-65651927D01*
X105067258Y-65647000D01*
X105244742Y-65647000D01*
X105269512Y-65651927D01*
G37*
G36*
X132074228Y-65221703D02*
G01*
X132229100Y-65285853D01*
X132368481Y-65378985D01*
X132487015Y-65497519D01*
X132580147Y-65636900D01*
X132644297Y-65791772D01*
X132677000Y-65956184D01*
X132677000Y-66123816D01*
X132644297Y-66288228D01*
X132580147Y-66443100D01*
X132487015Y-66582481D01*
X132368481Y-66701015D01*
X132229100Y-66794147D01*
X132074228Y-66858297D01*
X131909816Y-66891000D01*
X131742184Y-66891000D01*
X131577772Y-66858297D01*
X131422900Y-66794147D01*
X131283519Y-66701015D01*
X131164985Y-66582481D01*
X131071853Y-66443100D01*
X131007703Y-66288228D01*
X130975000Y-66123816D01*
X130975000Y-65956184D01*
X131007703Y-65791772D01*
X131071853Y-65636900D01*
X131164985Y-65497519D01*
X131283519Y-65378985D01*
X131422900Y-65285853D01*
X131577772Y-65221703D01*
X131742184Y-65189000D01*
X131909816Y-65189000D01*
X132074228Y-65221703D01*
G37*
G36*
X116834228Y-65221703D02*
G01*
X116989100Y-65285853D01*
X117128481Y-65378985D01*
X117247015Y-65497519D01*
X117340147Y-65636900D01*
X117404297Y-65791772D01*
X117437000Y-65956184D01*
X117437000Y-66123816D01*
X117404297Y-66288228D01*
X117340147Y-66443100D01*
X117247015Y-66582481D01*
X117128481Y-66701015D01*
X116989100Y-66794147D01*
X116834228Y-66858297D01*
X116669816Y-66891000D01*
X116502184Y-66891000D01*
X116337772Y-66858297D01*
X116182900Y-66794147D01*
X116043519Y-66701015D01*
X115924985Y-66582481D01*
X115831853Y-66443100D01*
X115767703Y-66288228D01*
X115735000Y-66123816D01*
X115735000Y-65956184D01*
X115767703Y-65791772D01*
X115831853Y-65636900D01*
X115924985Y-65497519D01*
X116043519Y-65378985D01*
X116182900Y-65285853D01*
X116337772Y-65221703D01*
X116502184Y-65189000D01*
X116669816Y-65189000D01*
X116834228Y-65221703D01*
G37*
G36*
X147811142Y-65258242D02*
G01*
X147959101Y-65319529D01*
X148092255Y-65408499D01*
X148205501Y-65521745D01*
X148294471Y-65654899D01*
X148355758Y-65802858D01*
X148387000Y-65959925D01*
X148387000Y-66120075D01*
X148355758Y-66277142D01*
X148294471Y-66425101D01*
X148205501Y-66558255D01*
X148092255Y-66671501D01*
X147959101Y-66760471D01*
X147811142Y-66821758D01*
X147654075Y-66853000D01*
X147493925Y-66853000D01*
X147336858Y-66821758D01*
X147188899Y-66760471D01*
X147055745Y-66671501D01*
X146942499Y-66558255D01*
X146853529Y-66425101D01*
X146792242Y-66277142D01*
X146761000Y-66120075D01*
X146761000Y-65959925D01*
X146792242Y-65802858D01*
X146853529Y-65654899D01*
X146942499Y-65521745D01*
X147055745Y-65408499D01*
X147188899Y-65319529D01*
X147336858Y-65258242D01*
X147493925Y-65227000D01*
X147654075Y-65227000D01*
X147811142Y-65258242D01*
G37*
G36*
X143307000Y-66853000D02*
G01*
X141681000Y-66853000D01*
X141681000Y-65227000D01*
X143307000Y-65227000D01*
X143307000Y-66853000D01*
G37*
G36*
X145271142Y-65258242D02*
G01*
X145419101Y-65319529D01*
X145552255Y-65408499D01*
X145665501Y-65521745D01*
X145754471Y-65654899D01*
X145815758Y-65802858D01*
X145847000Y-65959925D01*
X145847000Y-66120075D01*
X145815758Y-66277142D01*
X145754471Y-66425101D01*
X145665501Y-66558255D01*
X145552255Y-66671501D01*
X145419101Y-66760471D01*
X145271142Y-66821758D01*
X145114075Y-66853000D01*
X144953925Y-66853000D01*
X144796858Y-66821758D01*
X144648899Y-66760471D01*
X144515745Y-66671501D01*
X144402499Y-66558255D01*
X144313529Y-66425101D01*
X144252242Y-66277142D01*
X144221000Y-66120075D01*
X144221000Y-65959925D01*
X144252242Y-65802858D01*
X144313529Y-65654899D01*
X144402499Y-65521745D01*
X144515745Y-65408499D01*
X144648899Y-65319529D01*
X144796858Y-65258242D01*
X144953925Y-65227000D01*
X145114075Y-65227000D01*
X145271142Y-65258242D01*
G37*
G36*
X150351142Y-65258242D02*
G01*
X150499101Y-65319529D01*
X150632255Y-65408499D01*
X150745501Y-65521745D01*
X150834471Y-65654899D01*
X150895758Y-65802858D01*
X150927000Y-65959925D01*
X150927000Y-66120075D01*
X150895758Y-66277142D01*
X150834471Y-66425101D01*
X150745501Y-66558255D01*
X150632255Y-66671501D01*
X150499101Y-66760471D01*
X150351142Y-66821758D01*
X150194075Y-66853000D01*
X150033925Y-66853000D01*
X149876858Y-66821758D01*
X149728899Y-66760471D01*
X149595745Y-66671501D01*
X149482499Y-66558255D01*
X149393529Y-66425101D01*
X149332242Y-66277142D01*
X149301000Y-66120075D01*
X149301000Y-65959925D01*
X149332242Y-65802858D01*
X149393529Y-65654899D01*
X149482499Y-65521745D01*
X149595745Y-65408499D01*
X149728899Y-65319529D01*
X149876858Y-65258242D01*
X150033925Y-65227000D01*
X150194075Y-65227000D01*
X150351142Y-65258242D01*
G37*
G36*
X116834228Y-62681703D02*
G01*
X116989100Y-62745853D01*
X117128481Y-62838985D01*
X117247015Y-62957519D01*
X117340147Y-63096900D01*
X117404297Y-63251772D01*
X117437000Y-63416184D01*
X117437000Y-63583816D01*
X117404297Y-63748228D01*
X117340147Y-63903100D01*
X117247015Y-64042481D01*
X117128481Y-64161015D01*
X116989100Y-64254147D01*
X116834228Y-64318297D01*
X116669816Y-64351000D01*
X116502184Y-64351000D01*
X116337772Y-64318297D01*
X116182900Y-64254147D01*
X116043519Y-64161015D01*
X115924985Y-64042481D01*
X115831853Y-63903100D01*
X115767703Y-63748228D01*
X115735000Y-63583816D01*
X115735000Y-63416184D01*
X115767703Y-63251772D01*
X115831853Y-63096900D01*
X115924985Y-62957519D01*
X116043519Y-62838985D01*
X116182900Y-62745853D01*
X116337772Y-62681703D01*
X116502184Y-62649000D01*
X116669816Y-62649000D01*
X116834228Y-62681703D01*
G37*
G36*
X132074228Y-62681703D02*
G01*
X132229100Y-62745853D01*
X132368481Y-62838985D01*
X132487015Y-62957519D01*
X132580147Y-63096900D01*
X132644297Y-63251772D01*
X132677000Y-63416184D01*
X132677000Y-63583816D01*
X132644297Y-63748228D01*
X132580147Y-63903100D01*
X132487015Y-64042481D01*
X132368481Y-64161015D01*
X132229100Y-64254147D01*
X132074228Y-64318297D01*
X131909816Y-64351000D01*
X131742184Y-64351000D01*
X131577772Y-64318297D01*
X131422900Y-64254147D01*
X131283519Y-64161015D01*
X131164985Y-64042481D01*
X131071853Y-63903100D01*
X131007703Y-63748228D01*
X130975000Y-63583816D01*
X130975000Y-63416184D01*
X131007703Y-63251772D01*
X131071853Y-63096900D01*
X131164985Y-62957519D01*
X131283519Y-62838985D01*
X131422900Y-62745853D01*
X131577772Y-62681703D01*
X131742184Y-62649000D01*
X131909816Y-62649000D01*
X132074228Y-62681703D01*
G37*
G36*
X142731142Y-62718242D02*
G01*
X142879101Y-62779529D01*
X143012255Y-62868499D01*
X143125501Y-62981745D01*
X143214471Y-63114899D01*
X143275758Y-63262858D01*
X143307000Y-63419925D01*
X143307000Y-63580075D01*
X143275758Y-63737142D01*
X143214471Y-63885101D01*
X143125501Y-64018255D01*
X143012255Y-64131501D01*
X142879101Y-64220471D01*
X142731142Y-64281758D01*
X142574075Y-64313000D01*
X142413925Y-64313000D01*
X142256858Y-64281758D01*
X142108899Y-64220471D01*
X141975745Y-64131501D01*
X141862499Y-64018255D01*
X141773529Y-63885101D01*
X141712242Y-63737142D01*
X141681000Y-63580075D01*
X141681000Y-63419925D01*
X141712242Y-63262858D01*
X141773529Y-63114899D01*
X141862499Y-62981745D01*
X141975745Y-62868499D01*
X142108899Y-62779529D01*
X142256858Y-62718242D01*
X142413925Y-62687000D01*
X142574075Y-62687000D01*
X142731142Y-62718242D01*
G37*
G36*
X145271142Y-62718242D02*
G01*
X145419101Y-62779529D01*
X145552255Y-62868499D01*
X145665501Y-62981745D01*
X145754471Y-63114899D01*
X145815758Y-63262858D01*
X145847000Y-63419925D01*
X145847000Y-63580075D01*
X145815758Y-63737142D01*
X145754471Y-63885101D01*
X145665501Y-64018255D01*
X145552255Y-64131501D01*
X145419101Y-64220471D01*
X145271142Y-64281758D01*
X145114075Y-64313000D01*
X144953925Y-64313000D01*
X144796858Y-64281758D01*
X144648899Y-64220471D01*
X144515745Y-64131501D01*
X144402499Y-64018255D01*
X144313529Y-63885101D01*
X144252242Y-63737142D01*
X144221000Y-63580075D01*
X144221000Y-63419925D01*
X144252242Y-63262858D01*
X144313529Y-63114899D01*
X144402499Y-62981745D01*
X144515745Y-62868499D01*
X144648899Y-62779529D01*
X144796858Y-62718242D01*
X144953925Y-62687000D01*
X145114075Y-62687000D01*
X145271142Y-62718242D01*
G37*
G36*
X150351142Y-62718242D02*
G01*
X150499101Y-62779529D01*
X150632255Y-62868499D01*
X150745501Y-62981745D01*
X150834471Y-63114899D01*
X150895758Y-63262858D01*
X150927000Y-63419925D01*
X150927000Y-63580075D01*
X150895758Y-63737142D01*
X150834471Y-63885101D01*
X150745501Y-64018255D01*
X150632255Y-64131501D01*
X150499101Y-64220471D01*
X150351142Y-64281758D01*
X150194075Y-64313000D01*
X150033925Y-64313000D01*
X149876858Y-64281758D01*
X149728899Y-64220471D01*
X149595745Y-64131501D01*
X149482499Y-64018255D01*
X149393529Y-63885101D01*
X149332242Y-63737142D01*
X149301000Y-63580075D01*
X149301000Y-63419925D01*
X149332242Y-63262858D01*
X149393529Y-63114899D01*
X149482499Y-62981745D01*
X149595745Y-62868499D01*
X149728899Y-62779529D01*
X149876858Y-62718242D01*
X150033925Y-62687000D01*
X150194075Y-62687000D01*
X150351142Y-62718242D01*
G37*
G36*
X147811142Y-62718242D02*
G01*
X147959101Y-62779529D01*
X148092255Y-62868499D01*
X148205501Y-62981745D01*
X148294471Y-63114899D01*
X148355758Y-63262858D01*
X148387000Y-63419925D01*
X148387000Y-63580075D01*
X148355758Y-63737142D01*
X148294471Y-63885101D01*
X148205501Y-64018255D01*
X148092255Y-64131501D01*
X147959101Y-64220471D01*
X147811142Y-64281758D01*
X147654075Y-64313000D01*
X147493925Y-64313000D01*
X147336858Y-64281758D01*
X147188899Y-64220471D01*
X147055745Y-64131501D01*
X146942499Y-64018255D01*
X146853529Y-63885101D01*
X146792242Y-63737142D01*
X146761000Y-63580075D01*
X146761000Y-63419925D01*
X146792242Y-63262858D01*
X146853529Y-63114899D01*
X146942499Y-62981745D01*
X147055745Y-62868499D01*
X147188899Y-62779529D01*
X147336858Y-62718242D01*
X147493925Y-62687000D01*
X147654075Y-62687000D01*
X147811142Y-62718242D01*
G37*
G36*
X132074228Y-60141703D02*
G01*
X132229100Y-60205853D01*
X132368481Y-60298985D01*
X132487015Y-60417519D01*
X132580147Y-60556900D01*
X132644297Y-60711772D01*
X132677000Y-60876184D01*
X132677000Y-61043816D01*
X132644297Y-61208228D01*
X132580147Y-61363100D01*
X132487015Y-61502481D01*
X132368481Y-61621015D01*
X132229100Y-61714147D01*
X132074228Y-61778297D01*
X131909816Y-61811000D01*
X131742184Y-61811000D01*
X131577772Y-61778297D01*
X131422900Y-61714147D01*
X131283519Y-61621015D01*
X131164985Y-61502481D01*
X131071853Y-61363100D01*
X131007703Y-61208228D01*
X130975000Y-61043816D01*
X130975000Y-60876184D01*
X131007703Y-60711772D01*
X131071853Y-60556900D01*
X131164985Y-60417519D01*
X131283519Y-60298985D01*
X131422900Y-60205853D01*
X131577772Y-60141703D01*
X131742184Y-60109000D01*
X131909816Y-60109000D01*
X132074228Y-60141703D01*
G37*
G36*
X116834228Y-60141703D02*
G01*
X116989100Y-60205853D01*
X117128481Y-60298985D01*
X117247015Y-60417519D01*
X117340147Y-60556900D01*
X117404297Y-60711772D01*
X117437000Y-60876184D01*
X117437000Y-61043816D01*
X117404297Y-61208228D01*
X117340147Y-61363100D01*
X117247015Y-61502481D01*
X117128481Y-61621015D01*
X116989100Y-61714147D01*
X116834228Y-61778297D01*
X116669816Y-61811000D01*
X116502184Y-61811000D01*
X116337772Y-61778297D01*
X116182900Y-61714147D01*
X116043519Y-61621015D01*
X115924985Y-61502481D01*
X115831853Y-61363100D01*
X115767703Y-61208228D01*
X115735000Y-61043816D01*
X115735000Y-60876184D01*
X115767703Y-60711772D01*
X115831853Y-60556900D01*
X115924985Y-60417519D01*
X116043519Y-60298985D01*
X116182900Y-60205853D01*
X116337772Y-60141703D01*
X116502184Y-60109000D01*
X116669816Y-60109000D01*
X116834228Y-60141703D01*
G37*
G36*
X93178794Y-59372155D02*
G01*
X93285150Y-59393311D01*
X93385334Y-59434809D01*
X93485520Y-59476307D01*
X93665844Y-59596795D01*
X93819205Y-59750156D01*
X93939693Y-59930480D01*
X94022689Y-60130851D01*
X94065000Y-60343560D01*
X94065000Y-60560440D01*
X94022689Y-60773149D01*
X93939693Y-60973520D01*
X93819205Y-61153844D01*
X93665844Y-61307205D01*
X93485520Y-61427693D01*
X93385334Y-61469191D01*
X93285150Y-61510689D01*
X93178794Y-61531845D01*
X93072440Y-61553000D01*
X92855560Y-61553000D01*
X92749206Y-61531845D01*
X92642850Y-61510689D01*
X92542666Y-61469191D01*
X92442480Y-61427693D01*
X92262156Y-61307205D01*
X92108795Y-61153844D01*
X91988307Y-60973520D01*
X91905311Y-60773149D01*
X91863000Y-60560440D01*
X91863000Y-60343560D01*
X91905311Y-60130851D01*
X91988307Y-59930480D01*
X92108795Y-59750156D01*
X92262156Y-59596795D01*
X92442480Y-59476307D01*
X92542666Y-59434809D01*
X92642850Y-59393311D01*
X92749206Y-59372155D01*
X92855560Y-59351000D01*
X93072440Y-59351000D01*
X93178794Y-59372155D01*
G37*
G36*
X159218794Y-59118155D02*
G01*
X159325150Y-59139311D01*
X159425334Y-59180809D01*
X159525520Y-59222307D01*
X159705844Y-59342795D01*
X159859205Y-59496156D01*
X159979693Y-59676480D01*
X160062689Y-59876851D01*
X160105000Y-60089560D01*
X160105000Y-60306440D01*
X160062689Y-60519149D01*
X159979693Y-60719520D01*
X159859205Y-60899844D01*
X159705844Y-61053205D01*
X159525520Y-61173693D01*
X159442145Y-61208228D01*
X159325150Y-61256689D01*
X159218795Y-61277844D01*
X159112440Y-61299000D01*
X158895560Y-61299000D01*
X158789205Y-61277844D01*
X158682850Y-61256689D01*
X158565855Y-61208228D01*
X158482480Y-61173693D01*
X158302156Y-61053205D01*
X158148795Y-60899844D01*
X158028307Y-60719520D01*
X157945311Y-60519149D01*
X157903000Y-60306440D01*
X157903000Y-60089560D01*
X157945311Y-59876851D01*
X158028307Y-59676480D01*
X158148795Y-59496156D01*
X158302156Y-59342795D01*
X158482480Y-59222307D01*
X158582666Y-59180809D01*
X158682850Y-59139311D01*
X158789206Y-59118155D01*
X158895560Y-59097000D01*
X159112440Y-59097000D01*
X159218794Y-59118155D01*
G37*
M02*
