<?xml version="1.0" standalone="no"?>
<!DOCTYPE svg PUBLIC "-//W3C//DTD SVG 20010904//EN"
 "http://www.w3.org/TR/2001/REC-SVG-20010904/DTD/svg10.dtd">
<svg version="1.0" xmlns="http://www.w3.org/2000/svg"
 width="737.000000pt" height="339.000000pt" viewBox="0 0 737.000000 339.000000"
 preserveAspectRatio="xMidYMid meet">

<g transform="translate(0.000000,339.000000) scale(0.100000,-0.100000)"
fill="#000000" stroke="none">
<path d="M1915 2853 c-43 -7 -108 -58 -136 -106 -18 -33 -24 -57 -24 -107 1
-76 27 -126 91 -175 l39 -30 535 -3 c294 -2 545 0 558 3 27 7 29 40 3 55 -12
6 -130 10 -314 10 l-295 0 -4 160 c-3 137 -6 162 -21 177 -16 16 -40 18 -210
19 -106 1 -205 -1 -222 -3z"/>
<path d="M2440 2680 l0 -140 196 0 c115 0 203 4 215 10 45 25 11 60 -128 132
-24 12 -43 26 -43 30 0 4 -9 8 -19 8 -11 0 -23 5 -27 11 -3 6 -21 18 -38 26
-17 8 -49 25 -71 38 -22 14 -50 25 -62 25 -23 0 -23 -1 -23 -140z"/>
<path d="M1514 2601 c-21 -16 -79 -68 -128 -115 -49 -47 -91 -86 -93 -86 -9 0
-123 -120 -123 -129 0 -12 61 -86 106 -128 19 -18 34 -36 34 -40 0 -5 18 -24
40 -43 22 -19 40 -38 40 -42 0 -12 91 -98 104 -98 12 0 103 76 159 132 15 15
31 28 35 28 4 0 23 18 42 40 19 22 38 40 41 40 4 0 27 20 53 44 71 69 72 128
3 161 -91 44 -131 85 -175 179 -44 95 -72 106 -138 57z"/>
<path d="M420 2178 c-19 -21 -20 -33 -20 -423 0 -346 2 -404 16 -423 14 -20
23 -22 113 -22 82 0 101 3 114 18 15 17 17 61 17 424 l0 405 -23 21 c-20 19
-35 22 -110 22 -76 0 -89 -3 -107 -22z"/>
<path d="M746 2178 c-14 -19 -16 -77 -16 -429 0 -381 1 -407 18 -422 15 -14
40 -17 133 -17 149 0 174 8 248 79 34 32 61 61 61 64 0 3 36 41 79 84 93 92
141 163 141 209 0 30 -17 82 -30 94 -3 3 -16 18 -28 34 -27 35 -181 204 -240
262 -54 55 -89 64 -234 64 -109 0 -118 -1 -132 -22z"/>
<path d="M4503 1822 c-29 -19 -33 -70 -33 -462 0 -282 3 -407 12 -425 11 -24
14 -25 108 -25 l96 0 12 33 c7 18 12 79 12 136 0 95 2 104 25 126 l24 25 261
0 261 0 24 -26 c23 -25 25 -34 25 -135 0 -59 4 -119 10 -133 9 -25 12 -26 103
-26 91 0 94 1 105 25 8 18 12 115 12 309 0 333 6 316 -106 316 -94 0 -109 -6
-120 -43 -15 -53 -34 -57 -309 -57 -137 0 -260 3 -272 6 -31 9 -49 56 -33 93
9 22 20 30 48 35 20 3 199 6 397 6 425 0 395 -9 395 116 0 124 46 114 -544
114 -276 0 -506 -4 -513 -8z"/>
<path d="M5878 1823 c-9 -2 -21 -18 -27 -35 -16 -45 -15 -818 1 -853 11 -24
14 -25 107 -25 94 0 96 1 109 27 7 16 12 69 12 134 0 99 2 108 25 133 l24 26
389 0 389 0 11 25 c8 18 12 109 12 282 0 249 -1 256 -22 274 -20 18 -46 19
-517 18 -273 -1 -504 -3 -513 -6z m801 -247 c24 -22 27 -64 7 -92 -13 -18 -30
-19 -268 -22 -139 -2 -267 -1 -284 3 -64 12 -69 118 -6 128 15 3 140 4 278 3
233 -1 254 -2 273 -20z"/>
<path d="M1435 1534 c-22 -24 -56 -61 -76 -82 -81 -85 -189 -212 -189 -223 0
-13 103 -113 324 -315 42 -38 55 -45 85 -42 33 3 39 8 63 58 15 30 28 60 28
66 0 21 98 110 148 134 54 27 71 56 56 102 -7 24 -18 35 -150 154 -176 158
-219 194 -234 193 -8 0 -33 -20 -55 -45z"/>
<path d="M2853 1553 c-10 -3 -13 -52 -13 -193 0 -177 1 -190 19 -200 13 -6
149 -10 375 -10 l355 0 15 22 c13 18 16 54 16 186 0 93 -4 172 -10 183 -9 16
-22 19 -73 19 -34 0 -69 -5 -77 -10 -11 -7 -16 -36 -20 -112 -6 -133 0 -129
-221 -126 -209 4 -209 4 -209 119 0 43 -4 89 -10 103 -9 24 -14 26 -72 25 -35
0 -69 -3 -75 -6z"/>
<path d="M3666 1544 c-10 -10 -16 -33 -16 -63 0 -82 -4 -81 304 -81 165 0 275
-4 287 -10 20 -11 25 -45 9 -70 -8 -12 -42 -15 -204 -15 -186 0 -196 1 -225
23 -43 32 -133 32 -155 0 -24 -34 -22 -169 2 -191 29 -26 104 -22 158 8 43 24
52 25 220 25 102 0 183 -4 195 -10 21 -12 25 -41 9 -71 -10 -18 -24 -19 -290
-19 -277 0 -279 0 -294 -22 -18 -26 -21 -90 -6 -119 10 -18 25 -19 385 -19
360 0 375 1 385 19 6 12 10 129 10 310 0 250 -2 292 -16 305 -13 14 -62 16
-379 16 -317 0 -366 -2 -379 -16z"/>
<path d="M5632 1552 c-9 -7 -12 -78 -10 -323 l3 -314 80 -3 c66 -2 82 0 92 14
10 14 13 91 13 316 0 284 -1 298 -19 308 -23 12 -140 13 -159 2z"/>
<path d="M6532 1155 c-13 -16 -18 -33 -14 -48 3 -12 44 -61 91 -109 l85 -88
113 0 c109 0 114 1 124 24 16 34 -7 71 -103 165 l-82 81 -97 0 c-92 0 -99 -1
-117 -25z"/>
<path d="M3161 1086 c-8 -9 -11 -43 -9 -93 l3 -78 70 -3 c85 -4 95 6 95 93 0
79 -15 95 -92 95 -36 0 -60 -5 -67 -14z"/>
<path d="M1854 1038 c-95 -64 -128 -174 -81 -268 28 -57 57 -87 110 -111 37
-16 67 -19 237 -18 260 0 244 -13 248 200 l4 159 303 0 c324 0 335 2 320 50
-6 20 -11 20 -550 20 l-543 0 -48 -32z"/>
<path d="M2440 815 c0 -150 6 -163 57 -128 15 10 53 32 83 48 30 15 57 31 60
35 3 4 19 13 35 22 17 8 48 25 70 38 22 13 52 29 66 37 37 19 62 50 56 68 -6
13 -37 15 -217 15 l-210 0 0 -135z"/>
</g>
</svg>
