  0
SECTION
  2
HEADER
  9
$ACADVER
  1
AC1009
  9
$FILLMODE
 70
 0
  9
$SPLFRAME
 70
 1
  9
$EXTMIN
 10
0
 20
0
 30
0.0
  9
$EXTMAX
 10
41.6667
 20
41.6667
 30
0.0
  0
ENDSEC
  0
SECTION
  2
TABLES
  0
TABLE
  2
LAYER
 70
1
  0
LAYER
  2
0
 70
     0
 62
     7
  6
CONTINUOUS
  0
ENDTAB
  0
ENDSEC
  0
SECTION
  2
ENTITIES
  0
POLYLINE
  8
0
 62
     0
 66
     1
 10
0
 20
0
 30
0.0
 70
     1
 40
0
 41
0
  0
VERTEX
  8
0
 10
2.65972
 20
3.96251
 30
0.0
 40
0
 41
0
  0
VERTEX
  8
0
 10
2.64703
 20
3.96044
 30
0.0
 40
0
 41
0
  0
VERTEX
  8
0
 10
2.61046
 20
3.94482
 30
0.0
 40
0
 41
0
  0
VERTEX
  8
0
 10
2.55746
 20
3.91026
 30
0.0
 40
0
 41
0
  0
VERTEX
  8
0
 10
2.50831
 20
3.86507
 30
0.0
 40
0
 41
0
  0
VERTEX
  8
0
 10
2.47857
 20
3.82867
 30
0.0
 40
0
 41
0
  0
VERTEX
  8
0
 10
2.47081
 20
3.81526
 30
0.0
 40
0
 41
0
  0
VERTEX
  8
0
 10
2.46647
 20
3.80735
 30
0.0
 40
0
 41
0
  0
VERTEX
  8
0
 10
2.45508
 20
3.7825
 30
0.0
 40
0
 41
0
  0
VERTEX
  8
0
 10
2.44476
 20
3.74983
 30
0.0
 40
0
 41
0
  0
VERTEX
  8
0
 10
2.43918
 20
3.71278
 30
0.0
 40
0
 41
0
  0
VERTEX
  8
0
 10
2.4375
 20
3.67822
 30
0.0
 40
0
 41
0
  0
VERTEX
  8
0
 10
2.4375
 20
3.66667
 30
0.0
 40
0
 41
0
  0
VERTEX
  8
0
 10
2.43772
 20
3.64844
 30
0.0
 40
0
 41
0
  0
VERTEX
  8
0
 10
2.44532
 20
3.59375
 30
0.0
 40
0
 41
0
  0
VERTEX
  8
0
 10
2.46789
 20
3.53108
 30
0.0
 40
0
 41
0
  0
VERTEX
  8
0
 10
2.50683
 20
3.47547
 30
0.0
 40
0
 41
0
  0
VERTEX
  8
0
 10
2.54867
 20
3.43528
 30
0.0
 40
0
 41
0
  0
VERTEX
  8
0
 10
2.56392
 20
3.42361
 30
0.0
 40
0
 41
0
  0
VERTEX
  8
0
 10
2.61806
 20
3.38194
 30
0.0
 40
0
 41
0
  0
VERTEX
  8
0
 10
3.36111
 20
3.37776
 30
0.0
 40
0
 41
0
  0
VERTEX
  8
0
 10
3.39849
 20
3.37756
 30
0.0
 40
0
 41
0
  0
VERTEX
  8
0
 10
3.51085
 20
3.37701
 30
0.0
 40
0
 41
0
  0
VERTEX
  8
0
 10
3.65192
 20
3.37668
 30
0.0
 40
0
 41
0
  0
VERTEX
  8
0
 10
3.78097
 20
3.37679
 30
0.0
 40
0
 41
0
  0
VERTEX
  8
0
 10
3.89492
 20
3.37728
 30
0.0
 40
0
 41
0
  0
VERTEX
  8
0
 10
3.99061
 20
3.3781
 30
0.0
 40
0
 41
0
  0
VERTEX
  8
0
 10
4.06478
 20
3.37918
 30
0.0
 40
0
 41
0
  0
VERTEX
  8
0
 10
4.11436
 20
3.38049
 30
0.0
 40
0
 41
0
  0
VERTEX
  8
0
 10
4.13157
 20
3.38092
 30
0.0
 40
0
 41
0
  0
VERTEX
  8
0
 10
4.13612
 20
3.38194
 30
0.0
 40
0
 41
0
  0
VERTEX
  8
0
 10
4.14193
 20
3.38346
 30
0.0
 40
0
 41
0
  0
VERTEX
  8
0
 10
4.15767
 20
3.39507
 30
0.0
 40
0
 41
0
  0
VERTEX
  8
0
 10
4.16581
 20
3.41601
 30
0.0
 40
0
 41
0
  0
VERTEX
  8
0
 10
4.1601
 20
3.43901
 30
0.0
 40
0
 41
0
  0
VERTEX
  8
0
 10
4.14606
 20
3.45503
 30
0.0
 40
0
 41
0
  0
VERTEX
  8
0
 10
4.14031
 20
3.45833
 30
0.0
 40
0
 41
0
  0
VERTEX
  8
0
 10
4.13612
 20
3.46044
 30
0.0
 40
0
 41
0
  0
VERTEX
  8
0
 10
4.10101
 20
3.46403
 30
0.0
 40
0
 41
0
  0
VERTEX
  8
0
 10
4.01178
 20
3.46843
 30
0.0
 40
0
 41
0
  0
VERTEX
  8
0
 10
3.87776
 20
3.47125
 30
0.0
 40
0
 41
0
  0
VERTEX
  8
0
 10
3.74756
 20
3.47222
 30
0.0
 40
0
 41
0
  0
VERTEX
  8
0
 10
3.70415
 20
3.47222
 30
0.0
 40
0
 41
0
  0
VERTEX
  8
0
 10
3.29443
 20
3.47222
 30
0.0
 40
0
 41
0
  0
VERTEX
  8
0
 10
3.2889
 20
3.69444
 30
0.0
 40
0
 41
0
  0
VERTEX
  8
0
 10
3.28825
 20
3.72342
 30
0.0
 40
0
 41
0
  0
VERTEX
  8
0
 10
3.28549
 20
3.81022
 30
0.0
 40
0
 41
0
  0
VERTEX
  8
0
 10
3.28054
 20
3.88092
 30
0.0
 40
0
 41
0
  0
VERTEX
  8
0
 10
3.27246
 20
3.91986
 30
0.0
 40
0
 41
0
  0
VERTEX
  8
0
 10
3.26383
 20
3.93614
 30
0.0
 40
0
 41
0
  0
VERTEX
  8
0
 10
3.25971
 20
3.94026
 30
0.0
 40
0
 41
0
  0
VERTEX
  8
0
 10
3.25532
 20
3.94467
 30
0.0
 40
0
 41
0
  0
VERTEX
  8
0
 10
3.23796
 20
3.95361
 30
0.0
 40
0
 41
0
  0
VERTEX
  8
0
 10
3.19407
 20
3.96132
 30
0.0
 40
0
 41
0
  0
VERTEX
  8
0
 10
3.11008
 20
3.96511
 30
0.0
 40
0
 41
0
  0
VERTEX
  8
0
 10
3.00353
 20
3.96653
 30
0.0
 40
0
 41
0
  0
VERTEX
  8
0
 10
2.96804
 20
3.96669
 30
0.0
 40
0
 41
0
  0
VERTEX
  8
0
 10
2.94129
 20
3.96696
 30
0.0
 40
0
 41
0
  0
VERTEX
  8
0
 10
2.86106
 20
3.96701
 30
0.0
 40
0
 41
0
  0
VERTEX
  8
0
 10
2.76753
 20
3.96615
 30
0.0
 40
0
 41
0
  0
VERTEX
  8
0
 10
2.6971
 20
3.96457
 30
0.0
 40
0
 41
0
  0
VERTEX
  8
0
 10
2.66558
 20
3.96322
 30
0.0
 40
0
 41
0
  0
VERTEX
  8
0
 10
2.65972
 20
3.96251
 30
0.0
 40
0
 41
0
  0
SEQEND
 8
0
  0
POLYLINE
  8
0
 62
     0
 66
     1
 10
0
 20
0
 30
0.0
 70
     1
 40
0
 41
0
  0
VERTEX
  8
0
 10
3.38889
 20
3.72222
 30
0.0
 40
0
 41
0
  0
VERTEX
  8
0
 10
3.38889
 20
3.52778
 30
0.0
 40
0
 41
0
  0
VERTEX
  8
0
 10
3.66114
 20
3.52778
 30
0.0
 40
0
 41
0
  0
VERTEX
  8
0
 10
3.68901
 20
3.52778
 30
0.0
 40
0
 41
0
  0
VERTEX
  8
0
 10
3.77279
 20
3.52881
 30
0.0
 40
0
 41
0
  0
VERTEX
  8
0
 10
3.86404
 20
3.53162
 30
0.0
 40
0
 41
0
  0
VERTEX
  8
0
 10
3.9285
 20
3.53603
 30
0.0
 40
0
 41
0
  0
VERTEX
  8
0
 10
3.95557
 20
3.53961
 30
0.0
 40
0
 41
0
  0
VERTEX
  8
0
 10
3.95975
 20
3.54167
 30
0.0
 40
0
 41
0
  0
VERTEX
  8
0
 10
3.96463
 20
3.54443
 30
0.0
 40
0
 41
0
  0
VERTEX
  8
0
 10
3.97792
 20
3.55544
 30
0.0
 40
0
 41
0
  0
VERTEX
  8
0
 10
3.98546
 20
3.5709
 30
0.0
 40
0
 41
0
  0
VERTEX
  8
0
 10
3.98182
 20
3.5886
 30
0.0
 40
0
 41
0
  0
VERTEX
  8
0
 10
3.96664
 20
3.60889
 30
0.0
 40
0
 41
0
  0
VERTEX
  8
0
 10
3.93951
 20
3.63222
 30
0.0
 40
0
 41
0
  0
VERTEX
  8
0
 10
3.89996
 20
3.65907
 30
0.0
 40
0
 41
0
  0
VERTEX
  8
0
 10
3.84754
 20
3.68983
 30
0.0
 40
0
 41
0
  0
VERTEX
  8
0
 10
3.79844
 20
3.71647
 30
0.0
 40
0
 41
0
  0
VERTEX
  8
0
 10
3.78196
 20
3.72499
 30
0.0
 40
0
 41
0
  0
VERTEX
  8
0
 10
3.77599
 20
3.72797
 30
0.0
 40
0
 41
0
  0
VERTEX
  8
0
 10
3.75851
 20
3.73779
 30
0.0
 40
0
 41
0
  0
VERTEX
  8
0
 10
3.73953
 20
3.75
 30
0.0
 40
0
 41
0
  0
VERTEX
  8
0
 10
3.72683
 20
3.76019
 30
0.0
 40
0
 41
0
  0
VERTEX
  8
0
 10
3.72222
 20
3.76508
 30
0.0
 40
0
 41
0
  0
VERTEX
  8
0
 10
3.72222
 20
3.76665
 30
0.0
 40
0
 41
0
  0
VERTEX
  8
0
 10
3.72222
 20
3.76861
 30
0.0
 40
0
 41
0
  0
VERTEX
  8
0
 10
3.71425
 20
3.77436
 30
0.0
 40
0
 41
0
  0
VERTEX
  8
0
 10
3.70042
 20
3.77778
 30
0.0
 40
0
 41
0
  0
VERTEX
  8
0
 10
3.69586
 20
3.77778
 30
0.0
 40
0
 41
0
  0
VERTEX
  8
0
 10
3.69021
 20
3.77778
 30
0.0
 40
0
 41
0
  0
VERTEX
  8
0
 10
3.67339
 20
3.78233
 30
0.0
 40
0
 41
0
  0
VERTEX
  8
0
 10
3.65967
 20
3.79101
 30
0.0
 40
0
 41
0
  0
VERTEX
  8
0
 10
3.65831
 20
3.79308
 30
0.0
 40
0
 41
0
  0
VERTEX
  8
0
 10
3.65728
 20
3.79519
 30
0.0
 40
0
 41
0
  0
VERTEX
  8
0
 10
3.63921
 20
3.81006
 30
0.0
 40
0
 41
0
  0
VERTEX
  8
0
 10
3.61143
 20
3.82639
 30
0.0
 40
0
 41
0
  0
VERTEX
  8
0
 10
3.60558
 20
3.82915
 30
0.0
 40
0
 41
0
  0
VERTEX
  8
0
 10
3.59967
 20
3.83197
 30
0.0
 40
0
 41
0
  0
VERTEX
  8
0
 10
3.55881
 20
3.85297
 30
0.0
 40
0
 41
0
  0
VERTEX
  8
0
 10
3.51454
 20
3.87744
 30
0.0
 40
0
 41
0
  0
VERTEX
  8
0
 10
3.50694
 20
3.88194
 30
0.0
 40
0
 41
0
  0
VERTEX
  8
0
 10
3.50108
 20
3.88569
 30
0.0
 40
0
 41
0
  0
VERTEX
  8
0
 10
3.48292
 20
3.89561
 30
0.0
 40
0
 41
0
  0
VERTEX
  8
0
 10
3.45865
 20
3.90663
 30
0.0
 40
0
 41
0
  0
VERTEX
  8
0
 10
3.43701
 20
3.91401
 30
0.0
 40
0
 41
0
  0
VERTEX
  8
0
 10
3.42486
 20
3.91667
 30
0.0
 40
0
 41
0
  0
VERTEX
  8
0
 10
3.42085
 20
3.91667
 30
0.0
 40
0
 41
0
  0
VERTEX
  8
0
 10
3.41818
 20
3.91667
 30
0.0
 40
0
 41
0
  0
VERTEX
  8
0
 10
3.41026
 20
3.91624
 30
0.0
 40
0
 41
0
  0
VERTEX
  8
0
 10
3.40235
 20
3.91347
 30
0.0
 40
0
 41
0
  0
VERTEX
  8
0
 10
3.39665
 20
3.90608
 30
0.0
 40
0
 41
0
  0
VERTEX
  8
0
 10
3.39285
 20
3.89187
 30
0.0
 40
0
 41
0
  0
VERTEX
  8
0
 10
3.39057
 20
3.8686
 30
0.0
 40
0
 41
0
  0
VERTEX
  8
0
 10
3.38938
 20
3.8341
 30
0.0
 40
0
 41
0
  0
VERTEX
  8
0
 10
3.38894
 20
3.78603
 30
0.0
 40
0
 41
0
  0
VERTEX
  8
0
 10
3.38889
 20
3.73817
 30
0.0
 40
0
 41
0
  0
VERTEX
  8
0
 10
3.38889
 20
3.72222
 30
0.0
 40
0
 41
0
  0
SEQEND
 8
0
  0
POLYLINE
  8
0
 62
     0
 66
     1
 10
0
 20
0
 30
0.0
 70
     1
 40
0
 41
0
  0
VERTEX
  8
0
 10
2.10275
 20
3.61253
 30
0.0
 40
0
 41
0
  0
VERTEX
  8
0
 10
2.09543
 20
3.60699
 30
0.0
 40
0
 41
0
  0
VERTEX
  8
0
 10
2.07221
 20
3.5874
 30
0.0
 40
0
 41
0
  0
VERTEX
  8
0
 10
2.02843
 20
3.54883
 30
0.0
 40
0
 41
0
  0
VERTEX
  8
0
 10
1.97738
 20
3.50217
 30
0.0
 40
0
 41
0
  0
VERTEX
  8
0
 10
1.93799
 20
3.46528
 30
0.0
 40
0
 41
0
  0
VERTEX
  8
0
 10
1.92503
 20
3.45281
 30
0.0
 40
0
 41
0
  0
VERTEX
  8
0
 10
1.91292
 20
3.44125
 30
0.0
 40
0
 41
0
  0
VERTEX
  8
0
 10
1.87646
 20
3.40657
 30
0.0
 40
0
 41
0
  0
VERTEX
  8
0
 10
1.83594
 20
3.3686
 30
0.0
 40
0
 41
0
  0
VERTEX
  8
0
 10
1.80761
 20
3.34283
 30
0.0
 40
0
 41
0
  0
VERTEX
  8
0
 10
1.79878
 20
3.33333
 30
0.0
 40
0
 41
0
  0
VERTEX
  8
0
 10
1.79585
 20
3.33333
 30
0.0
 40
0
 41
0
  0
VERTEX
  8
0
 10
1.79308
 20
3.33333
 30
0.0
 40
0
 41
0
  0
VERTEX
  8
0
 10
1.78489
 20
3.32617
 30
0.0
 40
0
 41
0
  0
VERTEX
  8
0
 10
1.76383
 20
3.30713
 30
0.0
 40
0
 41
0
  0
VERTEX
  8
0
 10
1.73628
 20
3.27994
 30
0.0
 40
0
 41
0
  0
VERTEX
  8
0
 10
1.70568
 20
3.24849
 30
0.0
 40
0
 41
0
  0
VERTEX
  8
0
 10
1.67572
 20
3.21636
 30
0.0
 40
0
 41
0
  0
VERTEX
  8
0
 10
1.6499
 20
3.18744
 30
0.0
 40
0
 41
0
  0
VERTEX
  8
0
 10
1.63178
 20
3.16547
 30
0.0
 40
0
 41
0
  0
VERTEX
  8
0
 10
1.625
 20
3.15701
 30
0.0
 40
0
 41
0
  0
VERTEX
  8
0
 10
1.625
 20
3.15419
 30
0.0
 40
0
 41
0
  0
VERTEX
  8
0
 10
1.625
 20
3.15169
 30
0.0
 40
0
 41
0
  0
VERTEX
  8
0
 10
1.62875
 20
3.14415
 30
0.0
 40
0
 41
0
  0
VERTEX
  8
0
 10
1.63921
 20
3.12761
 30
0.0
 40
0
 41
0
  0
VERTEX
  8
0
 10
1.65506
 20
3.10601
 30
0.0
 40
0
 41
0
  0
VERTEX
  8
0
 10
1.67518
 20
3.08094
 30
0.0
 40
0
 41
0
  0
VERTEX
  8
0
 10
1.69819
 20
3.05393
 30
0.0
 40
0
 41
0
  0
VERTEX
  8
0
 10
1.72282
 20
3.02647
 30
0.0
 40
0
 41
0
  0
VERTEX
  8
0
 10
1.74794
 20
3.00011
 30
0.0
 40
0
 41
0
  0
VERTEX
  8
0
 10
1.766
 20
2.98221
 30
0.0
 40
0
 41
0
  0
VERTEX
  8
0
 10
1.77225
 20
2.9764
 30
0.0
 40
0
 41
0
  0
VERTEX
  8
0
 10
1.77696
 20
2.97194
 30
0.0
 40
0
 41
0
  0
VERTEX
  8
0
 10
1.79069
 20
2.95796
 30
0.0
 40
0
 41
0
  0
VERTEX
  8
0
 10
1.80572
 20
2.94135
 30
0.0
 40
0
 41
0
  0
VERTEX
  8
0
 10
1.81575
 20
2.92839
 30
0.0
 40
0
 41
0
  0
VERTEX
  8
0
 10
1.81944
 20
2.92275
 30
0.0
 40
0
 41
0
  0
VERTEX
  8
0
 10
1.81944
 20
2.92085
 30
0.0
 40
0
 41
0
  0
VERTEX
  8
0
 10
1.81944
 20
2.91872
 30
0.0
 40
0
 41
0
  0
VERTEX
  8
0
 10
1.82379
 20
2.91233
 30
0.0
 40
0
 41
0
  0
VERTEX
  8
0
 10
1.83572
 20
2.89828
 30
0.0
 40
0
 41
0
  0
VERTEX
  8
0
 10
1.8534
 20
2.88064
 30
0.0
 40
0
 41
0
  0
VERTEX
  8
0
 10
1.86947
 20
2.86589
 30
0.0
 40
0
 41
0
  0
VERTEX
  8
0
 10
1.875
 20
2.86111
 30
0.0
 40
0
 41
0
  0
VERTEX
  8
0
 10
1.88049
 20
2.85639
 30
0.0
 40
0
 41
0
  0
VERTEX
  8
0
 10
1.89654
 20
2.84169
 30
0.0
 40
0
 41
0
  0
VERTEX
  8
0
 10
1.91422
 20
2.82417
 30
0.0
 40
0
 41
0
  0
VERTEX
  8
0
 10
1.92617
 20
2.81054
 30
0.0
 40
0
 41
0
  0
VERTEX
  8
0
 10
1.93056
 20
2.80474
 30
0.0
 40
0
 41
0
  0
VERTEX
  8
0
 10
1.93056
 20
2.80279
 30
0.0
 40
0
 41
0
  0
VERTEX
  8
0
 10
1.93056
 20
2.80018
 30
0.0
 40
0
 41
0
  0
VERTEX
  8
0
 10
1.93599
 20
2.79221
 30
0.0
 40
0
 41
0
  0
VERTEX
  8
0
 10
1.95057
 20
2.77453
 30
0.0
 40
0
 41
0
  0
VERTEX
  8
0
 10
1.97146
 20
2.75244
 30
0.0
 40
0
 41
0
  0
VERTEX
  8
0
 10
1.99599
 20
2.72851
 30
0.0
 40
0
 41
0
  0
VERTEX
  8
0
 10
2.02132
 20
2.70535
 30
0.0
 40
0
 41
0
  0
VERTEX
  8
0
 10
2.04482
 20
2.6856
 30
0.0
 40
0
 41
0
  0
VERTEX
  8
0
 10
2.06358
 20
2.67188
 30
0.0
 40
0
 41
0
  0
VERTEX
  8
0
 10
2.0721
 20
2.66667
 30
0.0
 40
0
 41
0
  0
VERTEX
  8
0
 10
2.07497
 20
2.66667
 30
0.0
 40
0
 41
0
  0
VERTEX
  8
0
 10
2.07775
 20
2.66667
 30
0.0
 40
0
 41
0
  0
VERTEX
  8
0
 10
2.08604
 20
2.67139
 30
0.0
 40
0
 41
0
  0
VERTEX
  8
0
 10
2.10558
 20
2.6844
 30
0.0
 40
0
 41
0
  0
VERTEX
  8
0
 10
2.13167
 20
2.70421
 30
0.0
 40
0
 41
0
  0
VERTEX
  8
0
 10
2.16249
 20
2.72922
 30
0.0
 40
0
 41
0
  0
VERTEX
  8
0
 10
2.19613
 20
2.75786
 30
0.0
 40
0
 41
0
  0
VERTEX
  8
0
 10
2.23085
 20
2.78857
 30
0.0
 40
0
 41
0
  0
VERTEX
  8
0
 10
2.26465
 20
2.81982
 30
0.0
 40
0
 41
0
  0
VERTEX
  8
0
 10
2.28814
 20
2.84233
 30
0.0
 40
0
 41
0
  0
VERTEX
  8
0
 10
2.29585
 20
2.84999
 30
0.0
 40
0
 41
0
  0
VERTEX
  8
0
 10
2.30106
 20
2.85519
 30
0.0
 40
0
 41
0
  0
VERTEX
  8
0
 10
2.32585
 20
2.87728
 30
0.0
 40
0
 41
0
  0
VERTEX
  8
0
 10
2.33979
 20
2.88889
 30
0.0
 40
0
 41
0
  0
VERTEX
  8
0
 10
2.34446
 20
2.88889
 30
0.0
 40
0
 41
0
  0
VERTEX
  8
0
 10
2.34636
 20
2.88889
 30
0.0
 40
0
 41
0
  0
VERTEX
  8
0
 10
2.35215
 20
2.89328
 30
0.0
 40
0
 41
0
  0
VERTEX
  8
0
 10
2.36578
 20
2.90522
 30
0.0
 40
0
 41
0
  0
VERTEX
  8
0
 10
2.38331
 20
2.9229
 30
0.0
 40
0
 41
0
  0
VERTEX
  8
0
 10
2.398
 20
2.93896
 30
0.0
 40
0
 41
0
  0
VERTEX
  8
0
 10
2.40278
 20
2.94444
 30
0.0
 40
0
 41
0
  0
VERTEX
  8
0
 10
2.4075
 20
2.94997
 30
0.0
 40
0
 41
0
  0
VERTEX
  8
0
 10
2.42219
 20
2.96604
 30
0.0
 40
0
 41
0
  0
VERTEX
  8
0
 10
2.43956
 20
2.98372
 30
0.0
 40
0
 41
0
  0
VERTEX
  8
0
 10
2.45275
 20
2.99567
 30
0.0
 40
0
 41
0
  0
VERTEX
  8
0
 10
2.45796
 20
3
 30
0.0
 40
0
 41
0
  0
VERTEX
  8
0
 10
2.45975
 20
3
 30
0.0
 40
0
 41
0
  0
VERTEX
  8
0
 10
2.46192
 20
3
 30
0.0
 40
0
 41
0
  0
VERTEX
  8
0
 10
2.46847
 20
3.00489
 30
0.0
 40
0
 41
0
  0
VERTEX
  8
0
 10
2.48503
 20
3.01807
 30
0.0
 40
0
 41
0
  0
VERTEX
  8
0
 10
2.50732
 20
3.03754
 30
0.0
 40
0
 41
0
  0
VERTEX
  8
0
 10
2.52686
 20
3.05518
 30
0.0
 40
0
 41
0
  0
VERTEX
  8
0
 10
2.53331
 20
3.06108
 30
0.0
 40
0
 41
0
  0
VERTEX
  8
0
 10
2.54904
 20
3.07644
 30
0.0
 40
0
 41
0
  0
VERTEX
  8
0
 10
2.58903
 20
3.13004
 30
0.0
 40
0
 41
0
  0
VERTEX
  8
0
 10
2.60829
 20
3.19168
 30
0.0
 40
0
 41
0
  0
VERTEX
  8
0
 10
2.59115
 20
3.24393
 30
0.0
 40
0
 41
0
  0
VERTEX
  8
0
 10
2.55236
 20
3.27761
 30
0.0
 40
0
 41
0
  0
VERTEX
  8
0
 10
2.53749
 20
3.28472
 30
0.0
 40
0
 41
0
  0
VERTEX
  8
0
 10
2.51617
 20
3.29503
 30
0.0
 40
0
 41
0
  0
VERTEX
  8
0
 10
2.45475
 20
3.331
 30
0.0
 40
0
 41
0
  0
VERTEX
  8
0
 10
2.3915
 20
3.38297
 30
0.0
 40
0
 41
0
  0
VERTEX
  8
0
 10
2.34039
 20
3.44803
 30
0.0
 40
0
 41
0
  0
VERTEX
  8
0
 10
2.30469
 20
3.51144
 30
0.0
 40
0
 41
0
  0
VERTEX
  8
0
 10
2.29443
 20
3.53331
 30
0.0
 40
0
 41
0
  0
VERTEX
  8
0
 10
2.28922
 20
3.54449
 30
0.0
 40
0
 41
0
  0
VERTEX
  8
0
 10
2.2724
 20
3.57742
 30
0.0
 40
0
 41
0
  0
VERTEX
  8
0
 10
2.25157
 20
3.61094
 30
0.0
 40
0
 41
0
  0
VERTEX
  8
0
 10
2.23107
 20
3.63433
 30
0.0
 40
0
 41
0
  0
VERTEX
  8
0
 10
2.21007
 20
3.64794
 30
0.0
 40
0
 41
0
  0
VERTEX
  8
0
 10
2.18756
 20
3.65218
 30
0.0
 40
0
 41
0
  0
VERTEX
  8
0
 10
2.16276
 20
3.6474
 30
0.0
 40
0
 41
0
  0
VERTEX
  8
0
 10
2.13476
 20
3.63411
 30
0.0
 40
0
 41
0
  0
VERTEX
  8
0
 10
2.11046
 20
3.61828
 30
0.0
 40
0
 41
0
  0
VERTEX
  8
0
 10
2.10275
 20
3.61253
 30
0.0
 40
0
 41
0
  0
SEQEND
 8
0
  0
POLYLINE
  8
0
 62
     0
 66
     1
 10
0
 20
0
 30
0.0
 70
     1
 40
0
 41
0
  0
VERTEX
  8
0
 10
0.583333
 20
3.02501
 30
0.0
 40
0
 41
0
  0
VERTEX
  8
0
 10
0.580892
 20
3.02235
 30
0.0
 40
0
 41
0
  0
VERTEX
  8
0
 10
0.574544
 20
3.01361
 30
0.0
 40
0
 41
0
  0
VERTEX
  8
0
 10
0.567817
 20
2.99707
 30
0.0
 40
0
 41
0
  0
VERTEX
  8
0
 10
0.562935
 20
2.96912
 30
0.0
 40
0
 41
0
  0
VERTEX
  8
0
 10
0.559517
 20
2.92344
 30
0.0
 40
0
 41
0
  0
VERTEX
  8
0
 10
0.557346
 20
2.85379
 30
0.0
 40
0
 41
0
  0
VERTEX
  8
0
 10
0.556153
 20
2.75375
 30
0.0
 40
0
 41
0
  0
VERTEX
  8
0
 10
0.555664
 20
2.61708
 30
0.0
 40
0
 41
0
  0
VERTEX
  8
0
 10
0.555556
 20
2.48242
 30
0.0
 40
0
 41
0
  0
VERTEX
  8
0
 10
0.555556
 20
2.4375
 30
0.0
 40
0
 41
0
  0
VERTEX
  8
0
 10
0.555556
 20
2.39697
 30
0.0
 40
0
 41
0
  0
VERTEX
  8
0
 10
0.555664
 20
2.27539
 30
0.0
 40
0
 41
0
  0
VERTEX
  8
0
 10
0.556261
 20
2.14671
 30
0.0
 40
0
 41
0
  0
VERTEX
  8
0
 10
0.557454
 20
2.04742
 30
0.0
 40
0
 41
0
  0
VERTEX
  8
0
 10
0.559353
 20
1.97347
 30
0.0
 40
0
 41
0
  0
VERTEX
  8
0
 10
0.562175
 20
1.92079
 30
0.0
 40
0
 41
0
  0
VERTEX
  8
0
 10
0.566081
 20
1.88536
 30
0.0
 40
0
 41
0
  0
VERTEX
  8
0
 10
0.571235
 20
1.86313
 30
0.0
 40
0
 41
0
  0
VERTEX
  8
0
 10
0.575629
 20
1.85292
 30
0.0
 40
0
 41
0
  0
VERTEX
  8
0
 10
0.5778
 20
1.84999
 30
0.0
 40
0
 41
0
  0
VERTEX
  8
0
 10
0.580946
 20
1.84549
 30
0.0
 40
0
 41
0
  0
VERTEX
  8
0
 10
0.592882
 20
1.83356
 30
0.0
 40
0
 41
0
  0
VERTEX
  8
0
 10
0.616644
 20
1.82433
 30
0.0
 40
0
 41
0
  0
VERTEX
  8
0
 10
0.660157
 20
1.82032
 30
0.0
 40
0
 41
0
  0
VERTEX
  8
0
 10
0.716037
 20
1.81944
 30
0.0
 40
0
 41
0
  0
VERTEX
  8
0
 10
0.7347
 20
1.81944
 30
0.0
 40
0
 41
0
  0
VERTEX
  8
0
 10
0.752225
 20
1.81944
 30
0.0
 40
0
 41
0
  0
VERTEX
  8
0
 10
0.804958
 20
1.82047
 30
0.0
 40
0
 41
0
  0
VERTEX
  8
0
 10
0.849826
 20
1.82417
 30
0.0
 40
0
 41
0
  0
VERTEX
  8
0
 10
0.876682
 20
1.83176
 30
0.0
 40
0
 41
0
  0
VERTEX
  8
0
 10
0.889703
 20
1.84065
 30
0.0
 40
0
 41
0
  0
VERTEX
  8
0
 10
0.893067
 20
1.84446
 30
0.0
 40
0
 41
0
  0
VERTEX
  8
0
 10
0.895236
 20
1.84694
 30
0.0
 40
0
 41
0
  0
VERTEX
  8
0
 10
0.900011
 20
1.8559
 30
0.0
 40
0
 41
0
  0
VERTEX
  8
0
 10
0.90549
 20
1.87554
 30
0.0
 40
0
 41
0
  0
VERTEX
  8
0
 10
0.909668
 20
1.90826
 30
0.0
 40
0
 41
0
  0
VERTEX
  8
0
 10
0.912651
 20
1.95871
 30
0.0
 40
0
 41
0
  0
VERTEX
  8
0
 10
0.91466
 20
2.03168
 30
0.0
 40
0
 41
0
  0
VERTEX
  8
0
 10
0.915907
 20
2.13194
 30
0.0
 40
0
 41
0
  0
VERTEX
  8
0
 10
0.916504
 20
2.26426
 30
0.0
 40
0
 41
0
  0
VERTEX
  8
0
 10
0.916667
 20
2.39106
 30
0.0
 40
0
 41
0
  0
VERTEX
  8
0
 10
0.916667
 20
2.43332
 30
0.0
 40
0
 41
0
  0
VERTEX
  8
0
 10
0.916667
 20
2.99582
 30
0.0
 40
0
 41
0
  0
VERTEX
  8
0
 10
0.884711
 20
3.02501
 30
0.0
 40
0
 41
0
  0
VERTEX
  8
0
 10
0.879937
 20
3.02951
 30
0.0
 40
0
 41
0
  0
VERTEX
  8
0
 10
0.863769
 20
3.0409
 30
0.0
 40
0
 41
0
  0
VERTEX
  8
0
 10
0.836968
 20
3.05018
 30
0.0
 40
0
 41
0
  0
VERTEX
  8
0
 10
0.795844
 20
3.05453
 30
0.0
 40
0
 41
0
  0
VERTEX
  8
0
 10
0.747885
 20
3.05556
 30
0.0
 40
0
 41
0
  0
VERTEX
  8
0
 10
0.731933
 20
3.05556
 30
0.0
 40
0
 41
0
  0
VERTEX
  8
0
 10
0.715875
 20
3.05556
 30
0.0
 40
0
 41
0
  0
VERTEX
  8
0
 10
0.667697
 20
3.05453
 30
0.0
 40
0
 41
0
  0
VERTEX
  8
0
 10
0.627442
 20
3.05018
 30
0.0
 40
0
 41
0
  0
VERTEX
  8
0
 10
0.602214
 20
3.0409
 30
0.0
 40
0
 41
0
  0
VERTEX
  8
0
 10
0.587511
 20
3.02946
 30
0.0
 40
0
 41
0
  0
VERTEX
  8
0
 10
0.583333
 20
3.02501
 30
0.0
 40
0
 41
0
  0
SEQEND
 8
0
  0
POLYLINE
  8
0
 62
     0
 66
     1
 10
0
 20
0
 30
0.0
 70
     1
 40
0
 41
0
  0
VERTEX
  8
0
 10
1.03613
 20
3.02501
 30
0.0
 40
0
 41
0
  0
VERTEX
  8
0
 10
1.03396
 20
3.02214
 30
0.0
 40
0
 41
0
  0
VERTEX
  8
0
 10
1.02957
 20
3.01187
 30
0.0
 40
0
 41
0
  0
VERTEX
  8
0
 10
1.02441
 20
2.98953
 30
0.0
 40
0
 41
0
  0
VERTEX
  8
0
 10
1.02051
 20
2.95383
 30
0.0
 40
0
 41
0
  0
VERTEX
  8
0
 10
1.01769
 20
2.90056
 30
0.0
 40
0
 41
0
  0
VERTEX
  8
0
 10
1.01579
 20
2.82563
 30
0.0
 40
0
 41
0
  0
VERTEX
  8
0
 10
1.01459
 20
2.72483
 30
0.0
 40
0
 41
0
  0
VERTEX
  8
0
 10
1.014
 20
2.59407
 30
0.0
 40
0
 41
0
  0
VERTEX
  8
0
 10
1.01389
 20
2.47038
 30
0.0
 40
0
 41
0
  0
VERTEX
  8
0
 10
1.01389
 20
2.42914
 30
0.0
 40
0
 41
0
  0
VERTEX
  8
0
 10
1.01389
 20
2.3851
 30
0.0
 40
0
 41
0
  0
VERTEX
  8
0
 10
1.01394
 20
2.25293
 30
0.0
 40
0
 41
0
  0
VERTEX
  8
0
 10
1.01443
 20
2.11729
 30
0.0
 40
0
 41
0
  0
VERTEX
  8
0
 10
1.01557
 20
2.01671
 30
0.0
 40
0
 41
0
  0
VERTEX
  8
0
 10
1.01752
 20
1.94553
 30
0.0
 40
0
 41
0
  0
VERTEX
  8
0
 10
1.02056
 20
1.89817
 30
0.0
 40
0
 41
0
  0
VERTEX
  8
0
 10
1.02501
 20
1.86903
 30
0.0
 40
0
 41
0
  0
VERTEX
  8
0
 10
1.03103
 20
1.85254
 30
0.0
 40
0
 41
0
  0
VERTEX
  8
0
 10
1.03662
 20
1.84506
 30
0.0
 40
0
 41
0
  0
VERTEX
  8
0
 10
1.0389
 20
1.84304
 30
0.0
 40
0
 41
0
  0
VERTEX
  8
0
 10
1.04297
 20
1.83925
 30
0.0
 40
0
 41
0
  0
VERTEX
  8
0
 10
1.05838
 20
1.83117
 30
0.0
 40
0
 41
0
  0
VERTEX
  8
0
 10
1.0906
 20
1.824
 30
0.0
 40
0
 41
0
  0
VERTEX
  8
0
 10
1.14318
 20
1.82042
 30
0.0
 40
0
 41
0
  0
VERTEX
  8
0
 10
1.2035
 20
1.81944
 30
0.0
 40
0
 41
0
  0
VERTEX
  8
0
 10
1.22363
 20
1.81944
 30
0.0
 40
0
 41
0
  0
VERTEX
  8
0
 10
1.25526
 20
1.81944
 30
0.0
 40
0
 41
0
  0
VERTEX
  8
0
 10
1.35026
 20
1.82275
 30
0.0
 40
0
 41
0
  0
VERTEX
  8
0
 10
1.4349
 20
1.83735
 30
0.0
 40
0
 41
0
  0
VERTEX
  8
0
 10
1.49994
 20
1.87044
 30
0.0
 40
0
 41
0
  0
VERTEX
  8
0
 10
1.55181
 20
1.91363
 30
0.0
 40
0
 41
0
  0
VERTEX
  8
0
 10
1.56803
 20
1.92914
 30
0.0
 40
0
 41
0
  0
VERTEX
  8
0
 10
1.57639
 20
1.93707
 30
0.0
 40
0
 41
0
  0
VERTEX
  8
0
 10
1.60118
 20
1.96126
 30
0.0
 40
0
 41
0
  0
VERTEX
  8
0
 10
1.6281
 20
1.98876
 30
0.0
 40
0
 41
0
  0
VERTEX
  8
0
 10
1.64615
 20
2.00868
 30
0.0
 40
0
 41
0
  0
VERTEX
  8
0
 10
1.65278
 20
2.01574
 30
0.0
 40
0
 41
0
  0
VERTEX
  8
0
 10
1.65278
 20
2.01807
 30
0.0
 40
0
 41
0
  0
VERTEX
  8
0
 10
1.65278
 20
2.021
 30
0.0
 40
0
 41
0
  0
VERTEX
  8
0
 10
1.66151
 20
2.02968
 30
0.0
 40
0
 41
0
  0
VERTEX
  8
0
 10
1.68522
 20
2.05556
 30
0.0
 40
0
 41
0
  0
VERTEX
  8
0
 10
1.72017
 20
2.0919
 30
0.0
 40
0
 41
0
  0
VERTEX
  8
0
 10
1.75185
 20
2.12408
 30
0.0
 40
0
 41
0
  0
VERTEX
  8
0
 10
1.76247
 20
2.13471
 30
0.0
 40
0
 41
0
  0
VERTEX
  8
0
 10
1.7845
 20
2.15653
 30
0.0
 40
0
 41
0
  0
VERTEX
  8
0
 10
1.84754
 20
2.22499
 30
0.0
 40
0
 41
0
  0
VERTEX
  8
0
 10
1.90881
 20
2.30382
 30
0.0
 40
0
 41
0
  0
VERTEX
  8
0
 10
1.94586
 20
2.37071
 30
0.0
 40
0
 41
0
  0
VERTEX
  8
0
 10
1.95833
 20
2.41146
 30
0.0
 40
0
 41
0
  0
VERTEX
  8
0
 10
1.95833
 20
2.42503
 30
0.0
 40
0
 41
0
  0
VERTEX
  8
0
 10
1.95833
 20
2.43397
 30
0.0
 40
0
 41
0
  0
VERTEX
  8
0
 10
1.95432
 20
2.46067
 30
0.0
 40
0
 41
0
  0
VERTEX
  8
0
 10
1.94422
 20
2.49968
 30
0.0
 40
0
 41
0
  0
VERTEX
  8
0
 10
1.93078
 20
2.53401
 30
0.0
 40
0
 41
0
  0
VERTEX
  8
0
 10
1.92117
 20
2.55143
 30
0.0
 40
0
 41
0
  0
VERTEX
  8
0
 10
1.91667
 20
2.55556
 30
0.0
 40
0
 41
0
  0
VERTEX
  8
0
 10
1.91558
 20
2.55664
 30
0.0
 40
0
 41
0
  0
VERTEX
  8
0
 10
1.90186
 20
2.57243
 30
0.0
 40
0
 41
0
  0
VERTEX
  8
0
 10
1.88189
 20
2.59722
 30
0.0
 40
0
 41
0
  0
VERTEX
  8
0
 10
1.87776
 20
2.60275
 30
0.0
 40
0
 41
0
  0
VERTEX
  8
0
 10
1.87256
 20
2.60954
 30
0.0
 40
0
 41
0
  0
VERTEX
  8
0
 10
1.85601
 20
2.62907
 30
0.0
 40
0
 41
0
  0
VERTEX
  8
0
 10
1.82135
 20
2.66883
 30
0.0
 40
0
 41
0
  0
VERTEX
  8
0
 10
1.7774
 20
2.71804
 30
0.0
 40
0
 41
0
  0
VERTEX
  8
0
 10
1.72775
 20
2.77279
 30
0.0
 40
0
 41
0
  0
VERTEX
  8
0
 10
1.676
 20
2.829
 30
0.0
 40
0
 41
0
  0
VERTEX
  8
0
 10
1.62582
 20
2.88271
 30
0.0
 40
0
 41
0
  0
VERTEX
  8
0
 10
1.58074
 20
2.92996
 30
0.0
 40
0
 41
0
  0
VERTEX
  8
0
 10
1.5536
 20
2.95768
 30
0.0
 40
0
 41
0
  0
VERTEX
  8
0
 10
1.54443
 20
2.96669
 30
0.0
 40
0
 41
0
  0
VERTEX
  8
0
 10
1.53201
 20
2.97933
 30
0.0
 40
0
 41
0
  0
VERTEX
  8
0
 10
1.49035
 20
3.01281
 30
0.0
 40
0
 41
0
  0
VERTEX
  8
0
 10
1.42931
 20
3.03976
 30
0.0
 40
0
 41
0
  0
VERTEX
  8
0
 10
1.34462
 20
3.05246
 30
0.0
 40
0
 41
0
  0
VERTEX
  8
0
 10
1.25071
 20
3.05556
 30
0.0
 40
0
 41
0
  0
VERTEX
  8
0
 10
1.21946
 20
3.05556
 30
0.0
 40
0
 41
0
  0
VERTEX
  8
0
 10
1.20681
 20
3.05556
 30
0.0
 40
0
 41
0
  0
VERTEX
  8
0
 10
1.16889
 20
3.05544
 30
0.0
 40
0
 41
0
  0
VERTEX
  8
0
 10
1.12961
 20
3.0549
 30
0.0
 40
0
 41
0
  0
VERTEX
  8
0
 10
1.09999
 20
3.0536
 30
0.0
 40
0
 41
0
  0
VERTEX
  8
0
 10
1.07829
 20
3.05122
 30
0.0
 40
0
 41
0
  0
VERTEX
  8
0
 10
1.06272
 20
3.04753
 30
0.0
 40
0
 41
0
  0
VERTEX
  8
0
 10
1.05165
 20
3.0421
 30
0.0
 40
0
 41
0
  0
VERTEX
  8
0
 10
1.04335
 20
3.03472
 30
0.0
 40
0
 41
0
  0
VERTEX
  8
0
 10
1.03776
 20
3.02756
 30
0.0
 40
0
 41
0
  0
VERTEX
  8
0
 10
1.03613
 20
3.02501
 30
0.0
 40
0
 41
0
  0
SEQEND
 8
0
  0
POLYLINE
  8
0
 62
     0
 66
     1
 10
0
 20
0
 30
0.0
 70
     1
 40
0
 41
0
  0
VERTEX
  8
0
 10
6.25418
 20
2.53054
 30
0.0
 40
0
 41
0
  0
VERTEX
  8
0
 10
6.25032
 20
2.52806
 30
0.0
 40
0
 41
0
  0
VERTEX
  8
0
 10
6.24061
 20
2.51774
 30
0.0
 40
0
 41
0
  0
VERTEX
  8
0
 10
6.22999
 20
2.49576
 30
0.0
 40
0
 41
0
  0
VERTEX
  8
0
 10
6.22194
 20
2.45953
 30
0.0
 40
0
 41
0
  0
VERTEX
  8
0
 10
6.2161
 20
2.40403
 30
0.0
 40
0
 41
0
  0
VERTEX
  8
0
 10
6.21218
 20
2.32422
 30
0.0
 40
0
 41
0
  0
VERTEX
  8
0
 10
6.20979
 20
2.21517
 30
0.0
 40
0
 41
0
  0
VERTEX
  8
0
 10
6.20861
 20
2.07172
 30
0.0
 40
0
 41
0
  0
VERTEX
  8
0
 10
6.20833
 20
1.93463
 30
0.0
 40
0
 41
0
  0
VERTEX
  8
0
 10
6.20833
 20
1.88889
 30
0.0
 40
0
 41
0
  0
VERTEX
  8
0
 10
6.20833
 20
1.82542
 30
0.0
 40
0
 41
0
  0
VERTEX
  8
0
 10
6.20915
 20
1.63499
 30
0.0
 40
0
 41
0
  0
VERTEX
  8
0
 10
6.21197
 20
1.45628
 30
0.0
 40
0
 41
0
  0
VERTEX
  8
0
 10
6.21712
 20
1.34635
 30
0.0
 40
0
 41
0
  0
VERTEX
  8
0
 10
6.22185
 20
1.3049
 30
0.0
 40
0
 41
0
  0
VERTEX
  8
0
 10
6.22499
 20
1.29861
 30
0.0
 40
0
 41
0
  0
VERTEX
  8
0
 10
6.22624
 20
1.29584
 30
0.0
 40
0
 41
0
  0
VERTEX
  8
0
 10
6.23047
 20
1.2876
 30
0.0
 40
0
 41
0
  0
VERTEX
  8
0
 10
6.23649
 20
1.27913
 30
0.0
 40
0
 41
0
  0
VERTEX
  8
0
 10
6.24474
 20
1.273
 30
0.0
 40
0
 41
0
  0
VERTEX
  8
0
 10
6.25678
 20
1.26877
 30
0.0
 40
0
 41
0
  0
VERTEX
  8
0
 10
6.27419
 20
1.26611
 30
0.0
 40
0
 41
0
  0
VERTEX
  8
0
 10
6.29861
 20
1.26465
 30
0.0
 40
0
 41
0
  0
VERTEX
  8
0
 10
6.33165
 20
1.26405
 30
0.0
 40
0
 41
0
  0
VERTEX
  8
0
 10
6.36415
 20
1.26389
 30
0.0
 40
0
 41
0
  0
VERTEX
  8
0
 10
6.375
 20
1.26389
 30
0.0
 40
0
 41
0
  0
VERTEX
  8
0
 10
6.50836
 20
1.26389
 30
0.0
 40
0
 41
0
  0
VERTEX
  8
0
 10
6.52501
 20
1.30973
 30
0.0
 40
0
 41
0
  0
VERTEX
  8
0
 10
6.5274
 20
1.31603
 30
0.0
 40
0
 41
0
  0
VERTEX
  8
0
 10
6.53168
 20
1.3387
 30
0.0
 40
0
 41
0
  0
VERTEX
  8
0
 10
6.53694
 20
1.3839
 30
0.0
 40
0
 41
0
  0
VERTEX
  8
0
 10
6.54042
 20
1.43924
 30
0.0
 40
0
 41
0
  0
VERTEX
  8
0
 10
6.54167
 20
1.48378
 30
0.0
 40
0
 41
0
  0
VERTEX
  8
0
 10
6.54167
 20
1.49858
 30
0.0
 40
0
 41
0
  0
VERTEX
  8
0
 10
6.54167
 20
1.50965
 30
0.0
 40
0
 41
0
  0
VERTEX
  8
0
 10
6.54183
 20
1.54275
 30
0.0
 40
0
 41
0
  0
VERTEX
  8
0
 10
6.54258
 20
1.57731
 30
0.0
 40
0
 41
0
  0
VERTEX
  8
0
 10
6.54422
 20
1.60394
 30
0.0
 40
0
 41
0
  0
VERTEX
  8
0
 10
6.54704
 20
1.62414
 30
0.0
 40
0
 41
0
  0
VERTEX
  8
0
 10
6.55132
 20
1.63965
 30
0.0
 40
0
 41
0
  0
VERTEX
  8
0
 10
6.55746
 20
1.65196
 30
0.0
 40
0
 41
0
  0
VERTEX
  8
0
 10
6.56569
 20
1.66276
 30
0.0
 40
0
 41
0
  0
VERTEX
  8
0
 10
6.57362
 20
1.67101
 30
0.0
 40
0
 41
0
  0
VERTEX
  8
0
 10
6.57639
 20
1.67361
 30
0.0
 40
0
 41
0
  0
VERTEX
  8
0
 10
6.60969
 20
1.70833
 30
0.0
 40
0
 41
0
  0
VERTEX
  8
0
 10
7.33475
 20
1.70833
 30
0.0
 40
0
 41
0
  0
VERTEX
  8
0
 10
7.36806
 20
1.67219
 30
0.0
 40
0
 41
0
  0
VERTEX
  8
0
 10
7.37076
 20
1.66922
 30
0.0
 40
0
 41
0
  0
VERTEX
  8
0
 10
7.37869
 20
1.65994
 30
0.0
 40
0
 41
0
  0
VERTEX
  8
0
 10
7.38693
 20
1.648
 30
0.0
 40
0
 41
0
  0
VERTEX
  8
0
 10
7.39307
 20
1.63465
 30
0.0
 40
0
 41
0
  0
VERTEX
  8
0
 10
7.39735
 20
1.61806
 30
0.0
 40
0
 41
0
  0
VERTEX
  8
0
 10
7.40018
 20
1.59657
 30
0.0
 40
0
 41
0
  0
VERTEX
  8
0
 10
7.40181
 20
1.56831
 30
0.0
 40
0
 41
0
  0
VERTEX
  8
0
 10
7.40256
 20
1.53163
 30
0.0
 40
0
 41
0
  0
VERTEX
  8
0
 10
7.40278
 20
1.49647
 30
0.0
 40
0
 41
0
  0
VERTEX
  8
0
 10
7.40278
 20
1.48469
 30
0.0
 40
0
 41
0
  0
VERTEX
  8
0
 10
7.40278
 20
1.46957
 30
0.0
 40
0
 41
0
  0
VERTEX
  8
0
 10
7.40375
 20
1.42404
 30
0.0
 40
0
 41
0
  0
VERTEX
  8
0
 10
7.40657
 20
1.36892
 30
0.0
 40
0
 41
0
  0
VERTEX
  8
0
 10
7.41097
 20
1.32557
 30
0.0
 40
0
 41
0
  0
VERTEX
  8
0
 10
7.41456
 20
1.3049
 30
0.0
 40
0
 41
0
  0
VERTEX
  8
0
 10
7.41667
 20
1.30002
 30
0.0
 40
0
 41
0
  0
VERTEX
  8
0
 10
7.41769
 20
1.29715
 30
0.0
 40
0
 41
0
  0
VERTEX
  8
0
 10
7.42117
 20
1.28852
 30
0.0
 40
0
 41
0
  0
VERTEX
  8
0
 10
7.42649
 20
1.27973
 30
0.0
 40
0
 41
0
  0
VERTEX
  8
0
 10
7.43408
 20
1.27338
 30
0.0
 40
0
 41
0
  0
VERTEX
  8
0
 10
7.44547
 20
1.26893
 30
0.0
 40
0
 41
0
  0
VERTEX
  8
0
 10
7.46218
 20
1.26617
 30
0.0
 40
0
 41
0
  0
VERTEX
  8
0
 10
7.48579
 20
1.2647
 30
0.0
 40
0
 41
0
  0
VERTEX
  8
0
 10
7.51779
 20
1.26405
 30
0.0
 40
0
 41
0
  0
VERTEX
  8
0
 10
7.54921
 20
1.26389
 30
0.0
 40
0
 41
0
  0
VERTEX
  8
0
 10
7.55974
 20
1.26389
 30
0.0
 40
0
 41
0
  0
VERTEX
  8
0
 10
7.57021
 20
1.26389
 30
0.0
 40
0
 41
0
  0
VERTEX
  8
0
 10
7.60161
 20
1.26405
 30
0.0
 40
0
 41
0
  0
VERTEX
  8
0
 10
7.63362
 20
1.26465
 30
0.0
 40
0
 41
0
  0
VERTEX
  8
0
 10
7.65733
 20
1.26611
 30
0.0
 40
0
 41
0
  0
VERTEX
  8
0
 10
7.67426
 20
1.26877
 30
0.0
 40
0
 41
0
  0
VERTEX
  8
0
 10
7.68599
 20
1.273
 30
0.0
 40
0
 41
0
  0
VERTEX
  8
0
 10
7.69407
 20
1.27913
 30
0.0
 40
0
 41
0
  0
VERTEX
  8
0
 10
7.70008
 20
1.2876
 30
0.0
 40
0
 41
0
  0
VERTEX
  8
0
 10
7.70426
 20
1.29584
 30
0.0
 40
0
 41
0
  0
VERTEX
  8
0
 10
7.70557
 20
1.29861
 30
0.0
 40
0
 41
0
  0
VERTEX
  8
0
 10
7.70833
 20
1.3049
 30
0.0
 40
0
 41
0
  0
VERTEX
  8
0
 10
7.71283
 20
1.33838
 30
0.0
 40
0
 41
0
  0
VERTEX
  8
0
 10
7.71804
 20
1.42156
 30
0.0
 40
0
 41
0
  0
VERTEX
  8
0
 10
7.72114
 20
1.55057
 30
0.0
 40
0
 41
0
  0
VERTEX
  8
0
 10
7.72222
 20
1.68349
 30
0.0
 40
0
 41
0
  0
VERTEX
  8
0
 10
7.72222
 20
1.72775
 30
0.0
 40
0
 41
0
  0
VERTEX
  8
0
 10
7.72222
 20
1.76568
 30
0.0
 40
0
 41
0
  0
VERTEX
  8
0
 10
7.72228
 20
1.87944
 30
0.0
 40
0
 41
0
  0
VERTEX
  8
0
 10
7.72108
 20
1.99149
 30
0.0
 40
0
 41
0
  0
VERTEX
  8
0
 10
7.71664
 20
2.06993
 30
0.0
 40
0
 41
0
  0
VERTEX
  8
0
 10
7.70692
 20
2.12067
 30
0.0
 40
0
 41
0
  0
VERTEX
  8
0
 10
7.68994
 20
2.14979
 30
0.0
 40
0
 41
0
  0
VERTEX
  8
0
 10
7.66363
 20
2.16314
 30
0.0
 40
0
 41
0
  0
VERTEX
  8
0
 10
7.62597
 20
2.16683
 30
0.0
 40
0
 41
0
  0
VERTEX
  8
0
 10
7.58772
 20
2.16667
 30
0.0
 40
0
 41
0
  0
VERTEX
  8
0
 10
7.57497
 20
2.16667
 30
0.0
 40
0
 41
0
  0
VERTEX
  8
0
 10
7.56396
 20
2.16667
 30
0.0
 40
0
 41
0
  0
VERTEX
  8
0
 10
7.53093
 20
2.16624
 30
0.0
 40
0
 41
0
  0
VERTEX
  8
0
 10
7.49599
 20
2.16461
 30
0.0
 40
0
 41
0
  0
VERTEX
  8
0
 10
7.46892
 20
2.16135
 30
0.0
 40
0
 41
0
  0
VERTEX
  8
0
 10
7.4484
 20
2.15608
 30
0.0
 40
0
 41
0
  0
VERTEX
  8
0
 10
7.43332
 20
2.14844
 30
0.0
 40
0
 41
0
  0
VERTEX
  8
0
 10
7.42242
 20
2.13797
 30
0.0
 40
0
 41
0
  0
VERTEX
  8
0
 10
7.4145
 20
2.12429
 30
0.0
 40
0
 41
0
  0
VERTEX
  8
0
 10
7.40961
 20
2.11139
 30
0.0
 40
0
 41
0
  0
VERTEX
  8
0
 10
7.40831
 20
2.10693
 30
0.0
 40
0
 41
0
  0
VERTEX
  8
0
 10
7.40653
 20
2.10069
 30
0.0
 40
0
 41
0
  0
VERTEX
  8
0
 10
7.39953
 20
2.08242
 30
0.0
 40
0
 41
0
  0
VERTEX
  8
0
 10
7.38618
 20
2.06353
 30
0.0
 40
0
 41
0
  0
VERTEX
  8
0
 10
7.36404
 20
2.04958
 30
0.0
 40
0
 41
0
  0
VERTEX
  8
0
 10
7.32915
 20
2.03976
 30
0.0
 40
0
 41
0
  0
VERTEX
  8
0
 10
7.27729
 20
2.03342
 30
0.0
 40
0
 41
0
  0
VERTEX
  8
0
 10
7.20438
 20
2.02983
 30
0.0
 40
0
 41
0
  0
VERTEX
  8
0
 10
7.10639
 20
2.02821
 30
0.0
 40
0
 41
0
  0
VERTEX
  8
0
 10
7.01096
 20
2.02778
 30
0.0
 40
0
 41
0
  0
VERTEX
  8
0
 10
6.97917
 20
2.02778
 30
0.0
 40
0
 41
0
  0
VERTEX
  8
0
 10
6.94488
 20
2.02778
 30
0.0
 40
0
 41
0
  0
VERTEX
  8
0
 10
6.84218
 20
2.02854
 30
0.0
 40
0
 41
0
  0
VERTEX
  8
0
 10
6.72515
 20
2.03043
 30
0.0
 40
0
 41
0
  0
VERTEX
  8
0
 10
6.64068
 20
2.0331
 30
0.0
 40
0
 41
0
  0
VERTEX
  8
0
 10
6.60553
 20
2.0351
 30
0.0
 40
0
 41
0
  0
VERTEX
  8
0
 10
6.6014
 20
2.03614
 30
0.0
 40
0
 41
0
  0
VERTEX
  8
0
 10
6.59358
 20
2.03842
 30
0.0
 40
0
 41
0
  0
VERTEX
  8
0
 10
6.57292
 20
2.05436
 30
0.0
 40
0
 41
0
  0
VERTEX
  8
0
 10
6.55399
 20
2.08615
 30
0.0
 40
0
 41
0
  0
VERTEX
  8
0
 10
6.54725
 20
2.12517
 30
0.0
 40
0
 41
0
  0
VERTEX
  8
0
 10
6.55154
 20
2.15608
 30
0.0
 40
0
 41
0
  0
VERTEX
  8
0
 10
6.55556
 20
2.16525
 30
0.0
 40
0
 41
0
  0
VERTEX
  8
0
 10
6.55761
 20
2.17036
 30
0.0
 40
0
 41
0
  0
VERTEX
  8
0
 10
6.56575
 20
2.18479
 30
0.0
 40
0
 41
0
  0
VERTEX
  8
0
 10
6.57894
 20
2.19846
 30
0.0
 40
0
 41
0
  0
VERTEX
  8
0
 10
6.59711
 20
2.20768
 30
0.0
 40
0
 41
0
  0
VERTEX
  8
0
 10
6.61589
 20
2.21278
 30
0.0
 40
0
 41
0
  0
VERTEX
  8
0
 10
6.62224
 20
2.21386
 30
0.0
 40
0
 41
0
  0
VERTEX
  8
0
 10
6.62918
 20
2.21496
 30
0.0
 40
0
 41
0
  0
VERTEX
  8
0
 10
6.68143
 20
2.21696
 30
0.0
 40
0
 41
0
  0
VERTEX
  8
0
 10
6.80518
 20
2.21963
 30
0.0
 40
0
 41
0
  0
VERTEX
  8
0
 10
6.97532
 20
2.22151
 30
0.0
 40
0
 41
0
  0
VERTEX
  8
0
 10
7.12403
 20
2.22222
 30
0.0
 40
0
 41
0
  0
VERTEX
  8
0
 10
7.17361
 20
2.22222
 30
0.0
 40
0
 41
0
  0
VERTEX
  8
0
 10
7.22185
 20
2.22222
 30
0.0
 40
0
 41
0
  0
VERTEX
  8
0
 10
7.36664
 20
2.22206
 30
0.0
 40
0
 41
0
  0
VERTEX
  8
0
 10
7.50836
 20
2.22304
 30
0.0
 40
0
 41
0
  0
VERTEX
  8
0
 10
7.60656
 20
2.22743
 30
0.0
 40
0
 41
0
  0
VERTEX
  8
0
 10
7.66928
 20
2.23768
 30
0.0
 40
0
 41
0
  0
VERTEX
  8
0
 10
7.70426
 20
2.25612
 30
0.0
 40
0
 41
0
  0
VERTEX
  8
0
 10
7.71951
 20
2.28494
 30
0.0
 40
0
 41
0
  0
VERTEX
  8
0
 10
7.72282
 20
2.32661
 30
0.0
 40
0
 41
0
  0
VERTEX
  8
0
 10
7.72222
 20
2.36919
 30
0.0
 40
0
 41
0
  0
VERTEX
  8
0
 10
7.72222
 20
2.38336
 30
0.0
 40
0
 41
0
  0
VERTEX
  8
0
 10
7.72222
 20
2.39746
 30
0.0
 40
0
 41
0
  0
VERTEX
  8
0
 10
7.72336
 20
2.43961
 30
0.0
 40
0
 41
0
  0
VERTEX
  8
0
 10
7.7194
 20
2.48074
 30
0.0
 40
0
 41
0
  0
VERTEX
  8
0
 10
7.69922
 20
2.50917
 30
0.0
 40
0
 41
0
  0
VERTEX
  8
0
 10
7.65175
 20
2.52713
 30
0.0
 40
0
 41
0
  0
VERTEX
  8
0
 10
7.56581
 20
2.537
 30
0.0
 40
0
 41
0
  0
VERTEX
  8
0
 10
7.43039
 20
2.54118
 30
0.0
 40
0
 41
0
  0
VERTEX
  8
0
 10
7.23438
 20
2.54194
 30
0.0
 40
0
 41
0
  0
VERTEX
  8
0
 10
7.03358
 20
2.54167
 30
0.0
 40
0
 41
0
  0
VERTEX
  8
0
 10
6.96669
 20
2.54167
 30
0.0
 40
0
 41
0
  0
VERTEX
  8
0
 10
6.93158
 20
2.54167
 30
0.0
 40
0
 41
0
  0
VERTEX
  8
0
 10
6.82639
 20
2.54144
 30
0.0
 40
0
 41
0
  0
VERTEX
  8
0
 10
6.69499
 20
2.54075
 30
0.0
 40
0
 41
0
  0
VERTEX
  8
0
 10
6.57531
 20
2.53965
 30
0.0
 40
0
 41
0
  0
VERTEX
  8
0
 10
6.47026
 20
2.53825
 30
0.0
 40
0
 41
0
  0
VERTEX
  8
0
 10
6.38276
 20
2.53657
 30
0.0
 40
0
 41
0
  0
VERTEX
  8
0
 10
6.31565
 20
2.53467
 30
0.0
 40
0
 41
0
  0
VERTEX
  8
0
 10
6.27181
 20
2.53267
 30
0.0
 40
0
 41
0
  0
VERTEX
  8
0
 10
6.25657
 20
2.53196
 30
0.0
 40
0
 41
0
  0
VERTEX
  8
0
 10
6.25418
 20
2.53054
 30
0.0
 40
0
 41
0
  0
SEQEND
 8
0
  0
POLYLINE
  8
0
 62
     0
 66
     1
 10
0
 20
0
 30
0.0
 70
     1
 40
0
 41
0
  0
VERTEX
  8
0
 10
8.1639
 20
2.53196
 30
0.0
 40
0
 41
0
  0
VERTEX
  8
0
 10
8.16075
 20
2.53131
 30
0.0
 40
0
 41
0
  0
VERTEX
  8
0
 10
8.14356
 20
2.51546
 30
0.0
 40
0
 41
0
  0
VERTEX
  8
0
 10
8.12847
 20
2.48926
 30
0.0
 40
0
 41
0
  0
VERTEX
  8
0
 10
8.12642
 20
2.48335
 30
0.0
 40
0
 41
0
  0
VERTEX
  8
0
 10
8.12093
 20
2.46799
 30
0.0
 40
0
 41
0
  0
VERTEX
  8
0
 10
8.11914
 20
2.4165
 30
0.0
 40
0
 41
0
  0
VERTEX
  8
0
 10
8.1141
 20
2.27869
 30
0.0
 40
0
 41
0
  0
VERTEX
  8
0
 10
8.11117
 20
2.09386
 30
0.0
 40
0
 41
0
  0
VERTEX
  8
0
 10
8.1104
 20
1.88579
 30
0.0
 40
0
 41
0
  0
VERTEX
  8
0
 10
8.11171
 20
1.67839
 30
0.0
 40
0
 41
0
  0
VERTEX
  8
0
 10
8.11501
 20
1.4955
 30
0.0
 40
0
 41
0
  0
VERTEX
  8
0
 10
8.12039
 20
1.36095
 30
0.0
 40
0
 41
0
  0
VERTEX
  8
0
 10
8.12218
 20
1.31076
 30
0.0
 40
0
 41
0
  0
VERTEX
  8
0
 10
8.12776
 20
1.29861
 30
0.0
 40
0
 41
0
  0
VERTEX
  8
0
 10
8.12901
 20
1.29584
 30
0.0
 40
0
 41
0
  0
VERTEX
  8
0
 10
8.13325
 20
1.2876
 30
0.0
 40
0
 41
0
  0
VERTEX
  8
0
 10
8.13926
 20
1.27913
 30
0.0
 40
0
 41
0
  0
VERTEX
  8
0
 10
8.14746
 20
1.273
 30
0.0
 40
0
 41
0
  0
VERTEX
  8
0
 10
8.15935
 20
1.26877
 30
0.0
 40
0
 41
0
  0
VERTEX
  8
0
 10
8.1766
 20
1.26611
 30
0.0
 40
0
 41
0
  0
VERTEX
  8
0
 10
8.20079
 20
1.26465
 30
0.0
 40
0
 41
0
  0
VERTEX
  8
0
 10
8.23351
 20
1.26405
 30
0.0
 40
0
 41
0
  0
VERTEX
  8
0
 10
8.26563
 20
1.26389
 30
0.0
 40
0
 41
0
  0
VERTEX
  8
0
 10
8.27636
 20
1.26389
 30
0.0
 40
0
 41
0
  0
VERTEX
  8
0
 10
8.28717
 20
1.26389
 30
0.0
 40
0
 41
0
  0
VERTEX
  8
0
 10
8.31961
 20
1.26405
 30
0.0
 40
0
 41
0
  0
VERTEX
  8
0
 10
8.35254
 20
1.2647
 30
0.0
 40
0
 41
0
  0
VERTEX
  8
0
 10
8.3769
 20
1.26628
 30
0.0
 40
0
 41
0
  0
VERTEX
  8
0
 10
8.39426
 20
1.26915
 30
0.0
 40
0
 41
0
  0
VERTEX
  8
0
 10
8.40636
 20
1.27371
 30
0.0
 40
0
 41
0
  0
VERTEX
  8
0
 10
8.41482
 20
1.28033
 30
0.0
 40
0
 41
0
  0
VERTEX
  8
0
 10
8.42144
 20
1.28944
 30
0.0
 40
0
 41
0
  0
VERTEX
  8
0
 10
8.42626
 20
1.29839
 30
0.0
 40
0
 41
0
  0
VERTEX
  8
0
 10
8.42779
 20
1.30138
 30
0.0
 40
0
 41
0
  0
VERTEX
  8
0
 10
8.43018
 20
1.30697
 30
0.0
 40
0
 41
0
  0
VERTEX
  8
0
 10
8.43446
 20
1.3272
 30
0.0
 40
0
 41
0
  0
VERTEX
  8
0
 10
8.43972
 20
1.36898
 30
0.0
 40
0
 41
0
  0
VERTEX
  8
0
 10
8.44319
 20
1.4235
 30
0.0
 40
0
 41
0
  0
VERTEX
  8
0
 10
8.44444
 20
1.47151
 30
0.0
 40
0
 41
0
  0
VERTEX
  8
0
 10
8.44444
 20
1.48753
 30
0.0
 40
0
 41
0
  0
VERTEX
  8
0
 10
8.44444
 20
1.49903
 30
0.0
 40
0
 41
0
  0
VERTEX
  8
0
 10
8.44461
 20
1.53353
 30
0.0
 40
0
 41
0
  0
VERTEX
  8
0
 10
8.44536
 20
1.5695
 30
0.0
 40
0
 41
0
  0
VERTEX
  8
0
 10
8.447
 20
1.59722
 30
0.0
 40
0
 41
0
  0
VERTEX
  8
0
 10
8.44982
 20
1.61843
 30
0.0
 40
0
 41
0
  0
VERTEX
  8
0
 10
8.4541
 20
1.63476
 30
0.0
 40
0
 41
0
  0
VERTEX
  8
0
 10
8.46024
 20
1.64806
 30
0.0
 40
0
 41
0
  0
VERTEX
  8
0
 10
8.46847
 20
1.65994
 30
0.0
 40
0
 41
0
  0
VERTEX
  8
0
 10
8.4764
 20
1.66922
 30
0.0
 40
0
 41
0
  0
VERTEX
  8
0
 10
8.47917
 20
1.67219
 30
0.0
 40
0
 41
0
  0
VERTEX
  8
0
 10
8.51247
 20
1.70833
 30
0.0
 40
0
 41
0
  0
VERTEX
  8
0
 10
9.59304
 20
1.70833
 30
0.0
 40
0
 41
0
  0
VERTEX
  8
0
 10
9.60835
 20
1.74306
 30
0.0
 40
0
 41
0
  0
VERTEX
  8
0
 10
9.61111
 20
1.74935
 30
0.0
 40
0
 41
0
  0
VERTEX
  8
0
 10
9.61561
 20
1.78103
 30
0.0
 40
0
 41
0
  0
VERTEX
  8
0
 10
9.62082
 20
1.85818
 30
0.0
 40
0
 41
0
  0
VERTEX
  8
0
 10
9.62392
 20
1.97569
 30
0.0
 40
0
 41
0
  0
VERTEX
  8
0
 10
9.625
 20
2.095
 30
0.0
 40
0
 41
0
  0
VERTEX
  8
0
 10
9.625
 20
2.13471
 30
0.0
 40
0
 41
0
  0
VERTEX
  8
0
 10
9.625
 20
2.16342
 30
0.0
 40
0
 41
0
  0
VERTEX
  8
0
 10
9.62483
 20
2.24935
 30
0.0
 40
0
 41
0
  0
VERTEX
  8
0
 10
9.62429
 20
2.33658
 30
0.0
 40
0
 41
0
  0
VERTEX
  8
0
 10
9.62299
 20
2.40056
 30
0.0
 40
0
 41
0
  0
VERTEX
  8
0
 10
9.62061
 20
2.44536
 30
0.0
 40
0
 41
0
  0
VERTEX
  8
0
 10
9.61692
 20
2.4751
 30
0.0
 40
0
 41
0
  0
VERTEX
  8
0
 10
9.61149
 20
2.49393
 30
0.0
 40
0
 41
0
  0
VERTEX
  8
0
 10
9.60411
 20
2.50597
 30
0.0
 40
0
 41
0
  0
VERTEX
  8
0
 10
9.59694
 20
2.51313
 30
0.0
 40
0
 41
0
  0
VERTEX
  8
0
 10
9.59446
 20
2.51531
 30
0.0
 40
0
 41
0
  0
VERTEX
  8
0
 10
9.59174
 20
2.51774
 30
0.0
 40
0
 41
0
  0
VERTEX
  8
0
 10
9.58242
 20
2.5236
 30
0.0
 40
0
 41
0
  0
VERTEX
  8
0
 10
9.5625
 20
2.52994
 30
0.0
 40
0
 41
0
  0
VERTEX
  8
0
 10
9.5275
 20
2.53456
 30
0.0
 40
0
 41
0
  0
VERTEX
  8
0
 10
9.47026
 20
2.53771
 30
0.0
 40
0
 41
0
  0
VERTEX
  8
0
 10
9.38374
 20
2.53961
 30
0.0
 40
0
 41
0
  0
VERTEX
  8
0
 10
9.26064
 20
2.54047
 30
0.0
 40
0
 41
0
  0
VERTEX
  8
0
 10
9.09392
 20
2.54064
 30
0.0
 40
0
 41
0
  0
VERTEX
  8
0
 10
8.93078
 20
2.54036
 30
0.0
 40
0
 41
0
  0
VERTEX
  8
0
 10
8.87642
 20
2.54025
 30
0.0
 40
0
 41
0
  0
VERTEX
  8
0
 10
8.84164
 20
2.54015
 30
0.0
 40
0
 41
0
  0
VERTEX
  8
0
 10
8.73742
 20
2.53971
 30
0.0
 40
0
 41
0
  0
VERTEX
  8
0
 10
8.60682
 20
2.53901
 30
0.0
 40
0
 41
0
  0
VERTEX
  8
0
 10
8.48757
 20
2.53814
 30
0.0
 40
0
 41
0
  0
VERTEX
  8
0
 10
8.3826
 20
2.53717
 30
0.0
 40
0
 41
0
  0
VERTEX
  8
0
 10
8.29482
 20
2.53608
 30
0.0
 40
0
 41
0
  0
VERTEX
  8
0
 10
8.22715
 20
2.53483
 30
0.0
 40
0
 41
0
  0
VERTEX
  8
0
 10
8.18251
 20
2.53347
 30
0.0
 40
0
 41
0
  0
VERTEX
  8
0
 10
8.16699
 20
2.53304
 30
0.0
 40
0
 41
0
  0
VERTEX
  8
0
 10
8.1639
 20
2.53196
 30
0.0
 40
0
 41
0
  0
SEQEND
 8
0
  0
POLYLINE
  8
0
 62
     0
 66
     1
 10
0
 20
0
 30
0.0
 70
     1
 40
0
 41
0
  0
VERTEX
  8
0
 10
9.27636
 20
2.18892
 30
0.0
 40
0
 41
0
  0
VERTEX
  8
0
 10
9.28239
 20
2.18338
 30
0.0
 40
0
 41
0
  0
VERTEX
  8
0
 10
9.29585
 20
2.16151
 30
0.0
 40
0
 41
0
  0
VERTEX
  8
0
 10
9.30414
 20
2.12815
 30
0.0
 40
0
 41
0
  0
VERTEX
  8
0
 10
9.301
 20
2.09321
 30
0.0
 40
0
 41
0
  0
VERTEX
  8
0
 10
9.29118
 20
2.06819
 30
0.0
 40
0
 41
0
  0
VERTEX
  8
0
 10
9.28614
 20
2.06108
 30
0.0
 40
0
 41
0
  0
VERTEX
  8
0
 10
9.28444
 20
2.05886
 30
0.0
 40
0
 41
0
  0
VERTEX
  8
0
 10
9.27849
 20
2.05279
 30
0.0
 40
0
 41
0
  0
VERTEX
  8
0
 10
9.26682
 20
2.04639
 30
0.0
 40
0
 41
0
  0
VERTEX
  8
0
 10
9.24756
 20
2.04161
 30
0.0
 40
0
 41
0
  0
VERTEX
  8
0
 10
9.21718
 20
2.03803
 30
0.0
 40
0
 41
0
  0
VERTEX
  8
0
 10
9.17215
 20
2.03549
 30
0.0
 40
0
 41
0
  0
VERTEX
  8
0
 10
9.10894
 20
2.03358
 30
0.0
 40
0
 41
0
  0
VERTEX
  8
0
 10
9.02403
 20
2.03207
 30
0.0
 40
0
 41
0
  0
VERTEX
  8
0
 10
8.9414
 20
2.03093
 30
0.0
 40
0
 41
0
  0
VERTEX
  8
0
 10
8.9139
 20
2.03054
 30
0.0
 40
0
 41
0
  0
VERTEX
  8
0
 10
8.87896
 20
2.03006
 30
0.0
 40
0
 41
0
  0
VERTEX
  8
0
 10
8.77408
 20
2.02929
 30
0.0
 40
0
 41
0
  0
VERTEX
  8
0
 10
8.6531
 20
2.02957
 30
0.0
 40
0
 41
0
  0
VERTEX
  8
0
 10
8.56386
 20
2.03136
 30
0.0
 40
0
 41
0
  0
VERTEX
  8
0
 10
8.52533
 20
2.03336
 30
0.0
 40
0
 41
0
  0
VERTEX
  8
0
 10
8.51942
 20
2.03472
 30
0.0
 40
0
 41
0
  0
VERTEX
  8
0
 10
8.51172
 20
2.03618
 30
0.0
 40
0
 41
0
  0
VERTEX
  8
0
 10
8.4899
 20
2.0466
 30
0.0
 40
0
 41
0
  0
VERTEX
  8
0
 10
8.46832
 20
2.0676
 30
0.0
 40
0
 41
0
  0
VERTEX
  8
0
 10
8.45464
 20
2.09467
 30
0.0
 40
0
 41
0
  0
VERTEX
  8
0
 10
8.44911
 20
2.12468
 30
0.0
 40
0
 41
0
  0
VERTEX
  8
0
 10
8.45182
 20
2.15457
 30
0.0
 40
0
 41
0
  0
VERTEX
  8
0
 10
8.463
 20
2.18126
 30
0.0
 40
0
 41
0
  0
VERTEX
  8
0
 10
8.48269
 20
2.20161
 30
0.0
 40
0
 41
0
  0
VERTEX
  8
0
 10
8.50375
 20
2.21137
 30
0.0
 40
0
 41
0
  0
VERTEX
  8
0
 10
8.51113
 20
2.21251
 30
0.0
 40
0
 41
0
  0
VERTEX
  8
0
 10
8.51633
 20
2.2136
 30
0.0
 40
0
 41
0
  0
VERTEX
  8
0
 10
8.55328
 20
2.21517
 30
0.0
 40
0
 41
0
  0
VERTEX
  8
0
 10
8.64008
 20
2.21669
 30
0.0
 40
0
 41
0
  0
VERTEX
  8
0
 10
8.75896
 20
2.21724
 30
0.0
 40
0
 41
0
  0
VERTEX
  8
0
 10
8.86268
 20
2.21696
 30
0.0
 40
0
 41
0
  0
VERTEX
  8
0
 10
8.89725
 20
2.21669
 30
0.0
 40
0
 41
0
  0
VERTEX
  8
0
 10
8.92426
 20
2.21658
 30
0.0
 40
0
 41
0
  0
VERTEX
  8
0
 10
9.00532
 20
2.21615
 30
0.0
 40
0
 41
0
  0
VERTEX
  8
0
 10
9.08925
 20
2.21528
 30
0.0
 40
0
 41
0
  0
VERTEX
  8
0
 10
9.1524
 20
2.21386
 30
0.0
 40
0
 41
0
  0
VERTEX
  8
0
 10
9.19824
 20
2.21164
 30
0.0
 40
0
 41
0
  0
VERTEX
  8
0
 10
9.23008
 20
2.20833
 30
0.0
 40
0
 41
0
  0
VERTEX
  8
0
 10
9.25146
 20
2.20361
 30
0.0
 40
0
 41
0
  0
VERTEX
  8
0
 10
9.26574
 20
2.19726
 30
0.0
 40
0
 41
0
  0
VERTEX
  8
0
 10
9.27393
 20
2.19125
 30
0.0
 40
0
 41
0
  0
VERTEX
  8
0
 10
9.27636
 20
2.18892
 30
0.0
 40
0
 41
0
  0
SEQEND
 8
0
  0
POLYLINE
  8
0
 62
     0
 66
     1
 10
0
 20
0
 30
0.0
 70
     1
 40
0
 41
0
  0
VERTEX
  8
0
 10
1.99306
 20
2.13053
 30
0.0
 40
0
 41
0
  0
VERTEX
  8
0
 10
1.98665
 20
2.12364
 30
0.0
 40
0
 41
0
  0
VERTEX
  8
0
 10
1.96756
 20
2.10281
 30
0.0
 40
0
 41
0
  0
VERTEX
  8
0
 10
1.93918
 20
2.07206
 30
0.0
 40
0
 41
0
  0
VERTEX
  8
0
 10
1.91135
 20
2.0421
 30
0.0
 40
0
 41
0
  0
VERTEX
  8
0
 10
1.89344
 20
2.023
 30
0.0
 40
0
 41
0
  0
VERTEX
  8
0
 10
1.88747
 20
2.01665
 30
0.0
 40
0
 41
0
  0
VERTEX
  8
0
 10
1.87646
 20
2.00515
 30
0.0
 40
0
 41
0
  0
VERTEX
  8
0
 10
1.84386
 20
1.97011
 30
0.0
 40
0
 41
0
  0
VERTEX
  8
0
 10
1.79899
 20
1.92063
 30
0.0
 40
0
 41
0
  0
VERTEX
  8
0
 10
1.75499
 20
1.87082
 30
0.0
 40
0
 41
0
  0
VERTEX
  8
0
 10
1.71403
 20
1.82329
 30
0.0
 40
0
 41
0
  0
VERTEX
  8
0
 10
1.67839
 20
1.78054
 30
0.0
 40
0
 41
0
  0
VERTEX
  8
0
 10
1.65018
 20
1.74517
 30
0.0
 40
0
 41
0
  0
VERTEX
  8
0
 10
1.63162
 20
1.71983
 30
0.0
 40
0
 41
0
  0
VERTEX
  8
0
 10
1.625
 20
1.71018
 30
0.0
 40
0
 41
0
  0
VERTEX
  8
0
 10
1.625
 20
1.70692
 30
0.0
 40
0
 41
0
  0
VERTEX
  8
0
 10
1.625
 20
1.70383
 30
0.0
 40
0
 41
0
  0
VERTEX
  8
0
 10
1.63172
 20
1.6945
 30
0.0
 40
0
 41
0
  0
VERTEX
  8
0
 10
1.65213
 20
1.67046
 30
0.0
 40
0
 41
0
  0
VERTEX
  8
0
 10
1.68642
 20
1.6346
 30
0.0
 40
0
 41
0
  0
VERTEX
  8
0
 10
1.73486
 20
1.58664
 30
0.0
 40
0
 41
0
  0
VERTEX
  8
0
 10
1.79769
 20
1.52642
 30
0.0
 40
0
 41
0
  0
VERTEX
  8
0
 10
1.87517
 20
1.45367
 30
0.0
 40
0
 41
0
  0
VERTEX
  8
0
 10
1.9675
 20
1.36806
 30
0.0
 40
0
 41
0
  0
VERTEX
  8
0
 10
2.04807
 20
1.29405
 30
0.0
 40
0
 41
0
  0
VERTEX
  8
0
 10
2.07497
 20
1.26942
 30
0.0
 40
0
 41
0
  0
VERTEX
  8
0
 10
2.08404
 20
1.26123
 30
0.0
 40
0
 41
0
  0
VERTEX
  8
0
 10
2.11214
 20
1.23752
 30
0.0
 40
0
 41
0
  0
VERTEX
  8
0
 10
2.14025
 20
1.21897
 30
0.0
 40
0
 41
0
  0
VERTEX
  8
0
 10
2.16521
 20
1.21105
 30
0.0
 40
0
 41
0
  0
VERTEX
  8
0
 10
2.18614
 20
1.21045
 30
0.0
 40
0
 41
0
  0
VERTEX
  8
0
 10
2.19303
 20
1.2111
 30
0.0
 40
0
 41
0
  0
VERTEX
  8
0
 10
2.20014
 20
1.21175
 30
0.0
 40
0
 41
0
  0
VERTEX
  8
0
 10
2.22136
 20
1.21571
 30
0.0
 40
0
 41
0
  0
VERTEX
  8
0
 10
2.24149
 20
1.22694
 30
0.0
 40
0
 41
0
  0
VERTEX
  8
0
 10
2.25922
 20
1.25038
 30
0.0
 40
0
 41
0
  0
VERTEX
  8
0
 10
2.2755
 20
1.28125
 30
0.0
 40
0
 41
0
  0
VERTEX
  8
0
 10
2.28054
 20
1.29167
 30
0.0
 40
0
 41
0
  0
VERTEX
  8
0
 10
2.28435
 20
1.29932
 30
0.0
 40
0
 41
0
  0
VERTEX
  8
0
 10
2.29542
 20
1.32243
 30
0.0
 40
0
 41
0
  0
VERTEX
  8
0
 10
2.30778
 20
1.35004
 30
0.0
 40
0
 41
0
  0
VERTEX
  8
0
 10
2.31625
 20
1.37137
 30
0.0
 40
0
 41
0
  0
VERTEX
  8
0
 10
2.31944
 20
1.38037
 30
0.0
 40
0
 41
0
  0
VERTEX
  8
0
 10
2.31944
 20
1.38336
 30
0.0
 40
0
 41
0
  0
VERTEX
  8
0
 10
2.31944
 20
1.38715
 30
0.0
 40
0
 41
0
  0
VERTEX
  8
0
 10
2.32542
 20
1.39839
 30
0.0
 40
0
 41
0
  0
VERTEX
  8
0
 10
2.34179
 20
1.42008
 30
0.0
 40
0
 41
0
  0
VERTEX
  8
0
 10
2.36615
 20
1.44629
 30
0.0
 40
0
 41
0
  0
VERTEX
  8
0
 10
2.39615
 20
1.47488
 30
0.0
 40
0
 41
0
  0
VERTEX
  8
0
 10
2.42942
 20
1.50364
 30
0.0
 40
0
 41
0
  0
VERTEX
  8
0
 10
2.46354
 20
1.53043
 30
0.0
 40
0
 41
0
  0
VERTEX
  8
0
 10
2.49621
 20
1.55311
 30
0.0
 40
0
 41
0
  0
VERTEX
  8
0
 10
2.51753
 20
1.56592
 30
0.0
 40
0
 41
0
  0
VERTEX
  8
0
 10
2.52501
 20
1.56944
 30
0.0
 40
0
 41
0
  0
VERTEX
  8
0
 10
2.53722
 20
1.57557
 30
0.0
 40
0
 41
0
  0
VERTEX
  8
0
 10
2.57167
 20
1.59842
 30
0.0
 40
0
 41
0
  0
VERTEX
  8
0
 10
2.59978
 20
1.63043
 30
0.0
 40
0
 41
0
  0
VERTEX
  8
0
 10
2.60992
 20
1.66732
 30
0.0
 40
0
 41
0
  0
VERTEX
  8
0
 10
2.60613
 20
1.70068
 30
0.0
 40
0
 41
0
  0
VERTEX
  8
0
 10
2.60275
 20
1.7111
 30
0.0
 40
0
 41
0
  0
VERTEX
  8
0
 10
2.60183
 20
1.71419
 30
0.0
 40
0
 41
0
  0
VERTEX
  8
0
 10
2.59853
 20
1.72314
 30
0.0
 40
0
 41
0
  0
VERTEX
  8
0
 10
2.59185
 20
1.7354
 30
0.0
 40
0
 41
0
  0
VERTEX
  8
0
 10
2.58089
 20
1.74989
 30
0.0
 40
0
 41
0
  0
VERTEX
  8
0
 10
2.56369
 20
1.76861
 30
0.0
 40
0
 41
0
  0
VERTEX
  8
0
 10
2.53836
 20
1.79351
 30
0.0
 40
0
 41
0
  0
VERTEX
  8
0
 10
2.50293
 20
1.82656
 30
0.0
 40
0
 41
0
  0
VERTEX
  8
0
 10
2.45562
 20
1.86974
 30
0.0
 40
0
 41
0
  0
VERTEX
  8
0
 10
2.40972
 20
1.91124
 30
0.0
 40
0
 41
0
  0
VERTEX
  8
0
 10
2.39442
 20
1.92503
 30
0.0
 40
0
 41
0
  0
VERTEX
  8
0
 10
2.37358
 20
1.94374
 30
0.0
 40
0
 41
0
  0
VERTEX
  8
0
 10
2.31108
 20
1.99963
 30
0.0
 40
0
 41
0
  0
VERTEX
  8
0
 10
2.24343
 20
2.05968
 30
0.0
 40
0
 41
0
  0
VERTEX
  8
0
 10
2.18967
 20
2.10667
 30
0.0
 40
0
 41
0
  0
VERTEX
  8
0
 10
2.14806
 20
2.14187
 30
0.0
 40
0
 41
0
  0
VERTEX
  8
0
 10
2.11697
 20
2.16672
 30
0.0
 40
0
 41
0
  0
VERTEX
  8
0
 10
2.09463
 20
2.18261
 30
0.0
 40
0
 41
0
  0
VERTEX
  8
0
 10
2.07932
 20
2.19097
 30
0.0
 40
0
 41
0
  0
VERTEX
  8
0
 10
2.07183
 20
2.19319
 30
0.0
 40
0
 41
0
  0
VERTEX
  8
0
 10
2.06944
 20
2.19303
 30
0.0
 40
0
 41
0
  0
VERTEX
  8
0
 10
2.06635
 20
2.19303
 30
0.0
 40
0
 41
0
  0
VERTEX
  8
0
 10
2.05707
 20
2.18815
 30
0.0
 40
0
 41
0
  0
VERTEX
  8
0
 10
2.03851
 20
2.17481
 30
0.0
 40
0
 41
0
  0
VERTEX
  8
0
 10
2.01628
 20
2.15494
 30
0.0
 40
0
 41
0
  0
VERTEX
  8
0
 10
1.99858
 20
2.13687
 30
0.0
 40
0
 41
0
  0
VERTEX
  8
0
 10
1.99306
 20
2.13053
 30
0.0
 40
0
 41
0
  0
SEQEND
 8
0
  0
POLYLINE
  8
0
 62
     0
 66
     1
 10
0
 20
0
 30
0.0
 70
     1
 40
0
 41
0
  0
VERTEX
  8
0
 10
3.96251
 20
2.15696
 30
0.0
 40
0
 41
0
  0
VERTEX
  8
0
 10
3.95936
 20
2.15603
 30
0.0
 40
0
 41
0
  0
VERTEX
  8
0
 10
3.95378
 20
2.1409
 30
0.0
 40
0
 41
0
  0
VERTEX
  8
0
 10
3.94824
 20
2.09483
 30
0.0
 40
0
 41
0
  0
VERTEX
  8
0
 10
3.94532
 20
2.01286
 30
0.0
 40
0
 41
0
  0
VERTEX
  8
0
 10
3.94444
 20
1.91992
 30
0.0
 40
0
 41
0
  0
VERTEX
  8
0
 10
3.94444
 20
1.88889
 30
0.0
 40
0
 41
0
  0
VERTEX
  8
0
 10
3.94444
 20
1.85265
 30
0.0
 40
0
 41
0
  0
VERTEX
  8
0
 10
3.94504
 20
1.74376
 30
0.0
 40
0
 41
0
  0
VERTEX
  8
0
 10
3.94824
 20
1.66303
 30
0.0
 40
0
 41
0
  0
VERTEX
  8
0
 10
3.95617
 20
1.62582
 30
0.0
 40
0
 41
0
  0
VERTEX
  8
0
 10
3.96642
 20
1.61356
 30
0.0
 40
0
 41
0
  0
VERTEX
  8
0
 10
3.97081
 20
1.61111
 30
0.0
 40
0
 41
0
  0
VERTEX
  8
0
 10
3.97532
 20
1.60906
 30
0.0
 40
0
 41
0
  0
VERTEX
  8
0
 10
4.01563
 20
1.60547
 30
0.0
 40
0
 41
0
  0
VERTEX
  8
0
 10
4.12028
 20
1.60107
 30
0.0
 40
0
 41
0
  0
VERTEX
  8
0
 10
4.28039
 20
1.59825
 30
0.0
 40
0
 41
0
  0
VERTEX
  8
0
 10
4.43881
 20
1.59722
 30
0.0
 40
0
 41
0
  0
VERTEX
  8
0
 10
4.49164
 20
1.59722
 30
0.0
 40
0
 41
0
  0
VERTEX
  8
0
 10
4.98469
 20
1.59722
 30
0.0
 40
0
 41
0
  0
VERTEX
  8
0
 10
5.00553
 20
1.62776
 30
0.0
 40
0
 41
0
  0
VERTEX
  8
0
 10
5.00944
 20
1.63325
 30
0.0
 40
0
 41
0
  0
VERTEX
  8
0
 10
5.0166
 20
1.65294
 30
0.0
 40
0
 41
0
  0
VERTEX
  8
0
 10
5.02339
 20
1.6976
 30
0.0
 40
0
 41
0
  0
VERTEX
  8
0
 10
5.02681
 20
1.77197
 30
0.0
 40
0
 41
0
  0
VERTEX
  8
0
 10
5.02778
 20
1.85758
 30
0.0
 40
0
 41
0
  0
VERTEX
  8
0
 10
5.02778
 20
1.88612
 30
0.0
 40
0
 41
0
  0
VERTEX
  8
0
 10
5.02778
 20
1.90918
 30
0.0
 40
0
 41
0
  0
VERTEX
  8
0
 10
5.02675
 20
1.97819
 30
0.0
 40
0
 41
0
  0
VERTEX
  8
0
 10
5.02393
 20
2.05593
 30
0.0
 40
0
 41
0
  0
VERTEX
  8
0
 10
5.01953
 20
2.11231
 30
0.0
 40
0
 41
0
  0
VERTEX
  8
0
 10
5.01594
 20
2.1365
 30
0.0
 40
0
 41
0
  0
VERTEX
  8
0
 10
5.01389
 20
2.14031
 30
0.0
 40
0
 41
0
  0
VERTEX
  8
0
 10
5.01178
 20
2.1441
 30
0.0
 40
0
 41
0
  0
VERTEX
  8
0
 10
5.00271
 20
2.15381
 30
0.0
 40
0
 41
0
  0
VERTEX
  8
0
 10
4.98508
 20
2.16183
 30
0.0
 40
0
 41
0
  0
VERTEX
  8
0
 10
4.95643
 20
2.16569
 30
0.0
 40
0
 41
0
  0
VERTEX
  8
0
 10
4.92344
 20
2.16667
 30
0.0
 40
0
 41
0
  0
VERTEX
  8
0
 10
4.91249
 20
2.16667
 30
0.0
 40
0
 41
0
  0
VERTEX
  8
0
 10
4.90369
 20
2.16667
 30
0.0
 40
0
 41
0
  0
VERTEX
  8
0
 10
4.87739
 20
2.16547
 30
0.0
 40
0
 41
0
  0
VERTEX
  8
0
 10
4.84549
 20
2.16233
 30
0.0
 40
0
 41
0
  0
VERTEX
  8
0
 10
4.82032
 20
2.15788
 30
0.0
 40
0
 41
0
  0
VERTEX
  8
0
 10
4.80832
 20
2.15451
 30
0.0
 40
0
 41
0
  0
VERTEX
  8
0
 10
4.80556
 20
2.15278
 30
0.0
 40
0
 41
0
  0
VERTEX
  8
0
 10
4.80225
 20
2.15072
 30
0.0
 40
0
 41
0
  0
VERTEX
  8
0
 10
4.79551
 20
2.13926
 30
0.0
 40
0
 41
0
  0
VERTEX
  8
0
 10
4.78797
 20
2.11094
 30
0.0
 40
0
 41
0
  0
VERTEX
  8
0
 10
4.78228
 20
2.06472
 30
0.0
 40
0
 41
0
  0
VERTEX
  8
0
 10
4.77865
 20
2.01411
 30
0.0
 40
0
 41
0
  0
VERTEX
  8
0
 10
4.77778
 20
1.99724
 30
0.0
 40
0
 41
0
  0
VERTEX
  8
0
 10
4.77707
 20
1.9821
 30
0.0
 40
0
 41
0
  0
VERTEX
  8
0
 10
4.77474
 20
1.93653
 30
0.0
 40
0
 41
0
  0
VERTEX
  8
0
 10
4.76942
 20
1.89139
 30
0.0
 40
0
 41
0
  0
VERTEX
  8
0
 10
4.75786
 20
1.8596
 30
0.0
 40
0
 41
0
  0
VERTEX
  8
0
 10
4.73628
 20
1.83892
 30
0.0
 40
0
 41
0
  0
VERTEX
  8
0
 10
4.70063
 20
1.8271
 30
0.0
 40
0
 41
0
  0
VERTEX
  8
0
 10
4.64708
 20
1.82183
 30
0.0
 40
0
 41
0
  0
VERTEX
  8
0
 10
4.57178
 20
1.82096
 30
0.0
 40
0
 41
0
  0
VERTEX
  8
0
 10
4.49604
 20
1.82189
 30
0.0
 40
0
 41
0
  0
VERTEX
  8
0
 10
4.47081
 20
1.82221
 30
0.0
 40
0
 41
0
  0
VERTEX
  8
0
 10
4.44683
 20
1.82269
 30
0.0
 40
0
 41
0
  0
VERTEX
  8
0
 10
4.375
 20
1.82437
 30
0.0
 40
0
 41
0
  0
VERTEX
  8
0
 10
4.303
 20
1.82796
 30
0.0
 40
0
 41
0
  0
VERTEX
  8
0
 10
4.25142
 20
1.8349
 30
0.0
 40
0
 41
0
  0
VERTEX
  8
0
 10
4.21679
 20
1.84711
 30
0.0
 40
0
 41
0
  0
VERTEX
  8
0
 10
4.19586
 20
1.86654
 30
0.0
 40
0
 41
0
  0
VERTEX
  8
0
 10
4.18506
 20
1.89513
 30
0.0
 40
0
 41
0
  0
VERTEX
  8
0
 10
4.1811
 20
1.93485
 30
0.0
 40
0
 41
0
  0
VERTEX
  8
0
 10
4.18056
 20
1.97439
 30
0.0
 40
0
 41
0
  0
VERTEX
  8
0
 10
4.18056
 20
1.98753
 30
0.0
 40
0
 41
0
  0
VERTEX
  8
0
 10
4.18056
 20
1.99875
 30
0.0
 40
0
 41
0
  0
VERTEX
  8
0
 10
4.17953
 20
2.03233
 30
0.0
 40
0
 41
0
  0
VERTEX
  8
0
 10
4.17671
 20
2.07417
 30
0.0
 40
0
 41
0
  0
VERTEX
  8
0
 10
4.17231
 20
2.1084
 30
0.0
 40
0
 41
0
  0
VERTEX
  8
0
 10
4.16872
 20
2.12571
 30
0.0
 40
0
 41
0
  0
VERTEX
  8
0
 10
4.16667
 20
2.13053
 30
0.0
 40
0
 41
0
  0
VERTEX
  8
0
 10
4.16471
 20
2.13569
 30
0.0
 40
0
 41
0
  0
VERTEX
  8
0
 10
4.15707
 20
2.15028
 30
0.0
 40
0
 41
0
  0
VERTEX
  8
0
 10
4.14219
 20
2.16097
 30
0.0
 40
0
 41
0
  0
VERTEX
  8
0
 10
4.11453
 20
2.16515
 30
0.0
 40
0
 41
0
  0
VERTEX
  8
0
 10
4.07861
 20
2.16547
 30
0.0
 40
0
 41
0
  0
VERTEX
  8
0
 10
4.06668
 20
2.16525
 30
0.0
 40
0
 41
0
  0
VERTEX
  8
0
 10
4.05772
 20
2.16525
 30
0.0
 40
0
 41
0
  0
VERTEX
  8
0
 10
4.03103
 20
2.16456
 30
0.0
 40
0
 41
0
  0
VERTEX
  8
0
 10
3.99946
 20
2.16271
 30
0.0
 40
0
 41
0
  0
VERTEX
  8
0
 10
3.97542
 20
2.16004
 30
0.0
 40
0
 41
0
  0
VERTEX
  8
0
 10
3.96457
 20
2.15804
 30
0.0
 40
0
 41
0
  0
VERTEX
  8
0
 10
3.96251
 20
2.15696
 30
0.0
 40
0
 41
0
  0
SEQEND
 8
0
  0
POLYLINE
  8
0
 62
     0
 66
     1
 10
0
 20
0
 30
0.0
 70
     1
 40
0
 41
0
  0
VERTEX
  8
0
 10
5.09169
 20
2.14442
 30
0.0
 40
0
 41
0
  0
VERTEX
  8
0
 10
5.08822
 20
2.14094
 30
0.0
 40
0
 41
0
  0
VERTEX
  8
0
 10
5.07536
 20
2.11111
 30
0.0
 40
0
 41
0
  0
VERTEX
  8
0
 10
5.06944
 20
2.07053
 30
0.0
 40
0
 41
0
  0
VERTEX
  8
0
 10
5.06944
 20
2.05697
 30
0.0
 40
0
 41
0
  0
VERTEX
  8
0
 10
5.06944
 20
2.04758
 30
0.0
 40
0
 41
0
  0
VERTEX
  8
0
 10
5.07004
 20
2.01942
 30
0.0
 40
0
 41
0
  0
VERTEX
  8
0
 10
5.07525
 20
1.99132
 30
0.0
 40
0
 41
0
  0
VERTEX
  8
0
 10
5.09022
 20
1.97131
 30
0.0
 40
0
 41
0
  0
VERTEX
  8
0
 10
5.12011
 20
1.95801
 30
0.0
 40
0
 41
0
  0
VERTEX
  8
0
 10
5.17008
 20
1.95003
 30
0.0
 40
0
 41
0
  0
VERTEX
  8
0
 10
5.24522
 20
1.94601
 30
0.0
 40
0
 41
0
  0
VERTEX
  8
0
 10
5.35069
 20
1.94461
 30
0.0
 40
0
 41
0
  0
VERTEX
  8
0
 10
5.45638
 20
1.94444
 30
0.0
 40
0
 41
0
  0
VERTEX
  8
0
 10
5.49164
 20
1.94444
 30
0.0
 40
0
 41
0
  0
VERTEX
  8
0
 10
5.53076
 20
1.94444
 30
0.0
 40
0
 41
0
  0
VERTEX
  8
0
 10
5.64822
 20
1.94347
 30
0.0
 40
0
 41
0
  0
VERTEX
  8
0
 10
5.77061
 20
1.94065
 30
0.0
 40
0
 41
0
  0
VERTEX
  8
0
 10
5.85314
 20
1.93625
 30
0.0
 40
0
 41
0
  0
VERTEX
  8
0
 10
5.88612
 20
1.93267
 30
0.0
 40
0
 41
0
  0
VERTEX
  8
0
 10
5.89031
 20
1.93056
 30
0.0
 40
0
 41
0
  0
VERTEX
  8
0
 10
5.89524
 20
1.92785
 30
0.0
 40
0
 41
0
  0
VERTEX
  8
0
 10
5.90707
 20
1.91385
 30
0.0
 40
0
 41
0
  0
VERTEX
  8
0
 10
5.91525
 20
1.88926
 30
0.0
 40
0
 41
0
  0
VERTEX
  8
0
 10
5.91411
 20
1.86106
 30
0.0
 40
0
 41
0
  0
VERTEX
  8
0
 10
5.90674
 20
1.83957
 30
0.0
 40
0
 41
0
  0
VERTEX
  8
0
 10
5.90278
 20
1.83333
 30
0.0
 40
0
 41
0
  0
VERTEX
  8
0
 10
5.90022
 20
1.82958
 30
0.0
 40
0
 41
0
  0
VERTEX
  8
0
 10
5.88542
 20
1.82308
 30
0.0
 40
0
 41
0
  0
VERTEX
  8
0
 10
5.84131
 20
1.81668
 30
0.0
 40
0
 41
0
  0
VERTEX
  8
0
 10
5.75706
 20
1.81342
 30
0.0
 40
0
 41
0
  0
VERTEX
  8
0
 10
5.65386
 20
1.8125
 30
0.0
 40
0
 41
0
  0
VERTEX
  8
0
 10
5.61947
 20
1.8125
 30
0.0
 40
0
 41
0
  0
VERTEX
  8
0
 10
5.58138
 20
1.8125
 30
0.0
 40
0
 41
0
  0
VERTEX
  8
0
 10
5.46729
 20
1.81321
 30
0.0
 40
0
 41
0
  0
VERTEX
  8
0
 10
5.3814
 20
1.81706
 30
0.0
 40
0
 41
0
  0
VERTEX
  8
0
 10
5.33643
 20
1.82661
 30
0.0
 40
0
 41
0
  0
VERTEX
  8
0
 10
5.31375
 20
1.83931
 30
0.0
 40
0
 41
0
  0
VERTEX
  8
0
 10
5.30697
 20
1.84446
 30
0.0
 40
0
 41
0
  0
VERTEX
  8
0
 10
5.29519
 20
1.85325
 30
0.0
 40
0
 41
0
  0
VERTEX
  8
0
 10
5.25239
 20
1.86947
 30
0.0
 40
0
 41
0
  0
VERTEX
  8
0
 10
5.18837
 20
1.87782
 30
0.0
 40
0
 41
0
  0
VERTEX
  8
0
 10
5.12978
 20
1.86947
 30
0.0
 40
0
 41
0
  0
VERTEX
  8
0
 10
5.09765
 20
1.85314
 30
0.0
 40
0
 41
0
  0
VERTEX
  8
0
 10
5.09169
 20
1.84446
 30
0.0
 40
0
 41
0
  0
VERTEX
  8
0
 10
5.08344
 20
1.83279
 30
0.0
 40
0
 41
0
  0
VERTEX
  8
0
 10
5.07335
 20
1.78737
 30
0.0
 40
0
 41
0
  0
VERTEX
  8
0
 10
5.06803
 20
1.70557
 30
0.0
 40
0
 41
0
  0
VERTEX
  8
0
 10
5.07525
 20
1.6269
 30
0.0
 40
0
 41
0
  0
VERTEX
  8
0
 10
5.0861
 20
1.58681
 30
0.0
 40
0
 41
0
  0
VERTEX
  8
0
 10
5.09446
 20
1.57915
 30
0.0
 40
0
 41
0
  0
VERTEX
  8
0
 10
5.10249
 20
1.572
 30
0.0
 40
0
 41
0
  0
VERTEX
  8
0
 10
5.13514
 20
1.55985
 30
0.0
 40
0
 41
0
  0
VERTEX
  8
0
 10
5.19114
 20
1.55561
 30
0.0
 40
0
 41
0
  0
VERTEX
  8
0
 10
5.25358
 20
1.56592
 30
0.0
 40
0
 41
0
  0
VERTEX
  8
0
 10
5.29981
 20
1.58247
 30
0.0
 40
0
 41
0
  0
VERTEX
  8
0
 10
5.31392
 20
1.59028
 30
0.0
 40
0
 41
0
  0
VERTEX
  8
0
 10
5.32362
 20
1.59571
 30
0.0
 40
0
 41
0
  0
VERTEX
  8
0
 10
5.354
 20
1.60981
 30
0.0
 40
0
 41
0
  0
VERTEX
  8
0
 10
5.40153
 20
1.62017
 30
0.0
 40
0
 41
0
  0
VERTEX
  8
0
 10
5.48167
 20
1.62429
 30
0.0
 40
0
 41
0
  0
VERTEX
  8
0
 10
5.58501
 20
1.625
 30
0.0
 40
0
 41
0
  0
VERTEX
  8
0
 10
5.61947
 20
1.625
 30
0.0
 40
0
 41
0
  0
VERTEX
  8
0
 10
5.64437
 20
1.625
 30
0.0
 40
0
 41
0
  0
VERTEX
  8
0
 10
5.71918
 20
1.62403
 30
0.0
 40
0
 41
0
  0
VERTEX
  8
0
 10
5.80171
 20
1.62121
 30
0.0
 40
0
 41
0
  0
VERTEX
  8
0
 10
5.86083
 20
1.61681
 30
0.0
 40
0
 41
0
  0
VERTEX
  8
0
 10
5.88612
 20
1.61322
 30
0.0
 40
0
 41
0
  0
VERTEX
  8
0
 10
5.89031
 20
1.61111
 30
0.0
 40
0
 41
0
  0
VERTEX
  8
0
 10
5.89535
 20
1.60824
 30
0.0
 40
0
 41
0
  0
VERTEX
  8
0
 10
5.90767
 20
1.59457
 30
0.0
 40
0
 41
0
  0
VERTEX
  8
0
 10
5.91581
 20
1.57118
 30
0.0
 40
0
 41
0
  0
VERTEX
  8
0
 10
5.91428
 20
1.54313
 30
0.0
 40
0
 41
0
  0
VERTEX
  8
0
 10
5.90657
 20
1.51964
 30
0.0
 40
0
 41
0
  0
VERTEX
  8
0
 10
5.90278
 20
1.51247
 30
0.0
 40
0
 41
0
  0
VERTEX
  8
0
 10
5.90153
 20
1.51025
 30
0.0
 40
0
 41
0
  0
VERTEX
  8
0
 10
5.8966
 20
1.50424
 30
0.0
 40
0
 41
0
  0
VERTEX
  8
0
 10
5.8859
 20
1.49783
 30
0.0
 40
0
 41
0
  0
VERTEX
  8
0
 10
5.86664
 20
1.49322
 30
0.0
 40
0
 41
0
  0
VERTEX
  8
0
 10
5.83469
 20
1.48996
 30
0.0
 40
0
 41
0
  0
VERTEX
  8
0
 10
5.78614
 20
1.4879
 30
0.0
 40
0
 41
0
  0
VERTEX
  8
0
 10
5.71679
 20
1.48676
 30
0.0
 40
0
 41
0
  0
VERTEX
  8
0
 10
5.62278
 20
1.48628
 30
0.0
 40
0
 41
0
  0
VERTEX
  8
0
 10
5.53065
 20
1.48611
 30
0.0
 40
0
 41
0
  0
VERTEX
  8
0
 10
5.5
 20
1.48611
 30
0.0
 40
0
 41
0
  0
VERTEX
  8
0
 10
5.46821
 20
1.48611
 30
0.0
 40
0
 41
0
  0
VERTEX
  8
0
 10
5.37283
 20
1.48606
 30
0.0
 40
0
 41
0
  0
VERTEX
  8
0
 10
5.27681
 20
1.48568
 30
0.0
 40
0
 41
0
  0
VERTEX
  8
0
 10
5.20719
 20
1.48454
 30
0.0
 40
0
 41
0
  0
VERTEX
  8
0
 10
5.15935
 20
1.48232
 30
0.0
 40
0
 41
0
  0
VERTEX
  8
0
 10
5.12858
 20
1.47868
 30
0.0
 40
0
 41
0
  0
VERTEX
  8
0
 10
5.11014
 20
1.47325
 30
0.0
 40
0
 41
0
  0
VERTEX
  8
0
 10
5.09939
 20
1.46565
 30
0.0
 40
0
 41
0
  0
VERTEX
  8
0
 10
5.09343
 20
1.45822
 30
0.0
 40
0
 41
0
  0
VERTEX
  8
0
 10
5.09169
 20
1.45557
 30
0.0
 40
0
 41
0
  0
VERTEX
  8
0
 10
5.08632
 20
1.44786
 30
0.0
 40
0
 41
0
  0
VERTEX
  8
0
 10
5.07688
 20
1.42019
 30
0.0
 40
0
 41
0
  0
VERTEX
  8
0
 10
5.07032
 20
1.37451
 30
0.0
 40
0
 41
0
  0
VERTEX
  8
0
 10
5.07232
 20
1.32802
 30
0.0
 40
0
 41
0
  0
VERTEX
  8
0
 10
5.07889
 20
1.29883
 30
0.0
 40
0
 41
0
  0
VERTEX
  8
0
 10
5.08333
 20
1.29026
 30
0.0
 40
0
 41
0
  0
VERTEX
  8
0
 10
5.08458
 20
1.28803
 30
0.0
 40
0
 41
0
  0
VERTEX
  8
0
 10
5.08979
 20
1.28201
 30
0.0
 40
0
 41
0
  0
VERTEX
  8
0
 10
5.10243
 20
1.27561
 30
0.0
 40
0
 41
0
  0
VERTEX
  8
0
 10
5.12679
 20
1.271
 30
0.0
 40
0
 41
0
  0
VERTEX
  8
0
 10
5.1684
 20
1.26774
 30
0.0
 40
0
 41
0
  0
VERTEX
  8
0
 10
5.23281
 20
1.26568
 30
0.0
 40
0
 41
0
  0
VERTEX
  8
0
 10
5.32553
 20
1.26454
 30
0.0
 40
0
 41
0
  0
VERTEX
  8
0
 10
5.4521
 20
1.26405
 30
0.0
 40
0
 41
0
  0
VERTEX
  8
0
 10
5.57656
 20
1.26389
 30
0.0
 40
0
 41
0
  0
VERTEX
  8
0
 10
5.61806
 20
1.26389
 30
0.0
 40
0
 41
0
  0
VERTEX
  8
0
 10
5.6595
 20
1.26389
 30
0.0
 40
0
 41
0
  0
VERTEX
  8
0
 10
5.78401
 20
1.26405
 30
0.0
 40
0
 41
0
  0
VERTEX
  8
0
 10
5.9106
 20
1.26454
 30
0.0
 40
0
 41
0
  0
VERTEX
  8
0
 10
6.00331
 20
1.26568
 30
0.0
 40
0
 41
0
  0
VERTEX
  8
0
 10
6.06771
 20
1.26774
 30
0.0
 40
0
 41
0
  0
VERTEX
  8
0
 10
6.10932
 20
1.271
 30
0.0
 40
0
 41
0
  0
VERTEX
  8
0
 10
6.13368
 20
1.27561
 30
0.0
 40
0
 41
0
  0
VERTEX
  8
0
 10
6.14632
 20
1.28201
 30
0.0
 40
0
 41
0
  0
VERTEX
  8
0
 10
6.15153
 20
1.28803
 30
0.0
 40
0
 41
0
  0
VERTEX
  8
0
 10
6.15278
 20
1.29026
 30
0.0
 40
0
 41
0
  0
VERTEX
  8
0
 10
6.15483
 20
1.29443
 30
0.0
 40
0
 41
0
  0
VERTEX
  8
0
 10
6.15842
 20
1.32926
 30
0.0
 40
0
 41
0
  0
VERTEX
  8
0
 10
6.16282
 20
1.41758
 30
0.0
 40
0
 41
0
  0
VERTEX
  8
0
 10
6.16564
 20
1.54986
 30
0.0
 40
0
 41
0
  0
VERTEX
  8
0
 10
6.16667
 20
1.67811
 30
0.0
 40
0
 41
0
  0
VERTEX
  8
0
 10
6.16667
 20
1.72081
 30
0.0
 40
0
 41
0
  0
VERTEX
  8
0
 10
6.16667
 20
1.75011
 30
0.0
 40
0
 41
0
  0
VERTEX
  8
0
 10
6.1665
 20
1.838
 30
0.0
 40
0
 41
0
  0
VERTEX
  8
0
 10
6.1659
 20
1.93099
 30
0.0
 40
0
 41
0
  0
VERTEX
  8
0
 10
6.16471
 20
2.00271
 30
0.0
 40
0
 41
0
  0
VERTEX
  8
0
 10
6.16282
 20
2.0561
 30
0.0
 40
0
 41
0
  0
VERTEX
  8
0
 10
6.16
 20
2.09407
 30
0.0
 40
0
 41
0
  0
VERTEX
  8
0
 10
6.15608
 20
2.11947
 30
0.0
 40
0
 41
0
  0
VERTEX
  8
0
 10
6.15093
 20
2.13531
 30
0.0
 40
0
 41
0
  0
VERTEX
  8
0
 10
6.14643
 20
2.14258
 30
0.0
 40
0
 41
0
  0
VERTEX
  8
0
 10
6.14442
 20
2.14442
 30
0.0
 40
0
 41
0
  0
VERTEX
  8
0
 10
6.14247
 20
2.14654
 30
0.0
 40
0
 41
0
  0
VERTEX
  8
0
 10
6.13465
 20
2.15099
 30
0.0
 40
0
 41
0
  0
VERTEX
  8
0
 10
6.11649
 20
2.15614
 30
0.0
 40
0
 41
0
  0
VERTEX
  8
0
 10
6.08604
 20
2.16004
 30
0.0
 40
0
 41
0
  0
VERTEX
  8
0
 10
6.03956
 20
2.16288
 30
0.0
 40
0
 41
0
  0
VERTEX
  8
0
 10
5.97331
 20
2.16476
 30
0.0
 40
0
 41
0
  0
VERTEX
  8
0
 10
5.88346
 20
2.16596
 30
0.0
 40
0
 41
0
  0
VERTEX
  8
0
 10
5.76633
 20
2.16656
 30
0.0
 40
0
 41
0
  0
VERTEX
  8
0
 10
5.65511
 20
2.16667
 30
0.0
 40
0
 41
0
  0
VERTEX
  8
0
 10
5.61806
 20
2.16667
 30
0.0
 40
0
 41
0
  0
VERTEX
  8
0
 10
5.58094
 20
2.16667
 30
0.0
 40
0
 41
0
  0
VERTEX
  8
0
 10
5.46972
 20
2.16656
 30
0.0
 40
0
 41
0
  0
VERTEX
  8
0
 10
5.3526
 20
2.16596
 30
0.0
 40
0
 41
0
  0
VERTEX
  8
0
 10
5.26275
 20
2.16476
 30
0.0
 40
0
 41
0
  0
VERTEX
  8
0
 10
5.1965
 20
2.16288
 30
0.0
 40
0
 41
0
  0
VERTEX
  8
0
 10
5.15001
 20
2.16004
 30
0.0
 40
0
 41
0
  0
VERTEX
  8
0
 10
5.11957
 20
2.15614
 30
0.0
 40
0
 41
0
  0
VERTEX
  8
0
 10
5.1014
 20
2.15099
 30
0.0
 40
0
 41
0
  0
VERTEX
  8
0
 10
5.09358
 20
2.14654
 30
0.0
 40
0
 41
0
  0
VERTEX
  8
0
 10
5.09169
 20
2.14442
 30
0.0
 40
0
 41
0
  0
SEQEND
 8
0
  0
POLYLINE
  8
0
 62
     0
 66
     1
 10
0
 20
0
 30
0.0
 70
     1
 40
0
 41
0
  0
VERTEX
  8
0
 10
7.82221
 20
2.15554
 30
0.0
 40
0
 41
0
  0
VERTEX
  8
0
 10
7.81907
 20
2.15315
 30
0.0
 40
0
 41
0
  0
VERTEX
  8
0
 10
7.81435
 20
2.12924
 30
0.0
 40
0
 41
0
  0
VERTEX
  8
0
 10
7.80951
 20
2.05524
 30
0.0
 40
0
 41
0
  0
VERTEX
  8
0
 10
7.80757
 20
1.91922
 30
0.0
 40
0
 41
0
  0
VERTEX
  8
0
 10
7.80789
 20
1.75999
 30
0.0
 40
0
 41
0
  0
VERTEX
  8
0
 10
7.80832
 20
1.70692
 30
0.0
 40
0
 41
0
  0
VERTEX
  8
0
 10
7.8125
 20
1.27083
 30
0.0
 40
0
 41
0
  0
VERTEX
  8
0
 10
7.92361
 20
1.26666
 30
0.0
 40
0
 41
0
  0
VERTEX
  8
0
 10
7.93772
 20
1.26628
 30
0.0
 40
0
 41
0
  0
VERTEX
  8
0
 10
7.98025
 20
1.26584
 30
0.0
 40
0
 41
0
  0
VERTEX
  8
0
 10
8.01665
 20
1.26807
 30
0.0
 40
0
 41
0
  0
VERTEX
  8
0
 10
8.03842
 20
1.27452
 30
0.0
 40
0
 41
0
  0
VERTEX
  8
0
 10
8.04889
 20
1.28272
 30
0.0
 40
0
 41
0
  0
VERTEX
  8
0
 10
8.05137
 20
1.28613
 30
0.0
 40
0
 41
0
  0
VERTEX
  8
0
 10
8.05485
 20
1.29102
 30
0.0
 40
0
 41
0
  0
VERTEX
  8
0
 10
8.06006
 20
1.31896
 30
0.0
 40
0
 41
0
  0
VERTEX
  8
0
 10
8.0656
 20
1.39567
 30
0.0
 40
0
 41
0
  0
VERTEX
  8
0
 10
8.06853
 20
1.52735
 30
0.0
 40
0
 41
0
  0
VERTEX
  8
0
 10
8.06944
 20
1.67562
 30
0.0
 40
0
 41
0
  0
VERTEX
  8
0
 10
8.06944
 20
1.72499
 30
0.0
 40
0
 41
0
  0
VERTEX
  8
0
 10
8.06944
 20
1.75776
 30
0.0
 40
0
 41
0
  0
VERTEX
  8
0
 10
8.06928
 20
1.85607
 30
0.0
 40
0
 41
0
  0
VERTEX
  8
0
 10
8.06879
 20
1.95632
 30
0.0
 40
0
 41
0
  0
VERTEX
  8
0
 10
8.06765
 20
2.03006
 30
0.0
 40
0
 41
0
  0
VERTEX
  8
0
 10
8.0656
 20
2.08165
 30
0.0
 40
0
 41
0
  0
VERTEX
  8
0
 10
8.06233
 20
2.11535
 30
0.0
 40
0
 41
0
  0
VERTEX
  8
0
 10
8.05772
 20
2.13558
 30
0.0
 40
0
 41
0
  0
VERTEX
  8
0
 10
8.05132
 20
2.1466
 30
0.0
 40
0
 41
0
  0
VERTEX
  8
0
 10
8.04531
 20
2.15158
 30
0.0
 40
0
 41
0
  0
VERTEX
  8
0
 10
8.04308
 20
2.15278
 30
0.0
 40
0
 41
0
  0
VERTEX
  8
0
 10
8.03901
 20
2.15489
 30
0.0
 40
0
 41
0
  0
VERTEX
  8
0
 10
8.02544
 20
2.15831
 30
0.0
 40
0
 41
0
  0
VERTEX
  8
0
 10
7.99875
 20
2.16243
 30
0.0
 40
0
 41
0
  0
VERTEX
  8
0
 10
7.9661
 20
2.16504
 30
0.0
 40
0
 41
0
  0
VERTEX
  8
0
 10
7.93056
 20
2.16618
 30
0.0
 40
0
 41
0
  0
VERTEX
  8
0
 10
7.89524
 20
2.16581
 30
0.0
 40
0
 41
0
  0
VERTEX
  8
0
 10
7.86333
 20
2.16396
 30
0.0
 40
0
 41
0
  0
VERTEX
  8
0
 10
7.83794
 20
2.16054
 30
0.0
 40
0
 41
0
  0
VERTEX
  8
0
 10
7.82568
 20
2.15756
 30
0.0
 40
0
 41
0
  0
VERTEX
  8
0
 10
7.82221
 20
2.15554
 30
0.0
 40
0
 41
0
  0
SEQEND
 8
0
  0
POLYLINE
  8
0
 62
     0
 66
     1
 10
0
 20
0
 30
0.0
 70
     1
 40
0
 41
0
  0
VERTEX
  8
0
 10
9.07221
 20
1.60417
 30
0.0
 40
0
 41
0
  0
VERTEX
  8
0
 10
9.06765
 20
1.59864
 30
0.0
 40
0
 41
0
  0
VERTEX
  8
0
 10
9.0536
 20
1.57032
 30
0.0
 40
0
 41
0
  0
VERTEX
  8
0
 10
9.05137
 20
1.54269
 30
0.0
 40
0
 41
0
  0
VERTEX
  8
0
 10
9.05279
 20
1.53749
 30
0.0
 40
0
 41
0
  0
VERTEX
  8
0
 10
9.05382
 20
1.53336
 30
0.0
 40
0
 41
0
  0
VERTEX
  8
0
 10
9.06511
 20
1.51622
 30
0.0
 40
0
 41
0
  0
VERTEX
  8
0
 10
9.09304
 20
1.48058
 30
0.0
 40
0
 41
0
  0
VERTEX
  8
0
 10
9.13243
 20
1.4356
 30
0.0
 40
0
 41
0
  0
VERTEX
  8
0
 10
9.16721
 20
1.39828
 30
0.0
 40
0
 41
0
  0
VERTEX
  8
0
 10
9.17914
 20
1.38612
 30
0.0
 40
0
 41
0
  0
VERTEX
  8
0
 10
9.29719
 20
1.26389
 30
0.0
 40
0
 41
0
  0
VERTEX
  8
0
 10
9.45415
 20
1.26389
 30
0.0
 40
0
 41
0
  0
VERTEX
  8
0
 10
9.46669
 20
1.26389
 30
0.0
 40
0
 41
0
  0
VERTEX
  8
0
 10
9.50444
 20
1.26405
 30
0.0
 40
0
 41
0
  0
VERTEX
  8
0
 10
9.54297
 20
1.26465
 30
0.0
 40
0
 41
0
  0
VERTEX
  8
0
 10
9.5715
 20
1.26606
 30
0.0
 40
0
 41
0
  0
VERTEX
  8
0
 10
9.59185
 20
1.26861
 30
0.0
 40
0
 41
0
  0
VERTEX
  8
0
 10
9.60568
 20
1.27268
 30
0.0
 40
0
 41
0
  0
VERTEX
  8
0
 10
9.6149
 20
1.27854
 30
0.0
 40
0
 41
0
  0
VERTEX
  8
0
 10
9.62121
 20
1.28662
 30
0.0
 40
0
 41
0
  0
VERTEX
  8
0
 10
9.62522
 20
1.29454
 30
0.0
 40
0
 41
0
  0
VERTEX
  8
0
 10
9.62642
 20
1.2972
 30
0.0
 40
0
 41
0
  0
VERTEX
  8
0
 10
9.63026
 20
1.30545
 30
0.0
 40
0
 41
0
  0
VERTEX
  8
0
 10
9.63217
 20
1.33464
 30
0.0
 40
0
 41
0
  0
VERTEX
  8
0
 10
9.61317
 20
1.38059
 30
0.0
 40
0
 41
0
  0
VERTEX
  8
0
 10
9.56506
 20
1.44217
 30
0.0
 40
0
 41
0
  0
VERTEX
  8
0
 10
9.50429
 20
1.50586
 30
0.0
 40
0
 41
0
  0
VERTEX
  8
0
 10
9.48335
 20
1.52636
 30
0.0
 40
0
 41
0
  0
VERTEX
  8
0
 10
9.36947
 20
1.63889
 30
0.0
 40
0
 41
0
  0
VERTEX
  8
0
 10
9.23469
 20
1.63889
 30
0.0
 40
0
 41
0
  0
VERTEX
  8
0
 10
9.22401
 20
1.63889
 30
0.0
 40
0
 41
0
  0
VERTEX
  8
0
 10
9.19206
 20
1.63878
 30
0.0
 40
0
 41
0
  0
VERTEX
  8
0
 10
9.1589
 20
1.63818
 30
0.0
 40
0
 41
0
  0
VERTEX
  8
0
 10
9.13374
 20
1.63672
 30
0.0
 40
0
 41
0
  0
VERTEX
  8
0
 10
9.1149
 20
1.63406
 30
0.0
 40
0
 41
0
  0
VERTEX
  8
0
 10
9.10092
 20
1.62983
 30
0.0
 40
0
 41
0
  0
VERTEX
  8
0
 10
9.09017
 20
1.62369
 30
0.0
 40
0
 41
0
  0
VERTEX
  8
0
 10
9.08111
 20
1.61524
 30
0.0
 40
0
 41
0
  0
VERTEX
  8
0
 10
9.07433
 20
1.60704
 30
0.0
 40
0
 41
0
  0
VERTEX
  8
0
 10
9.07221
 20
1.60417
 30
0.0
 40
0
 41
0
  0
SEQEND
 8
0
  0
POLYLINE
  8
0
 62
     0
 66
     1
 10
0
 20
0
 30
0.0
 70
     1
 40
0
 41
0
  0
VERTEX
  8
0
 10
4.39031
 20
1.50836
 30
0.0
 40
0
 41
0
  0
VERTEX
  8
0
 10
4.38758
 20
1.50532
 30
0.0
 40
0
 41
0
  0
VERTEX
  8
0
 10
4.38325
 20
1.49268
 30
0.0
 40
0
 41
0
  0
VERTEX
  8
0
 10
4.37879
 20
1.46511
 30
0.0
 40
0
 41
0
  0
VERTEX
  8
0
 10
4.37696
 20
1.42692
 30
0.0
 40
0
 41
0
  0
VERTEX
  8
0
 10
4.37728
 20
1.39111
 30
0.0
 40
0
 41
0
  0
VERTEX
  8
0
 10
4.37776
 20
1.37918
 30
0.0
 40
0
 41
0
  0
VERTEX
  8
0
 10
4.38194
 20
1.27083
 30
0.0
 40
0
 41
0
  0
VERTEX
  8
0
 10
4.47917
 20
1.26666
 30
0.0
 40
0
 41
0
  0
VERTEX
  8
0
 10
4.48904
 20
1.26622
 30
0.0
 40
0
 41
0
  0
VERTEX
  8
0
 10
4.51872
 20
1.26568
 30
0.0
 40
0
 41
0
  0
VERTEX
  8
0
 10
4.54958
 20
1.26752
 30
0.0
 40
0
 41
0
  0
VERTEX
  8
0
 10
4.57275
 20
1.27327
 30
0.0
 40
0
 41
0
  0
VERTEX
  8
0
 10
4.58942
 20
1.28391
 30
0.0
 40
0
 41
0
  0
VERTEX
  8
0
 10
4.60047
 20
1.30046
 30
0.0
 40
0
 41
0
  0
VERTEX
  8
0
 10
4.6071
 20
1.32395
 30
0.0
 40
0
 41
0
  0
VERTEX
  8
0
 10
4.61025
 20
1.35541
 30
0.0
 40
0
 41
0
  0
VERTEX
  8
0
 10
4.61111
 20
1.38574
 30
0.0
 40
0
 41
0
  0
VERTEX
  8
0
 10
4.61111
 20
1.39583
 30
0.0
 40
0
 41
0
  0
VERTEX
  8
0
 10
4.61111
 20
1.40517
 30
0.0
 40
0
 41
0
  0
VERTEX
  8
0
 10
4.60997
 20
1.43306
 30
0.0
 40
0
 41
0
  0
VERTEX
  8
0
 10
4.60618
 20
1.46278
 30
0.0
 40
0
 41
0
  0
VERTEX
  8
0
 10
4.59885
 20
1.48583
 30
0.0
 40
0
 41
0
  0
VERTEX
  8
0
 10
4.58729
 20
1.50299
 30
0.0
 40
0
 41
0
  0
VERTEX
  8
0
 10
4.57075
 20
1.51497
 30
0.0
 40
0
 41
0
  0
VERTEX
  8
0
 10
4.54839
 20
1.52262
 30
0.0
 40
0
 41
0
  0
VERTEX
  8
0
 10
4.51953
 20
1.52664
 30
0.0
 40
0
 41
0
  0
VERTEX
  8
0
 10
4.49235
 20
1.52778
 30
0.0
 40
0
 41
0
  0
VERTEX
  8
0
 10
4.48335
 20
1.52778
 30
0.0
 40
0
 41
0
  0
VERTEX
  8
0
 10
4.46789
 20
1.52778
 30
0.0
 40
0
 41
0
  0
VERTEX
  8
0
 10
4.42165
 20
1.52279
 30
0.0
 40
0
 41
0
  0
VERTEX
  8
0
 10
4.39268
 20
1.5115
 30
0.0
 40
0
 41
0
  0
VERTEX
  8
0
 10
4.39031
 20
1.50836
 30
0.0
 40
0
 41
0
  0
SEQEND
 8
0
  0
POLYLINE
  8
0
 62
     0
 66
     1
 10
0
 20
0
 30
0.0
 70
     1
 40
0
 41
0
  0
VERTEX
  8
0
 10
2.57497
 20
1.44168
 30
0.0
 40
0
 41
0
  0
VERTEX
  8
0
 10
2.55181
 20
1.42611
 30
0.0
 40
0
 41
0
  0
VERTEX
  8
0
 10
2.49251
 20
1.36437
 30
0.0
 40
0
 41
0
  0
VERTEX
  8
0
 10
2.44476
 20
1.27121
 30
0.0
 40
0
 41
0
  0
VERTEX
  8
0
 10
2.43397
 20
1.17019
 30
0.0
 40
0
 41
0
  0
VERTEX
  8
0
 10
2.45101
 20
1.09245
 30
0.0
 40
0
 41
0
  0
VERTEX
  8
0
 10
2.46251
 20
1.06944
 30
0.0
 40
0
 41
0
  0
VERTEX
  8
0
 10
2.46918
 20
1.05588
 30
0.0
 40
0
 41
0
  0
VERTEX
  8
0
 10
2.4924
 20
1.01666
 30
0.0
 40
0
 41
0
  0
VERTEX
  8
0
 10
2.52588
 20
0.975206
 30
0.0
 40
0
 41
0
  0
VERTEX
  8
0
 10
2.56581
 20
0.942329
 30
0.0
 40
0
 41
0
  0
VERTEX
  8
0
 10
2.60249
 20
0.921061
 30
0.0
 40
0
 41
0
  0
VERTEX
  8
0
 10
2.61529
 20
0.915256
 30
0.0
 40
0
 41
0
  0
VERTEX
  8
0
 10
2.62489
 20
0.911133
 30
0.0
 40
0
 41
0
  0
VERTEX
  8
0
 10
2.65517
 20
0.901801
 30
0.0
 40
0
 41
0
  0
VERTEX
  8
0
 10
2.71056
 20
0.893935
 30
0.0
 40
0
 41
0
  0
VERTEX
  8
0
 10
2.80063
 20
0.890517
 30
0.0
 40
0
 41
0
  0
VERTEX
  8
0
 10
2.90847
 20
0.890136
 30
0.0
 40
0
 41
0
  0
VERTEX
  8
0
 10
2.94444
 20
0.8903
 30
0.0
 40
0
 41
0
  0
VERTEX
  8
0
 10
2.97396
 20
0.8903
 30
0.0
 40
0
 41
0
  0
VERTEX
  8
0
 10
3.06267
 20
0.890136
 30
0.0
 40
0
 41
0
  0
VERTEX
  8
0
 10
3.14979
 20
0.892144
 30
0.0
 40
0
 41
0
  0
VERTEX
  8
0
 10
3.21061
 20
0.900228
 30
0.0
 40
0
 41
0
  0
VERTEX
  8
0
 10
3.24994
 20
0.918294
 30
0.0
 40
0
 41
0
  0
VERTEX
  8
0
 10
3.27262
 20
0.950196
 30
0.0
 40
0
 41
0
  0
VERTEX
  8
0
 10
3.28347
 20
0.999892
 30
0.0
 40
0
 41
0
  0
VERTEX
  8
0
 10
3.28728
 20
1.07123
 30
0.0
 40
0
 41
0
  0
VERTEX
  8
0
 10
3.28842
 20
1.14388
 30
0.0
 40
0
 41
0
  0
VERTEX
  8
0
 10
3.2889
 20
1.16808
 30
0.0
 40
0
 41
0
  0
VERTEX
  8
0
 10
3.29443
 20
1.38889
 30
0.0
 40
0
 41
0
  0
VERTEX
  8
0
 10
3.71528
 20
1.38889
 30
0.0
 40
0
 41
0
  0
VERTEX
  8
0
 10
3.75256
 20
1.38889
 30
0.0
 40
0
 41
0
  0
VERTEX
  8
0
 10
3.86442
 20
1.38917
 30
0.0
 40
0
 41
0
  0
VERTEX
  8
0
 10
3.97749
 20
1.3904
 30
0.0
 40
0
 41
0
  0
VERTEX
  8
0
 10
4.05914
 20
1.39328
 30
0.0
 40
0
 41
0
  0
VERTEX
  8
0
 10
4.11404
 20
1.39865
 30
0.0
 40
0
 41
0
  0
VERTEX
  8
0
 10
4.14686
 20
1.40707
 30
0.0
 40
0
 41
0
  0
VERTEX
  8
0
 10
4.16233
 20
1.41938
 30
0.0
 40
0
 41
0
  0
VERTEX
  8
0
 10
4.16504
 20
1.43625
 30
0.0
 40
0
 41
0
  0
VERTEX
  8
0
 10
4.1614
 20
1.45296
 30
0.0
 40
0
 41
0
  0
VERTEX
  8
0
 10
4.15972
 20
1.45833
 30
0.0
 40
0
 41
0
  0
VERTEX
  8
0
 10
4.15896
 20
1.46078
 30
0.0
 40
0
 41
0
  0
VERTEX
  8
0
 10
4.15517
 20
1.4675
 30
0.0
 40
0
 41
0
  0
VERTEX
  8
0
 10
4.14208
 20
1.47439
 30
0.0
 40
0
 41
0
  0
VERTEX
  8
0
 10
4.11171
 20
1.47933
 30
0.0
 40
0
 41
0
  0
VERTEX
  8
0
 10
4.05533
 20
1.48264
 30
0.0
 40
0
 41
0
  0
VERTEX
  8
0
 10
3.96425
 20
1.48465
 30
0.0
 40
0
 41
0
  0
VERTEX
  8
0
 10
3.82981
 20
1.48568
 30
0.0
 40
0
 41
0
  0
VERTEX
  8
0
 10
3.64324
 20
1.48606
 30
0.0
 40
0
 41
0
  0
VERTEX
  8
0
 10
3.45768
 20
1.48611
 30
0.0
 40
0
 41
0
  0
VERTEX
  8
0
 10
3.39583
 20
1.48611
 30
0.0
 40
0
 41
0
  0
VERTEX
  8
0
 10
2.64165
 20
1.48611
 30
0.0
 40
0
 41
0
  0
VERTEX
  8
0
 10
2.57497
 20
1.44168
 30
0.0
 40
0
 41
0
  0
SEQEND
 8
0
  0
POLYLINE
  8
0
 62
     0
 66
     1
 10
0
 20
0
 30
0.0
 70
     1
 40
0
 41
0
  0
VERTEX
  8
0
 10
3.38889
 20
1.13194
 30
0.0
 40
0
 41
0
  0
VERTEX
  8
0
 10
3.38889
 20
1.11458
 30
0.0
 40
0
 41
0
  0
VERTEX
  8
0
 10
3.38938
 20
1.0625
 30
0.0
 40
0
 41
0
  0
VERTEX
  8
0
 10
3.39128
 20
1.00944
 30
0.0
 40
0
 41
0
  0
VERTEX
  8
0
 10
3.39524
 20
0.971354
 30
0.0
 40
0
 41
0
  0
VERTEX
  8
0
 10
3.40192
 20
0.946724
 30
0.0
 40
0
 41
0
  0
VERTEX
  8
0
 10
3.41183
 20
0.934136
 30
0.0
 40
0
 41
0
  0
VERTEX
  8
0
 10
3.42578
 20
0.932183
 30
0.0
 40
0
 41
0
  0
VERTEX
  8
0
 10
3.44428
 20
0.939344
 30
0.0
 40
0
 41
0
  0
VERTEX
  8
0
 10
3.46224
 20
0.95025
 30
0.0
 40
0
 41
0
  0
VERTEX
  8
0
 10
3.46804
 20
0.954156
 30
0.0
 40
0
 41
0
  0
VERTEX
  8
0
 10
3.47314
 20
0.957574
 30
0.0
 40
0
 41
0
  0
VERTEX
  8
0
 10
3.48899
 20
0.967339
 30
0.0
 40
0
 41
0
  0
VERTEX
  8
0
 10
3.51785
 20
0.984375
 30
0.0
 40
0
 41
0
  0
VERTEX
  8
0
 10
3.55063
 20
1.00298
 30
0.0
 40
0
 41
0
  0
VERTEX
  8
0
 10
3.57508
 20
1.01649
 30
0.0
 40
0
 41
0
  0
VERTEX
  8
0
 10
3.58333
 20
1.02083
 30
0.0
 40
0
 41
0
  0
VERTEX
  8
0
 10
3.59088
 20
1.02463
 30
0.0
 40
0
 41
0
  0
VERTEX
  8
0
 10
3.61333
 20
1.03646
 30
0.0
 40
0
 41
0
  0
VERTEX
  8
0
 10
3.63906
 20
1.05089
 30
0.0
 40
0
 41
0
  0
VERTEX
  8
0
 10
3.65771
 20
1.06245
 30
0.0
 40
0
 41
0
  0
VERTEX
  8
0
 10
3.66558
 20
1.06809
 30
0.0
 40
0
 41
0
  0
VERTEX
  8
0
 10
3.66667
 20
1.06944
 30
0.0
 40
0
 41
0
  0
VERTEX
  8
0
 10
3.66769
 20
1.07086
 30
0.0
 40
0
 41
0
  0
VERTEX
  8
0
 10
3.68419
 20
1.08214
 30
0.0
 40
0
 41
0
  0
VERTEX
  8
0
 10
3.70969
 20
1.0969
 30
0.0
 40
0
 41
0
  0
VERTEX
  8
0
 10
3.71528
 20
1.09999
 30
0.0
 40
0
 41
0
  0
VERTEX
  8
0
 10
3.72114
 20
1.10281
 30
0.0
 40
0
 41
0
  0
VERTEX
  8
0
 10
3.76129
 20
1.12381
 30
0.0
 40
0
 41
0
  0
VERTEX
  8
0
 10
3.80485
 20
1.14827
 30
0.0
 40
0
 41
0
  0
VERTEX
  8
0
 10
3.8125
 20
1.15278
 30
0.0
 40
0
 41
0
  0
VERTEX
  8
0
 10
3.8201
 20
1.15733
 30
0.0
 40
0
 41
0
  0
VERTEX
  8
0
 10
3.86247
 20
1.1811
 30
0.0
 40
0
 41
0
  0
VERTEX
  8
0
 10
3.89931
 20
1.20139
 30
0.0
 40
0
 41
0
  0
VERTEX
  8
0
 10
3.90419
 20
1.20416
 30
0.0
 40
0
 41
0
  0
VERTEX
  8
0
 10
3.91336
 20
1.20888
 30
0.0
 40
0
 41
0
  0
VERTEX
  8
0
 10
3.93918
 20
1.22656
 30
0.0
 40
0
 41
0
  0
VERTEX
  8
0
 10
3.96544
 20
1.25195
 30
0.0
 40
0
 41
0
  0
VERTEX
  8
0
 10
3.98053
 20
1.27702
 30
0.0
 40
0
 41
0
  0
VERTEX
  8
0
 10
3.98351
 20
1.29389
 30
0.0
 40
0
 41
0
  0
VERTEX
  8
0
 10
3.98193
 20
1.29861
 30
0.0
 40
0
 41
0
  0
VERTEX
  8
0
 10
3.98019
 20
1.30235
 30
0.0
 40
0
 41
0
  0
VERTEX
  8
0
 10
3.96647
 20
1.30952
 30
0.0
 40
0
 41
0
  0
VERTEX
  8
0
 10
3.92188
 20
1.31581
 30
0.0
 40
0
 41
0
  0
VERTEX
  8
0
 10
3.83192
 20
1.31874
 30
0.0
 40
0
 41
0
  0
VERTEX
  8
0
 10
3.71837
 20
1.31944
 30
0.0
 40
0
 41
0
  0
VERTEX
  8
0
 10
3.68056
 20
1.31944
 30
0.0
 40
0
 41
0
  0
VERTEX
  8
0
 10
3.38889
 20
1.31944
 30
0.0
 40
0
 41
0
  0
VERTEX
  8
0
 10
3.38889
 20
1.13194
 30
0.0
 40
0
 41
0
  0
SEQEND
 8
0
  0
ENDSEC
  0
EOF
